<mxfile host="app.diagrams.net" modified="2021-06-24T12:05:06.945Z" agent="5.0 (X11; Linux x86_64) AppleWebKit/537.36 (KHTML, like Gecko) Chrome/78.0.3904.108 Safari/537.36" etag="ykX2j3gyZGZK2eKmoXNe" version="14.8.0" type="github">
  <diagram id="tgDHOi--DeXi3fASmvjN" name="Page-1">
    <mxGraphModel dx="1622" dy="780" grid="1" gridSize="10" guides="1" tooltips="1" connect="1" arrows="1" fold="1" page="1" pageScale="1" pageWidth="827" pageHeight="1169" math="0" shadow="0">
      <root>
        <mxCell id="0" />
        <mxCell id="1" parent="0" />
        <mxCell id="V_HjX4hnAaI_aaEMFoxw-1" value="" style="shape=image;verticalLabelPosition=bottom;labelBackgroundColor=#ffffff;verticalAlign=top;aspect=fixed;imageAspect=0;image=data:image/png,iVBORw0KGgoAAAANSUhEUgAAA2YAAAC0CAIAAABwqagQAAAgAElEQVR4AeydCZhcRbn3q85+et97pqd7JiGLMUiIaNjVKwRQEELYieyCIFfvRQQEb+CyyaKC4FU2+QCRiEKURVlvgpclAS+ShBAgJGGS2Xrf17PX95zu6Z6enl5mkkngkupnnqfr1Kl6661f1cz5z3uqzoFz5swB+IMJYAKYACaACWACmAAmgAm0JkC0PoXPYAKYACaACWACmAAmgAlgAjoBLBnxPMAEMAFMABPABDABTAAT6ECA6nAen/5UENByP+oPL0JlXyC7MhBYycJdc0xdPLL9VNr3rx6DsmuGcG1MABPABDABTAAT2AsI7KRk5Bd2P/6oZ9bawcMuSWXLmEi38YxLPKcuNs5yE0Ko+MqjoVsfLaQrIqctR3V2Jrk0U5grKzwgoqzxRZf7Ze5TFPyEmnB0LH5cXnAiIsaZnnO7VrHEJPrVttP6STQzOXx10XRzj32oIv9Q6ZyB4WNl/ZwGiSzNvmd2PG43JCEAhPnO2SYCAUJK3jJU6Gj6EymwU6A0fz61JJ3fT5TNCKZYwytO99MGSivzsZWyJ6Yyi0qSDREJzviCy/UiRyIA7JmRX0WL9PhOKrz7cr8tWs40idkTk3pFp4pUxn5Tr3Mb7FgLdaWD12e5O/3OLZ+i2Te+k/gIE8AEMAFMABP4xAjsjGSEFvOVt9jkLXL5yl5xnVhwlu/M3sIfboiuD4GeQ91XXznjxvhH//6c0l5cafPjIz9OaxvtjnsMTAYipyQXqU/VFVs9NBJcJhlXdLs2E9rCZPi8ES3f1/UmuasjRkjpc1Pa6z22Ub04ag9+4PI/YCIJTe0qpc+Ohy6i+n5moRAACEB1FwOLu+py+/o7BQrJ84ty2uT8lZvOI3VeOnZ2KJro871KAYDEY+JpL297yM4loPKFVGxZMJrp615LgqzZcw2PxmAg5SuR4EEsmy47aCzGrgvlM1bHw3Y+SBEEAply0fa1AIBhq+uV7PAFKdN/OFm1fV/xWUwAE8AEMAFMYK8jMHXJCKkjl/sP/+fIraWeu/pqvLT1v9z6rerRhx/JgcXzLjyIp57LlYNm1RMN34SUPiutbPL0/tJSCSyBfo6vlCGk1LVD8XkagJB51ufJp6PHF2WO4H8f6HmZBqRSPC6RPKIgOhGMs8bVTufzvG6BFBI/Gy680dv7FFM2g4QzB4f3M/cudzBITl0/WHzXw89MZecoKkmwbzncj1lYscGn8YdQzi0uEKt6PC/zEKqFYySkaPljcvJbNrqqhdG+scEfFfjf9HremYLWRfMymZms7R5uTPlUWpZIOkKTCNBB1j4zmz9MUghAtVcwrWiUDWozs4lT0vnPSSoHiTBnWeF1rZ8w6JScvWw45jZ13+w25ACAmrA4Hv9mXvRoSCCZHUb7Ax5zJYA3Hs/Y0SRAjRUeS0H2ZU9X7XDEbj4yn/MpCFAQQO5Pgdr8Ygdc8pcHkvNFtNYAVYIeroxvuSYtZL8ks//dzUt66Fb8RjybdwZuszEN0NrVqngA2VVW7thEeqHdO5WhrLmPE5gAJoAJYAKYwGeYwAT10KmvviX+a+dnrjgjB3/Yuigk7VaQSSl1Ychmhb2FQoAwPmEe1Yv1RTTGfsMsO63mLx4IfzUSHbB6ruliFUVVaQCQcHIwtJi03efv2kZoszOxS4JBQ0/giQnyq96gnkbFJSn2Dl/fHRSwFRNXhYLnkH0PGtvdZaYkoZfgn9Etq/snYgfSzoeM6XMEkQF0TWsiCFQAOnS1wRUkHJhX+u2mWEP+2CFyFPNflKlNhkbpM1akkmpLw5MJ/yQmbXG4f2FkckDtE9TYhPgoVAoXBGN+g/fGsl4EAPWloucUmYd93ncpwCnyDJVKNbbaeDwZUI11xh+zivCVVNbJWv7RbJkmoakmQOYmOA+A+uVU1mz0vFq+UU1IhUUy/wZdvGg49AVZkynuf+3OP5sYXU2O+4yrVTuTMpq2xBIHltA7xkYpXyuDE5gAJoAJYAKYwF5JYGqSkZrp+ukV9MrvDb6dBwfBllfVruO8J/uKD/9VaAj0NBBGblkGjDmo20FfjGy/IqtCAAuW7ku9xkpwUiYICSCesd3v4JMAAEaP47HFzGKJ/Uufc11ZJaxzep4qDZyULjzbZWoX0tQbJzbaHRspvb20wfGcIXNhtvCY0Vxq8KvukFdUiuSyABiLifPz9BMB60f5HCWpRgCqkhF+4Oq7yFVXZxJJQhFmq/QH5ZV544ujBdHtj0YBBIiA7Gtu3+8NHUKXbWgISPxapiibu3/tMFb6OMKOa03TA4ql00PhhYz7Jo9JJ1z+EPptcDJG0wkSAIoeqea3+Z4EqFa1R4eeAETMYLvb5+hvMq+UQ5JZF2tbM0FNElL2uAL5qt+YK5unZbELCYvT1F8dXU/T0FlMficSNMHehn8MGmrVPEMkt4XRDhIk0ojvTdeo4AQmgAlgApgAJgAAmIpkZPkLb/Owj/Tf/56uNVrhsx3cfc/1xg9/tu1326r3blsV1fcy6Kv0AABws9P/Y7u2MDZ8UmMtOGTgK8vUKnbsksRT/LYxz6ltHMUVJRcAoVYtjeaTsbJeLB/BCE1SRdkFwFDrWkjXxYjQimdG8xFnYDUNXQAi1OhiawPNzxCy7AJUhJ4IEX7k8D9oIiDS3ELm9NjI94H/LkvtJngTa21oDAPZL4EdNl5oUk/PkqByZDh+gsTf67OExnyB222eP4uRy3cUN1usL1stG5h2gdiK7fagoJq5Znt0wSg2+KF7xo02fYFm+aMP/dU2xKnSvtnkZYPSI4Hu18cGFwCg7hsPfafErvDbhker1L60/dLpHs5+dzXAzKoaCdjnvZ7VZQthq+fx0o7vZYuPGU11/xg01qqZA5COUMAhKwTAknGMCk5hApgAJoAJYAJTkozUfo7TF9Defeeuu0wnB0lIgcDajV1PXrz5hjcr13/YdYTvvp9ZE//V/++Pi51CfgBkKBIWZTcCMQhKFDMMUKBZTE3U9zA0fsYUTvXMxBwA0Hi1heqlSJ1grZqY8C2QpKRKX43nD6Kd11ppDSCbqiCS2sVNyxBpLCCEZh6LFB1kdNeGWVYRd1yVyXst9vAExxoyJlqq5ZS3zjQUHz20ZuOLjZbXqczJicIGz2igThfxJP+0r+8VsXBEOvXdwWTM1vVzl77Gsc2nPShEmh/o5UeXqQIgkhX2o/ZKFDOkDwy7lafNA8PHZaU1Dmb0Rj9SvhQPXponV/Z0rWJqfRqtCJXct3Lg7S5LvOqZTBAaQdTdfIcJmiRLCg9ATTJOrFWtrc9qkYA0qttbU3cOJzEBTAATwAQwgb2YQL2G6oBB2RQ599h4NUwHF1w66yZPbNn1mVCoIuiIOacG7ruaf+fGj5c/I05YPNbEOBzm+XSqcFjJ+aGhiShsUqOclWSZoiLMVsDW0eesKLMERWIYXTfoywoRp6FKFBSqUmDcUwdVv6hCvhLfUnslRaGZRKtmyvkKy+3QokflDQ/3WnXdhqQFRWXYzHaWw23NIkhIQGYnCuHxtSoSqVEojS/TjgagwjQ4VBQZUN4aMr6i3hvOeZvXmpGI64ajF/KBu8ctKoVZ1vS017TaELorklpkN7zSZB3hmMVOoIg4U7djZaxeQwqRABA1xYakI8LBsyTuYb/39SYRWTQrnZ5HWa6rmzwiy4a07P6Ctp6v/POBvJIiUXSdxG9Sq84JffJIJOw0MnU1cBITwAQwAUwAE9grCExBMgJBGdxeU2DQnUWaSR7oF/XnMkLyS5fO+M2l7KZfDT/2MTn3C4YyPC32sRCpRXcm8pQM9pWG/EXhEdXhWMtTgibPVgCoe+Aeo6ksAJSmcQiUqtJJ4m0vscNLo4mI27qN0PbJxpYKzCp/ebkezQ4QqUPSubdcxgSSDk6kZ4+/Wz0rHTuKdf2DAd25+Aklcq3P0OqmbcVbRJleNCc/XyIIWezV1Lnp+HGK4REzXbfZRdsvNvRvBf7XvZ53m4VIJ/Zaf+wiRSVAySMjQFZ7VS3HqLJX1gDSXELmjJw24DDWb1WmECIAopC+LqAia9rRgOzrFu7oRPQSyvWckSkh1SXJksG8uSr+JJpOQ6Cw9nudpRuj4W+wPc/rkTxtXjbjpAxbGUoEyrySzBBsqtHNqrvV70mAqhat+yak3Gk5dYBnoySpatK+mcTXVfZpk77jB6qlpaHQSTK70mMbUcV9KstiCWpE90r/QDX/razygdO6o843jbG8YEhfGIlEPc63adBVSJxRpF7z8dWFp81rjXmEZK8C4lyHLepj5XEKE8AEMAFMABPYWwhMRTK2YUIZln7b5KDBV38086s/qpZThftO3XLnpnYRG/p/ugOFZOJb6cjX4ioFyThjeMNIqwAYc+FfRnLmsjYC8YGH4rBg9Fzps+hbdyH7tM8nxhNnDafdGkxyhhd83r9WVrMRpj96bd+Nx2/YEVVJ9h27+w8o9PWqPwDQf7fzs+LDZ4qqRnFvevTNJe280yuS69y+h+KxE8JDZ2swxRqf9Llfa4SGJq0VR13RaK6fTM4RVMjVlvRVTqH58aG74vr2kyLNvmvvfsxe1k9K5vKhxH6qypaB9AxtOx4SGaN7ebcl2YYGgMP27tth/NRM5LqEBiGZYI1/5M1jPEZTMGjzPloa/E44udXv3EoAoJaOS6a6FP3ueZw1PNHt2tC5h5MB1dgyIghNSp+eSbhUDRFUmDP+0ed8qbzHhRRzx5RUChTPCBbPqNZTGce1vc7K/pieTPoAaL7D3ACQeq2rByTix4eHlmkgx/Cven1/Ho046lZa1KqCUIW5EtHPVW+LV9vF35gAJoAJYAKYwF5PAM6ZM2evgADl1PUDma3+vseqWyU+0W5r+0cHLpfsP/LbauvwPlF/cOM6AUdm5M4kdXefd31niYyJYQKYACaACWACexUBfGn8ZIab2GS1DouZo4VOUc5Pxr29slUkLs4IQattI/6l2CvHH3caE8AEMAFMoC0BfHVsi2f3nVRZ+0M24mvxtB+Lxt1HeQqWkS8TOxLYHrHhx+tMgRouiglgApgAJrDXEGhclrfXdPyT7yj82Bm4+JN3A3tQIQCDNv/FNkwDE8AEMAFMABPABJoS2GvWMjbtPc7EBDABTAATwAQwAUwAE5gEAXxjehKQcBFMABPABDABTAATwAT2bgJYMu7d4497jwlgApgAJoAJYAKYwCQIYMk4CUi4CCaACWACmAAmgAlgAns3ASwZ9+7xx73HBDABTAATwAQwAUxgEgT2OsmIZiaHHuwPHrGLb4meBNr/o0WgnLph28BpYrNn/2i5H23b+set5Z9tg6c0LTO1bquLR7bdHy3ijftTwzbtpZF42sC2W5LSJ/T3AP9WTvuIYoOYACaACUw7gZ28VvMLux9/1DNr7eBhl6T0d0wDYJxju+C7zmMPNQTsUIiW1jwR/un9uWjlzcDT7DUqnTMwfGxZ8yFI5CjmfbPjcYcxWveu4dYtQoGkwwyZ+4Suja0d+79whjDfOdtEIEBIyVuGCp9aj6GSXj5QeGNGz9+rb9Pu6CrUhKNj8ePyghMRMc70nNu1iu34Msn2VtXZmeTSTGGurPCAiLLGF13ulzk87ZpC25nfyp0Y5aZt777MnfIQOUrZY1PpI4to9WRfVYVspeyJqcyikmRDRIIzvuByvciRzf7n2319xZYxAUxgbyCwM5IRWsxX3mKTt8jaGCHYc6C5L5a56/Lg9hTsWuT6ydV9N4U/uuQv8m76wwV32H13W2mAVG8pe1o8dAUIXOOc1EOYQ9au5dYxx3FqSgQQgOqkpPmUrE5zYUKW3VObd+qhkeAyybii27WZ0BYmw+eNaPm+rjcnrTgndECbHx/5cVrbaHfcY2AyEDkluUhhvTiBUzVjJ34rpz7K1cb21PfUPdT2jw1dloMbLGyoKEzWTSQeE097edtDdi4BlS+kYsuC0Uxf99qdn72TbRmXwwQwgb2MwNQlI6SOXO4//J8jt5Z67uqr0UJbVgxdUT3a8nF0/9Ntx82kCSDvljgjAEAhqQhNa4AOMawqFq4qFrqcbEhKXTsUn6cBCJlnfZ58Onp8UeYI/veBnpcp4fSh4RNFpAseyP+uz/8CXfEXfT42cK5mCguZA1T6FaeVziS+IhPr3T13W2gNAFchsSyVny/KZgQzDP+a0/2kkVYBIFq39W5h+GcZ7uZe19ZRdYXmxAeuK1muDjhGqoyafkNNWByPfzMvejQkkMwOo/0BjzkKACkkfjZceKO39ymmXA8JZw4O72fuXe5gkJy6frD4roefmcrOUVSSYN9yuB+zsGKlAU06JJk4Plf0q6BI8284XU+YGKmt8/+tV4S8kP5BNH2AqKoUt9bhWWFhRg029bucSSrF4xLJIwqiE8E4a1ztdD7PU9X/KrSZ2cQp6fznJJWDRJizrPC61k+Ye5ScvWw45jZ13+w25Fo3BFoPiicT+kmi6FQ1GoCL+7fqT0qHzDP+3sfbvlgcyrnFBWJVj+dlHkK1cIyEFC1/TE5+y0ZPTXlWfSak9FlpZZOn95eWUQL9HF852WbavEyDVgx3fgJUXZr4zYrZb8dTBwsyB+n3rdZY/X8CLaaNjrPFFC3bbz7K7brc8rcS6C+FbzGx249yK4bt3KDb92sivNGcVn8c2nvY0hwgPrB3X+NkIih7VXrSkhFyfwrU/hKzAy75ywPJ+SJaa6gf0dZt4jOYACaACUyWwITLdqeKviX+a+dnrjgjB3/YvCjJ0wuWeE/oLj31Uml36cWGlsu6BKoAaIz9hll2Ws1fPBD+aiQ6YPVc08Uqiqrq6pD7U+/sJ5FmKcRuDzesZESBgvRSoO/NxNBl0dRqX+/VUvjWdK7H4hgCoEDSW62epzk6DbXeXPzScCTV63+JbtdW3mzZlEj8S8mx1VAOLCFxUUHZbjEHG/xuPER9qeg5ReZhn/ddCnCKPEOlUo1lmh2j4pIUe4ev7w4K2IqJq0LBc8i+B40EAsrhkZELZOPvuns30NBVSF4SCdJE78MGoh0onY20OFla6e35PQu7cvHvR4Mk1fugoe2NWiScHAwtJm33+bu2EdrsTOySYNDQE3iirNU8mfBPYtIWh/sXRiYH1D5BjU0IgUClcEEw5jd4b+ykF0HrQUmYPTcaEVWK3xpRngp0lQMtsER2uHZSktBL8M/orqr7J2IH0s6HjOlzBJEBdEeh3Gw8gLdQCBDGJ8w1xTxWqh35tgzHTExMtZwAE4tWc7Ti2cHogbT93oB1O5QPjkeWSWB49GTLaQNAuynaapTbdbndbyUALfrVbpRbM2zrRrt+VZE1+W71x6Gdh03MjGXJFBMGAKpopyPShKaaAJmb8Ps11gZOYQKYACawkwSm9peJmun66RX0ymvCb+cBhI0XYuZfAv/4cMEHG+Y/8l3yr5dtv2/TzoVoptITiFRfIXlyXh0wGaPVijJBSADxjO1+Bx8niDRD10JWGiTyBKyGvqoVAFBZ4waa2srRCmVca6CiLCOoiq3sf4mzvGDmB2kqSzGbbLZ3CHFu3baPpm0h0vSKCR2YKZrKLZBi4UsK94a5c8iKAAhAMkbTCYoe4QxrjEyDth3zeFyK2Gh3bKQgADBtcDxn0A7NFjgASDGzpED+rcv9KkdnSOpji+svBvXwbJGt1m3qfOXkFrvnWQOTJunNNvczvHJoRjfY5sMWM4sl9i8e5zpGB7XO6XmKlY5Kl2sh8WuZomx2/9ph2swyIyy/1moarps8mh67Kp0eCi9k3Ld7TMk2zVRPtRoUlSCTFJXUhxgWKEpPU2Sprq2qgXHfvKJSJJUFwFhMnJ+nn/BYP6JISlWN40pN/gC5ZRkwbFBvF30x0r9i69Y/bN3220hhNK4NQFPy7Rh2aLz5BGhTiS1mD1HZv3mc6xkqTfMvue1bqqXbT5uWU7TTKDftcqXNVr+VADTvV5tR7siwlRst+1XF0vR7eudhfROd5mx92fq0ckgy62Ita9idNVBvDKcxAUwAExhHYCpRRpa/8DYP+0j//e/pF/lxZsoH8tvhZUtirIGedZDj4rvmzLr54x8+I02UZxMr7kQOmpUY/F0CEAhBgn7f2nW3jRnfEhwy8OlJG1ZJMg8AD6FGktly11Q0+o++QcyeksgcIEhWBBAAtIbWNZqd2Bax0WIuBjMHKabVFOot5O2c7X87o4bbbZ4/i5HLdxQ3W6wvWy0bmLaBvTE3yJiuFysfGKFJqii7AEiJYheSlgz1f6t6jkAaxSlmAOqCZxOdBwBQ28eWz5MDLFUxOFS1M/HbLkk8xW8b6yO1jaO4ouQCYBjIfgnssPGt7rRJUDkyHD9B4u/1WUK1fkxsoy5nEoNSV7pTEun//SBCK54ZzUecgdU0dAGI0M7/x1PZelCuDzc7/T+2awtjwyc12msk34ZhqEMXmk+AduMlywzJflzVsIhkd1BgfrkVvt20aTNFO4xy2XZjlzt0C0y9X+3mYa21iW606VetVpPE9M7DJg3UZUE1c8326ILRWQQ/dM+40UaNn1PqvvHQd0rsCr+tGjCuq4+TmAAmgAnsKoGxa3xHS9R+jtMX0N595667TC8LSUiBwNqNXU9evPmGN/U/Xaggf7xFBkD4YEN+xDHvd+fbZ/0tsnX33JyGgzbff1koBRIZimoaRhKJSeotvS9qVQIjCJU6ElDNXzQS85i9d3qNQyREqHTuQNBRV6CSnNiWzFtfpYf+JSf93YYWFdQP7KbMhFoTMxDJP+3re0UsHJFOfXcwGbN1/dzVdFUfGh+xRPXDWNMr+phAw4qAe32dDkME2XCze6LzEx3TR7dp7vjMunZGT9RyUGsL1mx8sdHyOpU5OVHY4DHWQsLjbY8dTXJQxip0SgkkKanSV+P5g2jntVZaA8imKoikdnpPeIYiYVHfghODoEQxwwAFmoXzm5KvEat5PTEHgElNgJqFFglYP6a1XU3tp037KdpmlCs+NO1yC/f0Sdd0YrcuP3pmIrGGnIlutO9X0xanfR42baWWiUjzA7386JJYAERy/J5opHwpHrw0T67s6VrFNHS3ZgMnMAFMABPYFQLNrmQt7CmbIuceu/lbJ3x0gv6z5T+eU6S3w2ee2P+bDfVXntHKFAkgBXfjghqZpIIME6ab68UWXZhyNiGVPqfxLztNg6R+fYWa3KU26W0zu8xrFtafy/dKhQMUfo1x/N/3ZhWqeTDLmp72Bq7y8j3p1KKK4oZABYjTRpuGqhSoF7ZA9Yu1K77aKykKzSQAEFg2AqQelYrRdO0nThKTEPHKjDqDfaIilw1WPWzynWSZoiLMHvNKmSUoEsPE9bJUmAa9oljZujOxMuKct3ldD3bZc7nohTml45TsPCiwHA+e5EABoLDcDq1wVJ5+0mMN60JFWlBUhjl2cqsCJnYIDvN8Wi0cVtKmdOlux3CnJsBEz2o5KYYWVdFfnQpQk/3VsZvEtGk2RTuNcq3pqSSaT+xRC81GuR3Dzg037VfLatM+D1u2NHqCiDPMUPUnWr9CF0lHhIf/tcg84vc9t6sPh+rkBT6PCWACey+BjtfnOjSCMrhd7O8f/QllkVaUB/rFeAkAkjvx8q5vH2tetB839/PGxecHrj+V+ui5zLbqJanOyu5PMprKAkBpGjdBNECkmTREAMRr+qbajh9EUXEgLsoKHlX1CPnTwsl54222aSthtr6n5L+VylsNlg2T4qzNy6YOK4oeRbUq4vySzBBUqiw6VJodIORD0rmZimqRS0fF07PHuz4rHTuqJFtVeV46dkKJXGs1CPoCTetTRnREJLQ0L3QpikcSDsgkv1msiUvQxvm5qdg3qwaXlKg1VkOprkVKv2uPKFSNzQIg8baXWHFpNHGApFgUaWEyulRgVtmMei3Ivm7hTJnoJanCLEn2icKCXG5e3cyQaDoNgcza73Uy+0bD35DGI65rt5LsOCgazYSBcHim2K2qVkXqqPIRZXrRTKkkQchir1hcHI0cpxhWmfX98rWPPRN84OMd5xU7+FYpLxnsKw3av4RHzk8X5onijFKhTkzrRZqSb8Nw5yZAzfmJCZG3rKWEE6Pp+bJqkYUjYsn51Z61nTYtp2jHUW7a5YpjbX4rm07sSq2mo9yGYaVWCzda92siu2rOtM/DquGpfUO1dNLI8AUC/azLNqKK+wiC/iMptSXLUzOHS2MCmAAm0JIAnDNnTsuT7U7Ag677/AO+0Fcqj/Im6K/9W8/3jzXO6SFZpMV3FF99MnLXY4V4nTBoZ2xq5/RHeY/MtfZeZ29YvwiMufAvIzlzVcogAAtGz5U+SwoAqGSuGowtUFEt8okAzBvdV/ssntjAj1T397qMfGbkV1nD1QF7vBj9VRjdP9P7LtRmZGIXJvMzVJBn+FecNi0RCjj2+aUJtmmr2h1t/+jAjzPg7z0zfjupB15o81LhczJCl6KxgIizhlUu99/40fCksxD/bjz7eVlTSfYdu/OjUujrbGD0ITsD2e1uK59NHSiqGsW96XD/vvaQHSR/KZU4PlucqWiAICOs4RWn+0WOaON8+eEmpbXdhtmJ1JfLBtc4PSvM+kN2oJK5fCixn6qyVcIqJDJG9/JuSxIAQi19M544siC6NZjkDH93uP5qoKoTQJ2Xjp+aKcyWNQjJBGv8Y5fnH/pNR3XxyPZTad+/egzlIJfy1dDgd2TrzX7n1nYiu+WgVMkjfy5+XjI3R9YISL3pDdxr6hDlhZr49XjshLzg1mCKNT7vdr8wtppTDzzuF91xdZ6/a0bX2+0cq7av15AXJRPfyhVnKCoFyTjDvWtzPWJm+NZTFLRluJMToM6jhiQj5ZbFkoeVZI6g37W53hfCX+H0GaUL5RbTBoB2UxSA5qPcbrK1/K20JuXU9W0mtt6Z5qPcah62caNTvxrI1Q6nfx7Shcivw3kOIEpDABIKBNsdgRsn/KGreaDH8IvR34xkGh41qzKOa3ud/VOKctcbxWlMABPABFmPU2cAACAASURBVJoQ2GnJ2MQWzmokYM4G/ytB/3yG+/3d9rdbV3gDma2TfVFEo4f4eHIEpCVDg0exvh95DHU7hyZXdTeX+qxOgM9qv3bzdMDmMQFMABPYfQQmGTLZfQ58li0rB+ZKCbN5827Ti59leJ+mvkFVnCsxr1r5T5te/DRBwr5gApgAJoAJfLYJ1O9I/Gz3dA/2rrw2S3MW4icK3F89XPXm7B70ADc1rQQQaf75LPO0msTGMAFMABPABDCB/1sEsGTcDePFFaJ3hfMEyb3u9a6ezC6b3eADNokJYAKYACaACWACmMD0EcBrGaePJbaECWACmAAmgAlgApjAZ5QAXsv4GR1Y3C1MABPABDABTAATwASmjwCWjNPHElvCBDABTAATwAQwAUzgM0oAS8bP6MDibmECmAAmgAlgApgAJjB9BLBknD6W2BImgAlgApgAJoAJYAKfUQJ4x/QnO7BIPG1waKG5d/StG5+sM+XWy49Qzr4f6H2CnfA8SS33o/7wosqb5SC7MhBYObHM1LrQ8PaXqVXGpTEBTAATwAQwAUxgTxHYScnIL+x+/FHPrLWDh1VeGFjnbptTdaV2Jam/MHD4WBkgAGWCDHGm/3Y6Vo97vduuWP/U1lVnZ5JLM4W5ssIDIsoaX3S5X+aI2uvC9Lcj0uxmo/Uph+Vj/a2IaFG4//Kc1qj7oOnuWd1vNuZOrteE+c7ZJgIBQkreMlSYXJ1PVymopJcPFN6Y0fP32osjOzio+fOpJen8fqJsRjBVfuPi0waq/vXTLQwgRyl7bCp9ZBGtHv9uHqgJR8fix+UFJyJinOk5t2sVS5R1OLKVsiemMotKkg0RCc74gsv1YuPE1uYkhq9NSu959/m5Bd8jaMEeZ2MCmAAmgAlMP4GdkYzQYr7yFpu8RZ543Wxzanp9hzvsvrutFKtIB6Ri5wUVsbf79Z3py/R6tfusafPjIz9OaxvtjnsMTAYipyQXqapigNzKHu8aUnOJxaOSseuK4p1+97sk3OQKXOkAEKCuTPjfCvw93bZhXSkS8Z3Ti+XOIQDVXai++wBN0jIhy+5KlHSSFZA8vyinTc5fuek8UuelY2eHook+36sdJpu2f2zoshzcYGFDRWF8U+qhkeAyybii27WZ0BYmw+eNaPm+rjdJAJB4TDzt5W0P2bkEVL6Qii0LRjN93Wvr1K2xmLg4Bwc7tD6+QXyECWACmAAmgAlMA4GpX3sgdeRy/+H/HLm11HNX33gP2pwaX3AajhSSitCMRjMDtPKFHYkDBPS6qaxlNOmQZOL4XNGvgiLNv+F0PWFipHKDUBMWx+PfzIseDQkks8Nof8BjjlZ8aVGLkFLXDsXnaQBC5lmfJ5+OHl+UOYL/faDnvfzQz9LsbTM81fdHo31jO64WrD8OOIIAgBYGAQCsmP12PHWwIHOQft9qjU1CgRFS+qy0ssnT+0vLaHyrn+PrIMIszYQoEGK4TQbm+4Ph81Lmq1xciWKGK4VICCAZYZihSbRVQcUL6R9E0weIqkpxax2eFRam47vySKV4XCJ5REF0Ihhnjaudzuf5WjROm5lNnJLOf05SOUiEOcsKr2v9hLlHydnLhmNuU/fNbkMOgHbjVdf5hqSrkFiWys8vBwUzDP+a0/2kkVYB8GRCP0kUnapGA3Bx/9aLAQCQecbf+zjXFgpkX/Z01ZoYsZuPzOd8CgJU21qA+MDefY2TiaDsVelxkhHKucUFYlWP52UeQrVwjIQULX9MTn7LRiPI/SlQ+5ViB1zylweS80W01jDaFlTz50aLm90uKRby1nzCCUwAE8AEMAFMYE8QmHDZ7tSob4n/2vmZK87IwR82Fm1zqrHotB5DDQBl9KqqHB4ZuUA2/q67dwMNXYXkJZEgTfQ+bCAAQH2p6DlF5mGf910KcIo8Q6VSo360rKUx9htm2Wk1f/FA+KuR6IDVc00XqyiqSoO82bwlmTq0hN6vXNFR6eC8utVuDuk2WxoEWvHsYPRA2n5vwLodygfHI8skMCrsWkPxFgoBwviEuabAWhZFpPG/TdTyQr7XyX3cXtW0tAEAkBYnSyu9Pb9nYVcu/v1okKR6HzRUbp62qIaEk4OhxaTtPn/XNkKbnYldEgwaegJPlAWZJxP+SUza4nD/wsjkgNonqLG6yFnFIlQKFwRjfoP3xrJebDteLXwoZxdIeqvV8zRHp6HWm4tfGo6kev0v0SBh9txoRFQpfmtEeSrQVQ7dwRI5BUasInwllXWyln9MYgWnTDFhAKCKqqHgUZ8pSegl+Gd0LOr+idiBtPMhY/ocQWQA3SDKCU01ATI3Bkr5SjQ209R1nQGcPqVAaTta+BwmgAlgApgAJjBJAg0XtA61qJmun15Br7wm/HYeQDjuatvmVAeju3KaVKWDk+k5pOmtsjQhxcySAvm3LverHJ0hqY8trr8Y1MOzRbbcBqGvfiRjNJ2g6BHOsMbIyOX89rUAADJBSADxjO1+Bx8niDRD5wBAlPkNXvtSrsiVjbCl/Jc1wxsmGgHQxiBbzB6isn/zONczVJrmX3Lbt3TuP3LLMmDYoA4cfTHSv2Lr1j9s3fbbSKHZywhhmKGRojg7m21XYovd86yBSZP0Zpv7GV45NFOodLNVHbaYWSyxf/E41zFUlmLWOT1PsdJR6XItJH4tU5TN7l87TJtZZoTl11pN5Vvko8Y0PaBYOj0UXsi4b/eYktU2Wo1X9Xzz7xJnecHMD9K6G5tstncIca6oKyyVIJMUlSSgBmCBovQ0RZbGzeHmBmvMH9k+coJqvtvn6J9UrVFrDWV5RaVIKguAsZg4P08/4bF+RJGUqhobG1cOSWZdrGXNqDxFvnTkTMVyn5MvAdBgs7EqPsYEMAFMABPABKafwFSijCx/4W0e9pH++9/TL/LjfGlzaly5aTtAsxKDv0sACqEcZ7uvx/VOORjDi2IXkpYM9X+r2hCBNIpTzACIAG63ef4sRi7fUdxssb5stWxgRsNmbWtVDQE4ZODTtSM9Qf7TbPh2LLefZnyb0ObnCrTB9XaZZxuDlCwzJPtxVeshkt1BgfnjzDY5ICubI/QzcLPT/2O7tjA2fFKLUFPlvwC1iZnJZ1Hbx3ZdkAMsRRVlFwBDrQ3YJYmn+G1j04naxlFcUXIBMAxkvwR22PhxN2jrTElQOTIcP0Hi7/VZQmPzquV41VVtkjSI2VMSmQMEyYoAAoDW0LompaaUpTO/2oY4Vdo3m7xsUHokMLpwFqqZa7ZHF4wOBPzQPeNGG9ViWEZbRPp/WojQimdG8xFnYDUNXQAi1FBJ3Tce+k6JXeG3VSLQtJi6JIWe9zn0yHFD2Sl1BRfGBDABTAATwAR2ksDYNb6jAWo/x+kLaO++c9ddppeFJKRAYO3Gricv3vxTueWpG97cLVc4OGjz/ZeFnJUMXiAREXpUaOhNQcOKgHv9mPIAiCArN6ARyT/t63tFLByRTn13MBmzdf3cpa+Za1+rxkUkGu/M5ozm9bHooUXtn4bSwQW03mvMlUu3Meguo6tHMpndJBmKhEV930YMgvIKRRRoGR5GPlEC9KSWSNa6NplEvc+tytdRHy1Sy0GtpY41G19stLxOZU5OFDZ4RhnqAdUW49WqdX3w1fxFIzGP2Xun1zhEQoRK5w4EHW0qTO5UiWKG9N8UditPmweGj8tKaxyMpntofqCXr60qFcmKtm9nVCBJSZW+Gs8fRDuvtdIaQDZVQSQ1tv8cKV+KBy/Nkyt7ulYxFX5oVjY7W1FmDn18Wtk2iRCI9j+asP5shntTDXG7ZvE5TAATwAQwAUxgFwlMQTIqmyLnHhuvLvuHCy6ddZMntuz6TCiEFNTy1C7617K6TFJBhhlxe+YPhr+bNP6nkxMBEFg2AnI9KvUy3+pCCrOs6WmvabUhdFcktchueIWcTK0WbhDGN0zw33IFLyh8EZr+S18xqX/auJFiaFEV/Sr4oEwearJfaWF8LBsO83w6VTis5Pyw/YJCAAgl9428GrIaR8aq70RKmSGqkKsEzNQ+UZFpJtHWTJJlioowWwFbRwOoyixBkRgmrteiwjQ4VBQZwFf2ITVYQpzzNq81IxHXDUcv5AN3j1uy2WS8GqrXHxJS6XMa/yenabA8FFCTu1Q0rlFYDj1ORv/W2x1LIxIAAqHq9CLiDDN2chIpheV2aNGj8oaHe61hXRdLC4rKsJmtrJEASDoiHDxL4h72e1+v/iMEAOx39FxhrTktnDQctdv9/89EJ6p+TKJlXAQTwAQwAUwAE9gVAlOQjEBQBrfX9A10Z5Fmkgf6xazefptTu+Jep7qIND7mMd0aii41+v/IESprfcqYvSQSSrscb3KUpin+UtFLW180kAho87IZJ2XYylAiUOaVZIZgU+UrbttaugeMprIAUJrGITB+9Rv8wGwqBDPnqmLR7Puwev1uY1DkLWup4InR9LDbPAzkRYnkfATKO2badVUy2Fca8heFR1SHYy1PCZo8WwGgencbAGSRJZ+qeYX80an0PNp+u53dtRvTYG4q9k3GtYYB3bn4khK1xmco1TlIIUQARCF9eUJFyEi87SV2eGk0EXFbtxHaPtnYUoFZ5TfqtSD7uoU7OhG9hHI9Z2RKSHVJsmQwb65u7JBoOg2BwtrvdZZujIa/wfY8r0fXWo5XnSONSURRcZBflBU+NNNALn09kZyHwMa6UhrNhEH+8EzxPRtbRCoP6XDbHTCElDstpw7wbJQkVU3aN5P4uso+bWJ2Gi+iTC+ak58vEYQs9mrq3HT8OMXwiJnW13qopaWh0Ekyu9JjG1HFfSptENQIQ4kkHaziAkgtQMCTTJBuGWqu6zFOYgKYACaACWAC00JgKpJxWhqcdiM5o+sh89C/R5LrA66PCGpNl19IJY6PB09UNECQEf3Zy3A0PqOWjkumuhSNBUScNTzR7dowes1tWcuYC/8ykjOXtRGIDzwUhwWj50qfpbrVGsiceS2VOVGg/+LmanIagJYGAWF4zOfVYskfDsQ5gn7X5nrCEP5KZyj0/3QHCsnEt9KRr8VVCpJxxvBG+dkxeg+QcMrwwFJIZGj2fUvXcptpZBe1BDSs8PCz48OniqpGcWu8vhXlACpUMpcPJfZTVbYMpGdo2/GQyBjdy7stScg+7fOJ8cRZw2m3BpOc4QWf96+jz6+Bw/bu22H81EzkuoQGIZlgjX/kzRM6DYM276Olwe+Ek1v9zq0EAC3Ha0LVaoZGWx9ySxcmR+6MgzzDv+L0PKeGAtWz+rOPaNsDXuW8ZPi2lEZA6k1v4F5Tu7vJiCA0KX16JuFSNURQYc74R5/zpUnsmKYLkV+H85wurNG+w/1HQbDdEbjRzmiAXOf2PRSPnRAeOluDKdb4pM/9WvnXkBRzx5RUChTPCBbPqPqsMo5re51T2nBTrYq/MQFMABPABDCBaSQA58yZM43msClMABPABDABTAATwAQwgc8egV0MR332gOAeYQKYACaACWACmAAmgAk0EsCSsZEIPsYEMAFMABPABDABTAATaCCAJWMDEHyICWACmAAmgAlgApgAJtBIAEvGRiL4GBPABDABTAATwAQwAUyggQCWjA1A8CEmgAlgApgAJoAJYAKYQCMBLBkbieBjTAATwAQwAUwAE8AEMIEGAlgyNgDBh5gAJoAJYAKYACaACWACjQSwZGwkgo8xAUwAE8AEMAFMABPABBoIkE6nsyHr//KhlvvRx4P/nkiekkyekioAo+WD6juxd7ZX6uKR/h8L3ItG/ZVuk/xAOXXD9qjHaH2/ZetoZnL4F6FC3mTeXnsR3CSt42KYACaACWACmAAmgAnsaQI7+cJAfmH34496Zq0dPOySVPkd04Ba2P38454ZNf2jCveduuXOTaOv6pvWbqHSOQPDx8q6TQ0SWZp9z+x43G5IQgAI852zTQQChJS8Zagwra1OrzEokHSYIXMTorxQSS8fKLwxo+fvNZTT2/IuW9spD5GjlD02lT6yiFb7+x4bfZGg7grUhKNj8ePyghMRMc70nNu1iiXKswbZStkTU5lFJcmGiARnfMHlepGrvNwPzYkP3JCSa/Cm+FY9Xa9fXTTd3GMfqr4WvC2VPek86koHr89yd/qdW2rda+scPokJYAKYACaACewRAjsjGaHFfOUtNnmLXB93I120I5e57rzwusqrlhFKDO4OvThKBX7g8j9gIglN7Sqlz46HLqL6fmahEAAIQHVSOmCP4G3dSMjatdza5DQhy+7dyK1Ji1PNmrqH2v6xoctycIOFDRWF8c2ph0aCyyTjim7XZkJbmAyfN6Ll+7reJAFA4jHxtJe3PWTnElD5Qiq2LBjN9HWvLStpq6IWTJ6fOnm1bA5BMjLpQSek9Lkp7fUe20S9yBTj1+S5Oz2m3JiXe9h5GLa6XskOX5Ay/YeTrfRuzBecwgQwAUwAE8AEPjECU5eMkDpyuf/wf47cWuq5q2/Mb6uHpodz//xI2LZnrnMSSUdoEgE6yNpnZvOHSQoBqPZNk0rxuETyiILoRDDOGlc7nc/zVFX2ajOziVPS+c9JKgeJMGdZ4XWtnwCHkrOXDcfcpu6b3YY6VTFGoS4FeSH9g2j6AFFVKW6tw7PCwogAACScPjR8ooh0hQP53/X5X6BHK3kyoZ8kik5VowG4uH/rxXoB5hl/7+Mc+Hxs4FzNFBYyB6j0K04rnUl8RSbWu3vutui3y12FxLJUfr4omxHMMPxrTveTRloFAMqp6weL73r4mansHEUlCfYth/sxC6u70fbTymBrD9vrNeIDe/c1TiaCslelx0lGKOcWF4hVPZ6XeQjVwjESUrT8MTn5LRuNIPenQG1+sQMu+csDyfkiWmuAAKh2FcR4fpBhqsPXtj/jTqJ5mcxM1nZPXaSzdh6q8gyZHj/se9x5yK6ycscm0gvt3ndwoLE2NjiBCWACmAAm8AkTGH95nIQzviX+a+dnrjgjB39YXxq6PBQ90/3bv7t5Uot/nH/mgfAjb8jlm8f1xaY/jRzF/BdlapOBaa8XARJODoYWk7b7/F3bCG12JnZJMGjoCTxRlg6eTPgnMWmLw/0LI5MDap+gxibcF4ZK4YJgzG/w3thZLwIApMXJ0kpvz+9Z2JWLfz8aJKneBw2EroR6Zz+JNEshdnt4HJ+E2XOjEVGl+K0R5alAVzmcBksk1COnAAUK0kuBvjcTQ5dFU6t9vVdL4VvTuR6LYwiAAklvtXqe5ug01Hpz8UvDkVSv/6WKEkXFJSn2Dl/fHRSwFRNXhYLnkH0PGit3flsORiuDrT1saapyQqaYMABQRQ0SiJKEXoJ/Rh8Cdf9E7EDa+ZAxfY4gMoBu0LWEppoAmasMClLtCupOB3+d1ghIjRjMzzhtG1suGx3vGxIOzCv9dlNsfHaboz3vfMpo2hJLHFhC7xjba/E2XuNTmAAmgAlgApjA9BKYmmSkZrp+egW98nuDb+fBQbD+coY2PzxwwdtkJqSIBuaQM7svv29W10Vbb35T3U03WdGC6PZHowACRED2Nbfv94YGNdKIiS1mFkvsX/qc68paap3T81Rp4KR04dkuk4DEr2WKsrn71w5jqVxvhB1XXdOX3JVOD4UXMu6bPKbkuJMtD7bYPc8a9HvlaZv7mcKOZZnCYwZzxb4GiTwBGyJkKkEmCUDp+bBAUcnxmlVljRtoCnK0UmLXGqgoZIS0YkNgCIISZ3mBG3Vjk832Tjo0V0Qv0ZXhITbaHRU5lTY4njNkLswWHjOOutHK9VYG23vYylp9fv2UAQDwikqRXBYAYzFxfp5+ImD9KJ+jJNUIwHjJqBySzLpY2xq2bACyz3f5PkRkgoScXFocj185otwecG/qMAV0RwhFmK3SH4yuiRx1DSqZHw8mZukxYI1DxZ/3JxAAAw7/LbZxUcw95jwiuS2MdpAgkUZ8b7p++uA0JoAJYAKYwCdIYCqSkeUvvM3DPtJ//3u6hmpwWssIb62p5In914rMrHn/9m3zXW+mO92/bTAz2UP4kcP/oImASHMLmdNjI98H/rssdBt9apcknuK3jfWX2sZRXFFyATAMZL8Edtj4cTdN6zyRoHJkOH6CxN/rs4QaO15XblyS2j6mS8gBlqKKsguAoXFlpnCgkmQeAB5CjSSzZR9UNBq0M4jZUxKZAwTJivSAJK2hdWOGydhY+A1GaHIybrQ1OGZ611NI/7cDEVrxzGg+4gyspqELQIQahlHdNx76Told4bcNV5vMs4b3Kmma+W036hlIHF1wbjJ31oyELLsAFRnV06PmEGW+p9dIAcAWorfkuFu6LGkAFIJs0PTVxqu1dp/zkI5QwCErBMCSsYE6PsQEMAFMABP4pAiMSaiOHlD7OU5fQHv3nbvuMr0sJCEFAms3dj158eYb3hx/ldfkLVtUeg5tJUCu/XW3Y6utCogUHWT0/bPDLKuIO67K5L0We7hV6Wr+RL1XyylvnamWG/9tzcYXGy2vU5mTE4UNHuNOq+DxkMa30eEIqlWRjiCsbDCq1IBq/qKRmMfsvdNrHCIhQqVzB4KOMWuofoRH9xuPnW2S6mSwSZWdzhJIUlKlr8bzB9HOa620BpBNVRBJje11R8qX4sFL8+TKnq5VTG2sxjWIKGaIQH5VhaDDDXd91iKNBYTQaInIUrrcZAkIIJmiqNS4Fpof7E7noUhAGpUXvDZvHOdiApgAJoAJYAJ7mEC9oOjQtLIpcu6x8WrMCi64dNZNntiy6zOh0AQpRNCz9iFKI1JyN+nFBk8rAqBRBowvlGSZoiLMVsDW0e0myixBkRgmrhejwjQ4VBQZwEvja1WOEOe8zWvNSMR1w9EL+cDd5tqmmWalR/OUGaIKOf3GNABqn6jINJNoU7x2CpYjhROQ1s43JAip9DmN/5PTNFgOsUFN7lJRXS9Uv6hCftSNXklROrnRyaAeYNZjmZP2sMHh+kOF5XZo0aPyhod7rbrcR9KCojJsZkfXeCLpiHDwLIl72O99fXxcsN4IVCWfRsSpih6uP9MkjSAhAZn9tDuPOA1JJJwON5tAwFmYACaACWACmMDUCUxBMgJBGdxeC3BBdxZpJnmgX9Sfy0jQx1zqcm3Lfzgolzh20cneH+wn/uHnueLUHZpsDUaVvbIGkOYSMmfktAGHMVpXldJv2iIK6aG5ynVX4m0vscNLo4mI27qN0PbJxpYKzCp/efEiZF+3cEcnopdQrueMTAmpLkmWDObN1dWEEk2nIVBY+73O0o3R8DfYnudbRLzqXABzU7FvMq41DOjOxZeUqDU+Q2UhYyXWZdJ0D3lNowFRvwtGo5kwyB+eKb5nY4tI5SEdrrpRb7yWRhQVB/lFWeFDMw3k0tcTyXkIbKydBmBWOnYU6/pH2Y0TSuRan6HV/fdKpY4Gm3nYXq7XeTM+iSjTi+bk50sEIYu9mjo3HT9OMTxi1reBQ7W0NBQ6SWZXemwjqrhPZXMTQY0wlKTkT0orwwYuQkJWKX0tkZjF2P5g7HxXWn+QJ0UlQMkjI6DvK2r8iObu882Nma2Od6PzSPYqIM51eAJAK8dwPiaACWACmAAmsBsITEUytmkeaQmRueCHgcu6KYOmDm3M/uai0O/f3Y0xRjQ/PnRXXH8KY5Fm37V3P2bXd0xDJXP5UGI/VWXLYrFnaNvxkMgY3cu7LUnIPu3zifHEWcNptwaTnOEFn/evo09agcP27tth/NRM5LqEBiGZYI1/5CdqBxi0eR8tDX4nnNzqd25tL1GgYYWHnx0fPlVUNYpb4/WtKG/QgUrmqsHYAhVVdOBpgx+fCmDe6L7aZ63EIDXa9oBXOS8Zvi2lbwd+0xu419SuJY22PuSWLkyO3BkHeYZ/xel5Tg0FxoaK/rudnxUfPrPsxpsefZ9Q+9hVJ4OgmYcdInx0IfLrcJ7TRTzad7j/KAi2OwI32hkNkOvcvofisRPCQ2drMMUan/S5XyvPSVLMHVNSKVA8I1g8o9qdyiO7txOkLKdOjyRcKtII+mOj83aXbVsTBVitVvet0Vw/mZwj1ALAdedaJPe881AV5kpEPzdu800L73A2JoAJYAKYACawZwjAOXPm7JmWcCt7moD+XMaBzNbxb1vZ00586trT9o8OXC7Zf+S3ldckfOr8AwA4MiN3Jqm7+7zr2/2z8Gn0HPuECWACmAAm8NklgK9Jn92xxT1rRoDYZLUOi5mjhfbB1mZV90weEhdnhKDVthH/bu4Z4LgVTAATwAQwgUkRwJelSWHChT47BFTW/pCN+Fo87f80ikbky8SOBLZHbPjxOp+dKYd7gglgApjAZ4LANK1l/EywwJ3YSwjAj50B/X2Mn8YPDNr8F9s+jZ5hnzABTAATwAT2bgJ4LePePf6495gAJoAJYAKYACaACUyCAL4xPQlIuAgmgAlgApgAJoAJYAJ7NwEsGffu8ce9xwQwAUwAE8AEMAFMYBIEsGScBCRcBBPABDABTAATwAQwgb2bAJaMe/f4495jApgAJoAJYAKYACYwCQJYMk6EhMTTBrbdkpR2mg2UUzdsGzhNbPMQFzQzOfRgf/CI+ncFTvQE52ACmAAmgAlgApgAJvCpILCTD9nhF3Y//qhn1trBwy5J6e+YLn8IK7/0e94zFhvndpO0Iv6/c7bc8W4b1VStNvVv9MXojh9kFX70FdJQoMz39Hnf3mmJN3UPdrkGFEg6zJC5CT5DJb18oPDGjJ6/t3219C47sPMGdspD5Chlj02ljyyi1ePfRgM14ehY/Li84EREjDM953atYiuvNES2UvbEVGZRSbIhIsEZX3C5XuTG3kxoErMnJvWzThWpjP2mXuck3xkIAJqZHL66aLq5xz40qdcM7knnUVc6eH2Wu9Pv3DJhbuz8mOGamAAmgAlgApjArhLYGckILeYrb7HJW+T6d0hDq+nHK2YcHUvee2P0ne2KQEAlvlv0IgAArvfMvMCDZiYGb8yb/rPX2T+pC/+uopre+iFr7k0MxwAAIABJREFU13JrE5OELLt3F7cmze1E1tQ91PaPDV2WgxssbKgojG9RPTQSXCYZV3S7NhPawmT4vBEt39f1JgkAEo+Jp7287SE7l4DKF1KxZcFopq97bVlJG4ux60L5jNXxsJ0PUgSBQGbSc4CQ0uemtNd7bBP1IlOMX5Pn7vSYcmNe7mHnYdjqeiU7fEHK9B9O/DTvsWHAKUwAE8AEMIFPmsDUJSOkjlzuP/yfI7eWeu7qq7kP557tOykdOfXC2A61lrmbExqAAIL65vS3Kg+W/reLn5HKfl5SjIDabHX91mlMlj0hleJxieQRBdGJYJw1rnY6n+epiuxlxey346mDBZmD9PtWa6xef2jSIcnE8bmiXwVFmn/D6XrCxEiduwZ5If2DaPoAUVUpbq3Ds8LCiAAAJJw+NHyiiPQWIP+7Pv8L9KgtTyb0k0TRqWo0ABf3b9WfNQ2ZZ/y9j3Pg87GBczVTWMgcoNKvOK10JvEVmVjv7rnbQmsAuAqJZan8fFE2I5hh+Nec7ieNtApAmUbxXQ8/M5Wdo6gkwb7lcD9mYXU32n5aGWztYT2viaaJD+zd1ziZCMpelR4nGaGcW1wgVvV4XuYhVAvHSEjR8sfk5LdsNILcnwK1+cUOuOQvDyTni2itAQIkfiOezTsDt9mY+tGf2HCzHDQvk5nJ2u7hmvgMVXmGTI//ndjjzkN2lZU7NpFeaPe+gwONzYYQ52ECmAAmgAl8EgTGXx4n4YFvif/a+ZkrzsjBH9aVJtmjjmLffVb6l5tnnXowa5Ll916K3vGbzPZxAqGu/G5MouJpceoeX+89NDQKiZ8MR85mZ/zKRCAknBwMLSZt9/m7thHa7EzskmDQ0BN4goNAK54djB5I2+8NWLdD+eB4ZJkEhkddVA6PjFwgG3/X3buBhq5C8pJIkCZ6HzZ0vJhLi5Olld6e37OwKxf/fjRIUr0PGghdCfXOfhJplkLs9vC4lYwJs+dGI6JK8VsjylOBrnI4DZZICAACAAUK0kuBvjcTQ5dFU6t9vVdL4VvTuR6LYwiAAklvtXqe5ug01Hpz8UvDkVSv/6WKEkXFJSn2Dl/fHRSwFRNXhYLnkH0PGit3flsOQiuDrT1saapyQqaYMABQRQ3UKEnoJfhndPWm7p+IHUg7HzKmzxFEBtANupbQVBMgc+UQIyEVFsn8G3TxouHQF2RNprj/tTv/PCkdr0v2A/NKv90U6+Dy2Ok973zKaNoSSxxYQu8Ym+jaMc9wChPABDABTAAT2HMEGq7hHRqmZrp+egW98prw23kAYd3ljOHm9MH9znD1rY9cft62i65Llo7qfWi52VJXpIPpaTy9xeb4XxoiAPKc+W1GmyHoG1nYYmaxxP7F41zHUFmKWef0PMVKR6ULnH4qe4jK/s3jXM9QaZp/yW3fUvWGFDNLCuTfutyvcnSGpD62uP5iUA/PFtlqgTbfW+yeZw1MmqQ329zP8MqhGb2tykeDRJ6A9ff1AQAqQSYpKqnnwwJF6WmKLFUJqqxxA01t5WiFMq41UFGWEVTFVr6FXeIsL5j5QVrv1yab7R1CnDu284bYaHdspCAAMG1wPGfQDs2OuVF1p/G7lcH2HjZaaXZc7c3oOV5RKZLKAmAsJs7P0094rB9RJKWqxsa6yiHJrIu1rGF1A7QsdiFhcVra6ui62d/zoAUuigTPLWgNxhttlI8JRZit0lvr1kTqwVwlc3V//2/7+38dLXCl+M/L6eXpxv1PDfZ3n/OI5LYw2j6C9GldztoULc7EBDABTAAT+GwTmEqUkeUvvM3DPtJ//3saAOOun9BAmin00SNDNz0h6UJoIHH9L4yv3O44/Nbc84U9DZAMMbVNElCGgES6sLJLEk/x28b6S23jKK4ouQBQZJkh2Y+rN4gRye6gwPyy27wodiFpyVD/t6q9IJBGcYoZgIYwWPV87ZvaPqZLyAGWooqyC4Ch2vkpJlSSzAPAQ6iRZLYMX0WjQTuDmD0lkTlAkKxID0jSGlo3ZpyM6Xqx8oERmpyMG20NVo1NxzfS/+1AhFY8M5qPOAOraegCEJXHq868um889J0Su8Jvq4R+WVUjAfu817O6PJphq+fx0o7vZYuPGU2lumpNk4QsuwAVoWtM9FKIMt/Ta6QAYAvRW3LcLV2WNAAKQTZo+gaDu9F5SEco4JAVAuDljA3U8SEmgAlgApjAJ0VgTEJ19IDaz3H6Atq779x1l+llIQkpEFi7sevJizffsFETVJQdGdsQI4TlBGWwmwHY45IRKq27Mk4plItVc/SoZO2jVnP1TGhYEXCvr+boCoMgU7WiU0nUNzGVeroTalWkIziug1DNXzQS85i9d3qNQyREqHTuQNAxZh3Vj3BFSrd3o5PBMdO7nhJIUlKlr8bzB9HOa620BpBNVRBJjc0ZpHwpHrw0T67s6VrFjI6BTBAaQcTGQnAwQZNkSeEB6CgZIdJYQAh1o1nuBZGl9Hg7S0AAyRRFTWZ8d6fzUCQgjcoLXnedMraACWACmAAmgAlMA4F6QdHBnLIpcu6x8WrMCi64dNZNntiy6zOhEAJS6f3txNKvGPn/yVeu2sZexi3K4UwHm3vudJJlioowWwFbR6OJyixBkRgmDoDG0KIq+lXwQZkG1GR/VXUKLBsBuR6VeplvVBmdXFdmiCrkqLI+U/tERaaZRKc6+nlYjhS2l3V1dgip9DmN/5PTNFheYwA1uUtFdbtzVL+oQn7UjV5JUTq50cnglD2sc7YxqbDcDi16VN7wcK81rItxaUFRGTazo2s8kXREOHiWxD3s975eFxcUWTakZfcXtPV8ZV0F8kqKRNFjQrOxnbFjBAkJyOyk8Y7VnJDanc4jTkMSOe7fmAnt4wxMABPABDABTGBPEpjKWkZBGdwu9veP/oSySCvKA/1ivASAKvzld1njaYGfnW+e28PMOdR10+WWxFOJtR2jPrvSVwLoN2In2QOJt73EikujiQMkxaJIC5PRpQKzymYsASDylrWUcGI0PV9WLbJwRCw5vyopVNb6lBEdEQktzQtdiuKRhAMyyW8Wa1HIdu7PTcW+WZKtqjwvHVtSotZYDTUaEGkmDREA8Zq+P7r+o9FMGAiHZ4rdqmpVpC616kp9obo0oqg4EBdlBY+qeoT8aeHkvPE1ZqVjR1XdOKFErrUa2u9J6mhwqh7WOduYRJTpRTOlkgQhi71icXE0cpxiWGXWt4FDtXTSyPAFAv2syzaiivsIgv4jKawu8S0vGLQjI5Fji5JblvZLR84oUq9Z+U5LBfTWNYpKAMUjj2dU9Us0d5/fY51MiLF8O3u3OY9krwLiNDX1/eDVnuBvTAATwAQwAUxgmglMIcrYvuXQ04Pnw+4r/397ZwImR1Xu/XNqr957epmenp6ZwCSIiSAXWURBHiGQixDDIosRUBFvIlevyKLAB3yAsl29KFwuIPgBCgFZhODCEgFlSRBQAhggN/tsPb3vW63ne6pnuqe7p6ume9KThZx58qSr6pzznv/5nbe63j51TtWF/U9cRqJkad1Tw9++M1+NkYzLtpuqPcr7uxnFpN25S9y0NVkkrXfP+ChvyK72+4VY/NzRlEeFCc70nL/7DxNPWiFMD/u71WjiB0MxjqDfc7gfN4WOmRRFrfUFSsn40ljwVFkFBBlmTS+7Whj+gaZVXn5+bPRMQVEpbm23f1V5kTWU0z8cjh6soInbqmcNbz0TwJzZc4XfPjEGqdKOe7vlbyRCtyRVAlJvdPfdbTGKilXafr9HvDAxdlsM5Bj+ZZf3T8p43xRR+i9OfjA2+tWyjDe8/odMMyyXnskgaKawOnl0quLaLTofvjOU4wCiEFo0uu0ECLZ39d3gZFRAvuPx3x+Lfjk0cp4Kk6z5Cb/n1bJPkkJ2SVGhQOGcYOGcii2F6bpGewwn9aqvF8RjS0Mjy1WQZfhXuv2/mxxxrGTV+VRpbhuZWFCqDgDr5Ks5vOvFQ6V0gEhs4xjjyZQ1GvEmJoAJYAKYACYw1wTgggUL5roObH/3ENCeyziU3lz/tpXdI2UPqlX9dGToEtF5acAR24NU1UnpSo/dlqBuH+heb/Rjoa4I3sEEMAFMABPABOaYAL4mzTFgbH4PI0BssNtHhfSJpeb3pne/WiQsTpeCdsf7+Nzc/Z2BFWACmAAmgAlUCeDLUhUF3tg3CCis834HcWwsFdgTg0bkT0ePB44HHfjxOvuGO+JWYgKYACaw1xDo2FzGvabFWOg+TwBudfVp72PcE/9g0BFY4dgTlWFNmAAmgAlgAvs2ATyXcd/uf9x6TAATwAQwAUwAE8AEWiCAb0y3AAlnwQQwAUwAE8AEMAFMYN8mgEPGfbv/cesxAUwAE8AEMAFMABNogQAOGVuAhLNgApgAJoAJYAKYACawbxPAIeO+3f+49ZgAJoAJYAKYACaACbRAAK+Yng4JCWcNjxxi7b+6a5e+fqP85O3MB339j7PT3metZi/dFjp84qEwkH2yr+/J6XmmNwQfwQQwAUwAE8AEMAFMoDMEZhky8of0PPob7+C64c+vTGYAgF7Xgy8HjmLqNUn5m5ZseXC0/mAn9rQXBn4vI/MIQAAQgCXKeteMLwzsRMVt2YBy6uqh/Ovzev8y8XLAtgo3ZCast823EAgQYuKmkXxD4lzszko86ipmvpRMHV9AL9W/cgaqpROjsZNzJRciopzlTx73i+zEewuRo5g5NZk+vCg6EBHnzM+53c9z2usHnemxOyKFhhdwy7znkoAjMkOD9WSgBbGh65NSdWC98vpB7dXTgVxyWSp3kCBZEUxq74T0rDZRE+/rI+TC0ljiuELJpb3S0PTXclLLb39G+yVGryhYftLrHJn2Q6BZO/TEgzlgiHyp4HUZ7raAa1MVSjNN+BgmgAlgApgAJgDAbEJGaLNefpND2iRVX4GL4qmrTs2ba647vmX9dy4pfjA372SD6737XeBF+8WHb8hZ/q/20uE9sSsJSfJ07mHRCEBlFzazffHqp6MjF2fhuzZ2vFCq7w/lc+HgctG8qse9kVAPSYS+MabmBnxvkAAgYUks1c077ndycSh/KhldHoykB3rWkSBj9V7Jo6kWI/mYcPBIlk3Vm562ZyAD2GUlb/He6OInAj4EyfBEBUhaWJBSFtcdHjqHlANT0fPGI/EB/yva2SGdGBpfhmz3+bs3k+r+6ciK8ZDQF/hjw8+jaTomDhBi6utJ9bVex/R4kSnErsxxt3kt2amyBuLngiEM2d0vZ0YvSFr+jws/OXyqG/AWJoAJYAKYQDMC7YeMkDr+6sDRfx+7udj7i4GKSUUZ21Iz8MKYlh3HfvjI0DsNsUMle2c+VQABBDXVAu3e7nDxLR8/L5n5pCibAbXR7r7PZU6UKyTlwsnxxHF5wYVgjDW/5HI9y0+OJLFC5mux5GdLEgfpD+z26FSoAoAqHpWIL80WAgoo0PzrLvfjFkY0bIE3PX5VvOBSVBqAFds2a0+Nhswzgf5HOc2uOx9fnswtLA9opRn+VZfnCTNdaQXkS6nvRVKHCopCceu6vKtsjGBYl5bYvkIDGcbi9bUQHzp7rnQxYZT5Yaqu26GUXZwnXuz1ruEhVPJLRCSruSVZ6W8OGkHusb6qE7FDbumwocRCAa0zQYWgR2vCMrqU+YzE/rmHNyYPgK4MABSnAqI8P8xMm28A2TVeX7VpY07r8bmsX0aAggBJAQltcnX9rTz2GetyHJuKaklMrYtUizZsoAPT6f1Yx13lfm9Ig4o0T6Lrzz9d8XPFELIv2rkvxVOHOLv/UfODr0Eq3sUEMAFMABPABGYxyuhfFrhmYfqyc7LwB7r8nIs9Zzgy1z8lVAIh3ZxzkIAKZ8Wou/z9d9HQXIpfNRo+j513h4VAqHRGcHwx6bgn4NtCqPPT0ZXBoKm373EOArVwXjByBO28u8++HUqfjYWXi6ByP10+Ojx2gWT+dU//uzR05xMrw0Ga6H/AZHSBjVu9N5gRVYzdHJaf7vOt025MwyI5GWTkSXqz3buao1NQ7c/GLgqFk/2BFyZvwYqLE8Unu3sfYqEvG/tuJEhS/b8yTdzD1WM1G4UAAD0ZxuL1RGjDcRQTAgAqqAENJZb6Cf4ZLWxSPh2PHkG77jenzi8JDKAbomFCVSyAzDa5j68clsxYzd5XGm5UN1OjJwMgxSmjnlTwzpRKQGrMZH3G5Xifaoz8WLl0TDLjYm1vTswWhdxbZmpFvuCyWmMQdeXzfbRlTbMQsIkWVDoiJ29zWqJN0pof0hM/dwyTZsumaPyIIvqHuRFFc4n4KCaACWACmMA+SqB+lGMmCNR+7hsvo5/8zvDbOXAk1LnEkNxZF9jST299aaZ7iDPVNtv0TY6ut2iIAMhx1reZ5BdKImHhqEJ6scg+NeB6pxx2vOPyPl0cOj2V/73PggqZoxT2mV7Xem1Yi3rB4zwsHzWVayeF9LI8+cd+zyvlUaW0zf1UfvuFmcIjJktDuFMrViHIBAEoAqoA5ikqUR8DFTnbc9xk9g0Oxz9S4wcI6AV6kuYmp/f3JgoBkHJ4nsnvWJ7OP2yyFmut12/PTiEAQE+Gsfj6ypvvNfgFLysUyWUAMBfi38zRj/fZ/zeXpUTFDEA9Q/moRMbNOtZOW9lDiJmT8+QrAXPNPdzmVdcebZABIPusz/8RIuMk5KTi4ljs8jH51j7PhskIF/1LePtlGYUARNTkuN3fVZntQLzvCTwYDV43kl/PSJ9QzHcHuj5qCIpra63ZJuTSfIX+sDw8WT0M5fSPhuODAACkcqjw021xBMBQV+AmR93YZ4P4uWOISG4Tox5ZEkkzvjdd7SW8gQlgApgAJjCdQDshI8tfeIuXfXDbL/+pAm3hSfM/0+fcXx0s/Or7hZluITYvvvNHyXFGWz9R/oMSBCTS9pyiyFP8lqn2Uls4iiuIbgBkSWJIdmtlBAuR7A4KLCyX5wXBh8RlI9tOmTQICKRSnGxtDHcqyS18moTMV+LpQ0uiHQEEAK2id6ZKUdunIgxyiKWoguQGYGQqQ+PWrBUaymisZWf2kfbbAhFq4auRXNjV9xIN3QCicqfUmFUWxca/VWRXBRyV8d1qonpQKtXLOW+vGduDSvrK7ZGDJ7sZfuSZd4NDi7ON/3Ks6Z8TOWjmvh7UOxQ/Me/aYJ0IAOFGV+AKB+IUcVEmcfGw+GBfz2uatyBvLnFGHmyymzbD4mAyfXaSvcM9OdXBuDpCktyACld+DExkRpT1rn4zBQCbj9yU5W7y2VIAyARZnRfc1OZcMJysCNJhCnRJMgFwyNiUPT6ICWACmAAmMEFgKoSakQh1UNfZB9Pdiw5452ItLyQhBfrWve97YsXG69+oXK4J5ssXOOg/Dz8TnNHeXGWAsr7l6YFu5Yg2Kln9qy400Q5C06o+z/pKPi2IIMhkNWubG1DJfXss6rV239ZtHiEhQsWvDwW7DI3UCpuecXYKZyFjetUtHimRpKiIX4jljqRd19hpFSCHIiOSmlr4jeTPxIIX5cgne30vTpsjCOXsKVnwts9Wu5QKkdZ7+3m+okAgqz8SKodm+kQUM0KggKJAMHnfv0gxI9rpwG7maevQ6MkZcW0Xg6T0ikh+u6//XjOJgG2tNbdiNHQR3X+jnTbuF81xkMoColTjOWVRRIbSglSWgACSSYpqxZfmgmGFEBQISKOalUaVBPyJCWACmAAmgAnUEGgjZJQ3hL/+pVhl8hc8+KLBH3ujy69Lj49PXTyZg1zfOEx64pxsdupYTW27cTPBMgW5NF8GmydHE+XBkiwyTAwAlaEFRQgo4MMyDahKgUrUWWLZMMj2KtQavvHKP3NbYHkQsR4EIRY/ofKPuSzD5bEtqEo+BdWMx8rzBAVyEwNmyoAgSzQTN6xpdgpnkqGNImsjoPXiDYXoJsost0ONnJAzPdBvD2kRt3hwQR61stJECSQeFwqeK3IPBLpfqx+QK6ejwVTqQMp2beOETiLG1KyO0a1cNwEqol8lYlTTWBORABDlKIqQxD7ErK0M/SqU6QMGnVcSSTtd8RHdKhAkRCCxey7DCeWIU5FI1v1k0m0STsAEMAFMABPYdwm0ETKCkjy8vXqdhJ4MUi3S0DYhU6UHqRMu6PK+GfrtR524TFbN6m0QQLuz29q8MiDyjhfY0dMi8bDHvoVQ989ETysxLwbM2jRB3raOCp4aSY16rKNAOjyeWIjAeLlWhbU/bc6sDI+n3F1vcJSqyoFioZu2P29qGmrUKVVpJgRyR6cL/3SwBaTwkA6REFFUDOQOz5Q+stJAKn4xnjgQgfdryh2QjJ7EuNcyoCcbW1ak1vpNtRMZKYQIgKjJB1JqxWancEYZTcXXyGxjE1GW562JTxYJQhL6VeWAVOxk2fSgldZmNyjF08bHT5fYJ72OMUXYf2K5FEGNMdTENEeo5E7JyB+67Dvaj9gbJEI5d3pKHjVxYRKycvHYeHyQcTxSfjAUIWbPyipDPBshSUUVF6XjX1TY1RZG0Va6c5uJ7Inx7JDTFCHUnnzilCKxwcu1srBLpag4KHolBCorn2olCdaeb1prDxhtzyFDJHXLIMZRrbTISCJOwwQwAUwAE/iYE2gnZJwJBTnYdcEX0bP/ngwZT8yayc6M6dqjvL+bUUzaOFDipq3JImm9e8ZHeUN2td8vxOLnjqY8Kkxwpuf83X+YmB5HmB72d6vRxA+GYhxBv+dwP24KHTOpglrrC5SS8aWx4KmyCggyrD3nuaUhGZV23NstfyMRuiWpLdF9o7vvbgup0vb7PeKFibHbYiDH8C+7vH9SxvuqLYamVV5+fmz0TEFRKW5tt39VeWk2lNOXjMQPUhS2HCz2jmxZCom02XN1jy0BZqNwBhkANBVv/EOAzofvDOU4LaJFi0a3nQDB9q6+G5yMCsh3PP77Y9Evh0bO056GbX7C73m17HikkF1SVChQOCdYOKcCoeYJ26A3nToUWv/LOvM8xUppoCcDEaQkJc8Ox90KUgl6q9l1q9uxpRyJIoJQxdTZ6bhbURFBhTjzb/2uF8qrcBBlu8evLo8lfjQUNgOYZPi3PL1PWGf+waA9+4jmtpGJBaXqsHFVo+6Gnvi5YwiV0gEisY2rW3yjqw8nYAKYACaACey7BOCCBQv23dbjlmMCc0lA/XRk6BLReWnAUTsRcy5rbNt2V3rstgR1+0D3+haH69uuARfABDABTAAT+HgQwNeJj0c/4lbsiQSIDXb7qJA+sWQ8Prv7pCNhcboUtDvex98Du68TcM2YACaACewlBPClYi/pKCxzbySgsM77HcSxsVRgTwwakT8dPR44HnTgx+vsjc6FNWMCmAAmsIsJ4BvTuxg4rg4TwAQwAUwAE8AEMIG9jwAeZdz7+gwrxgQwAUwAE8AEMAFMYBcTwCHjLgaOq8MEMAFMABPABDABTGDvI4BDxr2vz7BiTAATwAQwAUwAE8AEdjEBHDLuYuC4OkwAE8AEMAFMABPABPY+Ajhk3Pv6DCvGBDABTAATwAQwAUxgFxMgXS7XLq5yH6qOkAtnhMe/G4kuTyROyogpy+SrpXcNAiglr98e8ZrtH1ReDD5Vr5q9dOvw9+OJryQSX0nmgdn24fQ8U7lb2VIWj237UYl73qy9CXCf+tu9vVxBjfZLjP5sPJ+zWLeTlWMd+UTCWcM7vqZa/sK39M6bjtTZMSNNxM8ZqI6JNjC0V4s3aBdOwgQwgb2CwCxfGMgf0vPob7yD64Y/vzI5+Y5pkj7qwp7vn2ld2EMKkeLa34VuvTs7PjcvrlUDueSyVO4gQbIimNTe4OdZbaIqkQrqKma+lEwdX0AvBQYenngloNYXyFHMnJpMH14UHYiIc+bn3O7nuYmr4OySZuxgtCgRPk3g7+/teZcCnAIys6Q9Y0XtZyCst823EAgQYuKmkXz75XdzCUIuLI0ljiuUXNobCE1/LTtAxdmaO4AzPXZHpEDXC5d5zyUBh6SfFKnP32xvD+llWCLpEENmP1b3DZp3ZbNeaP3YrgMF5dTVQ/nX5/X+pWNB/K4T3zpQnBMTwAT2GQKzCWKgzXr5TQ5pk1QJ0jRa/V/rv/vfiMeu2X7Fu7LpU65rb5r388Kmr90vVK7jHSSKpIUFKWVx3eGhc0g5MBU9bzwSH/C/orVF/XR05OIsfNfGjhdKdXUiYUks1c077ndycSh/KhldHoykB3rWkQDMLqnOetMd1CUrMmd5laMlAMBsUDc125mDCECl/IblzpjbpVakE0Pjy5DtPn/3ZlLdPx1ZMR4S+gJ/ZIwcIGP1XsmjqRYj+Zhw8EiWTQGg6Ce10Kw9pZfH7b6r7S3o3Wuy6J/LO9eEXQaKkCRPpx/hvsvE7xxjXBoTwAQ+lgTaj2MgdfzVgaP/PnZzsfcXA1UmMDCfJdaH7nmukEQABCO/Pd19xSBDgLkIGSG7xuur1jzmtB6fy/plBLRbq8SHzp4rXUwYZX6Yqg8ZIfdYX1UvO+SWDhtKLBTQOhMEs0uqKpi2QRWiN0VyTkUxqYgE4w9ltRySxXdhj1USk9eMxA5UAYTM7/3eXCqytCBxBP9QX+8aGgBVPCoRX5otBBRQoPnXXe7HLYw4Yd8gaZqAmgOQL6W+F0kdKigKxa3r8q6yMUJNctNNUi6cHE8clxdcCMZY80su17N8dRBX3S8T/0oq9wlR4SAR4myrut3rp3kRJWUuHo16LD0/8ZiyAEC1tDgWOykneFVUIpkdZue9XmsLA3hN1QGApICENrm6/lYeJI51OY5NRTUHYIwcQCHoUS2mnPyjS5nPSOyfe3gNr0FSJf/0zz2ll1Hp7JHRU4VyNAz5Xw8EnqsMpUIped1w8S0fPy+Z+aQomwG10e6+z2VOlBtj0MuskPlaLPnZksRB+gO7PToVaBu5aId72eBcnt4ZNUd0xeuDImZ9VoLmp4M3PX5VvOBSVBqAFds2rwAAQOaZQP+j5ZseeuSNZFC6vaw1Xf/lH4a4AAAgAElEQVTLodOdUgMab2ICmMA+R2DaxX4mAv5lgWsWpi87Jwt/UJsV/XNNJnSj7die5OogIn3WLxwgPfd/C3JtlrnYZuXSMcmMi7W9yU5e1iSKCQEAFWR8g45QFQsgs81uGM0uqbZ1Mt91S8AJgPrZ8PDZ0HO516yBgKQIAGKc1w86aSW3Yij0hXBkyO690sfKsqJol3n56PDYBZL51z3979LQnU+sDAdpov8BE2GYVFvz9G1xcaL4ZHfvQyz0ZWPfjQRJqv9XJsJo7AOVzgiOLyYd9wR8Wwh1fjq6Mhg09fY9Xr7aedOhq6Lipi7Pz8xMFigDJSU6jSGU8xcEowFT9w3leBEANJCMnF9gHvB3v0cBTpbmKVRyutLWj0DuLTO1Il9wWa0xiLry+T7asqYyA6E1B1AOS2asZu8rleiqpnKDpJpcAOwpvQy5x/rnP4FUWz56a0gbzq77Q4WzYtRd/v67aGguxa8aDZ/HzrvDQiCDXlYL5wUjR9DOu/vs26H02Vh4uQhGJ40auGinexmA1rqyrrnAQLw+KHWWZyXQOx3iVu8NZkQVYzeH5af7fNqtDACLZPk7Sp+8oQyDXt6lnVKPG+9hApjAPkXAOLBqREHt577xMvrJK0Nv5wCEtWMPIPv62Dd/In/jkQU/v67/kV91bfnRlp+8phhFJo2229tH/xLetmrz5ge3j31Zsd7u79pWJ0azNe1AbQXyUYmMm7WtrQSaNWmzS6oxUI4OExSVoKg8BIggk+XtBAmrOCSCEAHiGccvu/gYQaQYOgsAKaSX5ck/+jyvcHSapLba3E+ZlKMzBdYwqb7iJnubnN7fm5gUSW90eJ7h5c+l81yTXFOH2EJ6scg+5XW9w1AZinnH5X2aFU9IlUsh4dh0QbJ67uyybGSZMZZfZ7eM1oBWtQHF4tnjoUMYz61ey8RoljaKBxCAZJSm4xQ9xpnWmplpoc2UgBa2iPc9gQfJ5HUjoW+FRq/IMHcHvO9N8+QaXY0mCTFzcp58xWEuj//WpRok1eXbw3pZhUSOgLUzRapqNzm63qI138tx1rcZdV5JJAAw6GW2kDlKYf/oda1nqBTNv+BxbqrYMnDROejlSq0znMtT2YDWLl3xE/kMQLV7VgL900EhSO0bQOsRmJ84/SmyWPZIA/ITCpvKMBC/uzqljjvewQQwgX2CQDujjCx/4S1e9sFtv/ynFho04KH67Cv/3Uatj73yLvjcwZ7ll3g//MH4X0PVKKkh+87uwo2uwBUOxCniokzi4mHxwb6e11pti7IoNv6tIrsq4KiMnVTVzC6pWrytDThi4lM1JXhB8CFx2ci2UyoHCaRSnGwFoKSfNNNdZmr75BIfAAA5xFJUQXIDMFKpYvqnUxR5it8yBZPawlFcQXQDMAqkgAh2OPj6W/5TNkQoHx+KfVnk7/bbxqc8BG53eH8nhC/ZUdhos6+x295lDIc5p+zpbSFvLnFGHmyymzbD4mAyfXaSvcM9eb9Vr0zNcfWgVKqXc95eGZhsLakmVxubu6aXDQSR40x1pTOUICCRdk4a9LIsSQzJbq2MvyKS3UGBheUaDFxUAB3vZYNG6SY59cXrlqlLaKO/hJlOhzrDlR0D8jVfR40yKqWbfO75ndJEND6ECWACeyWBqchgRvnUQV1nH0x3LzrgnYu1vJCEFOhb977viRUbr3+TPvvGwNEfDp/6fzJpBFb/Ibnk5vn/dau47Jux0aYjHzNWNmOGIsWMaOLZzTxtHRo9OSOu7WJmrgvJn4kFL8qRT/b6XtSmvtX8zS6pxkC7mwJRFzlpV3JoWtXnWV+jSxukBEAbF9RJardSbel4C2VqJEzmrh5B+hbsmdhis+01Kn1GPP+ud2oMD5H8av/Ay0L+uFTy34YTUYfvp25tjuPs/qCUXhHJb/f132smEbCtteZWjIYuovtvtNMtNU3OnpIFb/tssWnVQ/2kaXlbPbC7ermiDxrMDqn2aSVz9Zfg1Ig4AKC6TMrARTW/6mgvVyW1v9FcfIt2Wu+vCYMGp4NBjfrkJws1yDAwtZd0ikELcBImgAnsLQTaCBnlDeGvfylWeXwfPPiiwR97o8uvS4+PI0CyCxcQ2/5QyExcsxXpb2+U6Kv4QRLMVchYAxiRABCoZjFsTVrdJhKPCwXPFbkHAt2v0fVf2rNLqrO+szsllg2DbK9CreHrtQFgkDRTrfI8QYEcVe4XZUCQJZqJG5ZJsExBLs2XwebJcSZ5sCSLDFMOsKgQDT4nCAworxqZZgdxrlu67WmRuHY0ciHfd7u1umhGi3kzrGV1t+Ul0/gvwsnDnaaXp02CnGav+QFSEvsQs7YyeqpQpg8YdF5JJO20QXhUsYUGU6kDKdu1TSZ0GiRVSu/0p0FXGiTtdLWNBgx6WWVoQRECCviw/OUAVSlQwdqCwo71cqPi1vaT+uJbM9CYy7DJM5wOAGo/zxp+xxiQb6y7tX1DhRMmdnOntNYOnAsTwAT2fALTZoAZSC7Jw9uFbdsm/41nkFqQhrYJsSIASunv76qHnetbehDjclD9h3b96FuW3Lrsh5VrjYHVtpMIMXtOPHVUoTgoiPOKuZPDkS8q7BsWxvhxPlApnj42ekGJ/r3bMaYI+5dK2j9RZrW1MrNJalt3TQFGVVgAKFXlJkLscpLC2p82o+PC46flSj5Z9oqlQ9OJkwraEI9BUo3V5psHJKMnFSW7Ih2Yii4rUmvtpmJNRgohAiAKVYeXgMg7XmCF0yLxQ0XZJouHJCKnlZgXHWatFGRfs3GWdGRlMj8oSn6hdHA2e2ANd5GmUxBIrPNuF7MoEvpXcaJ56oGZ5OcLgldW7LKwsCgxBJWsj4qd6eC9W3d8o1CDo0Zkw6bCcJuJ0onx7KCkWBXpgEz0lCKxwcTVCGkoMbULldwpGflDh31HvQCtcfpJU+Xb2dqVvQyRalG1ruRVbZXujH8GvSzwtnVU6dRIaqGk2KTScdHEwkq3GPphh3t5xiY0zWAgfiK/Aah2+2vG00GlmRAoHZ0u9CiKXRZ95bndBuQnFDaVYSB+JzulKUZ8EBPABDCBZgTaGGVsVrxyTJVWX7Xdepnvons/casD5sOlf6wZu+COVLRyrank68QnIghVTJ2djrsVFRFUiDP/1u96obKQhc6H7wzlOC0MQotGt50AwfauvhucDCFklxQVChTOCRbOqchQmK5r+l3Ds0qavuCmYtXo05wN/TyctU6EaLGh+2Mwb/Ze7reVVxBTa32BUjK+NBY8VVYBQYa1p5RP3GUzSDKqTrud7eXnx0bPFBSV4tZ2+1dp668BlNOXjMQPUhS2rKR3ZMtSSKTNnqt7bAnIrvb7hVj83NGUR4UJzvScv/sPk9P+4Kiz51YYOzMdvjauQkjGWfNvees0BTDo6P5NcfhbocTmgGszAYBSPDmR9MkqC4gYa3q8x/1u3W8VFBAEM+Q/aDK5cJptABBlu8evLo8lfjQUNgOYZPi3PL1PWCdn7Ok5wMSkhd506lBo/S/rxLBrnXGDpLp8Lezsyl6GcvqHw9GDFW2sHQBw1vDWMwHMmT1X+O3V5UdNJBv0MmF62N+tRhM/GIpxBP2ew/24KXTMpAlDP+xoLwMAjLuySaO0NTi64g1AlWZ5Vs5wOqi0495u+RuJ0C1JlYDUG919d1tIpE/ewG0MxMfBznRKc4r4KCaACWACzQjABQsWNDuOj2ECu46AuGxk+ATWf6nXNNNqnl2nCdfUaQK4lztNFNvDBDABTGCXEujQKKOhZhsgP6nWPEXZMDNO3PcIKAXGfMBjHm+xYUHSvkfi49xi3Msf597FbcMEMIGPN4E3ifLstF0wynikyj8k9H68aeLWYQKYACaACWACmAAm8LEkcAC/pfz43Y9l43CjMAFMABPABDABTAATwAQ6R2BX3Jiuqv1vKvEWWbtet5qCNzABTAATwAQwAUwAE8AE9iACRyj89+SuqqBdGjK+RRYnbodXq8cbmAAmgAlgApgAJoAJYAJ7KIGapyXWPetkD5WLZWECmAAmgAlgApgAJoAJ7FYCOGTcrfhx5ZgAJoAJYAKYACaACewNBHDIuDf0EtaICWACmAAmgAlgApjAbiWwS+cy7taWdrpyKCWvG8p80Nf/eOXFM1M1qNlLt4UOn3j1DWSf7Ot7cnqeqdytbCmLx7afSfv/3WuqmVXQSkGcBxPABDABTAATwAQwgZ0nMMuQkT+k59HfeAfXDX9+ZTIzoYLnln6/59unWPZ3gPRwfs2vQz9/vJCZixcGAlQ8f2j0S1Jt4+H73v1utk++Mq42YfdsE9bb5lsIBAgxcdNIfvdo2KlaUVcx86Vk6vgCeikw8PDUe/zQgtjQ9UmpOjY98cbF+ncnqgvio9ckxH927/9T22RGqJZOjMZOzpVciIhylj953C+yRAu+0VkZaiCXXJbKHSRIVgST2ssYPatN1MSLBGdLq7MKW8E7XSlyFDOnJtOHF0UHIuKc+Tm3+3lu8lxogXxjfznTY3dECg0vqpZ5zyUBR2R65S0d6bBCAAArZs+MJT9fFC2ACHOW51zul7kZPcrAAYzIE3JhaSxxXKHkUjW3+WvZbcovNDcw2BKXaZkMDM5OoVGpabVPP9DoGxM5LELm1ITmby4FKYzzx/2uLeU3tus52xx4VFVqZxTO1qOM8ep+OeifsEZnSrXN7Wx0XGG18ubkq8m1GzM5gB4ozUZTZ5vJYG3lLW3PZLBthbP1KKNvAD23mUl8ZxnOJmSENuvlNzmkTdLU1RZSi6/f/8cLszdfuvn1EdR9hPuKq/b7mbp55RPiVJ6Wuq7VTHDY2XOnja6GHUVqj4kXy01AACrlr9FWG7QH5VM/HR25OAvftbHjhVKDLrus5C3eG118+ZIJECTD9c00F+IrsnC4zq+Uz4WDy0Xzqh73RkI9JBH6xpiaG/C9MfFS5IYKpnY7LQNJCwtSyuK6w0PnkHJgKnreeCQ+4H+lTupU9S1sdVohADPibaIKCUtiqW7ecb+Ti0P5U8no8mAkPdCzTsM7M/np/ZWxeq/k0VSvIvmYcPBIlk01qbu1Q51WCJXchWOReSb3f/eZI0D+ZDp6fjCk9vv/YtyVhg6gT146MTS+DNnu83dvJtX905EV4yGhL/BHBgBDg62hqc9laHA2CmfnURVR030DAGAuRK8dz6XtXQ84+SBFEAikJ31F19k671GdVjhLjzLCq//lYHA6GCRVmtzup77bzEphpfqmvlFJbPw0dAB9GfrOZmiwsfZW9g0NzkbhLD3K4BtA3zcMxeuesMal9KEZf8k2Kwep468OHP33sZuLvb8YqGQwWb58Anzh0rHH3tRCxLHVYxebuD+e33XAU6GNE7FFJWPHPkWSHmWYhoCUEJPXjMQOVAGEzO/93lwqsrQgcQT/UF/vGhoAVTwqEV+aLQQUUKD5113uxy2MOKHIIMlIMuRLqe9FUocKikJx67q8q2zMjG9JJuXCyfHEcXnBhWCMNb/kcj3LV8e61P0y8a+kcp8QFQ4SIc62qtu9flofUVLm4tGox9LzE48pCwBUS4tjsZNygldFJZLZYXbe67XWDAihRdHhS/P8//R7/1EdHjRqFPGhs+dKFxNGmR+mGkJGxamAKM8PTyM/YQ8qua9HChs9bjE63l2pAkrZxXnixV7vGh5CJb9ERLKaW5KV/uaYivgreWs/OywDQHaN11etYMxpPT6X9csIUFPRUTW1tY1OKwQz4G2uCnKP9VVPRHbILR02lFgooHUmOCP5pv2lEPRozes96VLmMxL75x5+8kxpLsLwaKcVcsXsYchyp9f+odZ11GueHk4cOiktvOpijb5tjBxAnzySAhLa5Or6W3ngNtblODYV1dyGgZ33qI4rnJ1HlTuzqW8AJPxrLJNz9d3iYBpQGzhb5z2q0wpn6VFGePW/HPRPB2CQZHiG6SfqOzaYlUID8gYijL5S9GXoO1vHPcrQ4GwUztKjDL4B9H3DSHznGU4LR/T7fSLFvyxwzcL0Zedk4Q+mskKKYAkUy1cH/UBsRCwN8J+0gI3pqWxzvqUyzusHnbSSWzEU+kI4MmT3XuljZVlRtNts8tHhsQsk8697+t+loTufWBkO0kT/AybCMMlYs7g4UXyyu/chFvqyse9GgiTV/yuT4Q0yVDojOL6YdNwT8G0h1Pnp6Mpg0NTb93j55q83HboqKm7q8vzMzGSBMlBSotOG4qCcvyAYDZi6byjHiwCggWTk/ALzgL/7PQpwsjRPoZL1qhEECgAN4XV9lro9iWJCAEAFNUaYSHHKqCcVvDOlEpAaM1mfcTnenwq55GMi0f0svmtN4OwpTwCUWOon+Ge0BiqfjkePoF33m1PnlwQG0MbhdWdl1LaQlUvHJDMu1vbmzs0x7bDCGfDWtkB3m1AVCyCzZbeZiXzz/qo3rRyWzFjN3lcablTXZ2prb+cVEioiYPl9p5MVkxEa+gSBA2yLs0AaHcCAPOTeMlMr8gWX1RqDqCuf76Mta6amakwqaDTYFpFmmRsNzk6hQalmldYca+4bhJg/XOJfpwvfHh3/lKRKFPeW0/W78g/vmZytartTHtVJhbP0KEO8ul8OVRLljdrToT4FGCQ15NTdnROFzcnramhMaHQAPVAGzlZvstFgfeos9hoNzkLhLD2qRmzjN0BNkvbavprv+fqUOvFzwLC9kJHaz33jZfST3xl+OweOhFOjMyiX/9sH5De+5nx0Q2JzHpgGbN/9js1BlixmAOYmZESDsaGHYxVWkH94IPBs5aomEYQIEM84ftnFJwAAjBb5kEJ6WZ78Y7/nFUbTnba5n8pvvzBTeMRkkfWTjGMaAMAmp/f3JgoBkHJ4nsnvWJ7OP2yyGrzghi2kF4vsUwOud8pq33F5ny4OnZ7K/95nKSHh2HRBsvbc2WWesDDGVhpY/lS1AcXi2eOhQxjPj70WrWnlPwIgAMkoTcdJACh6rHK88gk/dA98213Za+dzqocnSkH2WZ//I0TGSchJxcWx2OVj8q19ng0aYORPhb8q237m44ugWFuQlxWK5DLaXYb4N3P04332/81lKVExAzAj3slqGzTPSkbZBvqX8PbLMgoBiKjJcbu/q34WZkM1bezWtlcrNjuFRqVaFCMflci4WcfacihsSF63v2prIsTMyXnylYA5W3t0p7Y7oLDIm7arySUZ+3Y7UwSqL584LacSjMoDMFPIqOMARuSJ9z2BB6PB60by6xnpE4r57kDXR1O/pXQMzh6RjsHZKTQqZSBR1zdoSfCh0uIU9Ycu32oaugqJb4WDFtj/KzNh6GxTdXXIozqsMDU7j2oNb+OXwxQMbSCj9oStSzFKqs9osNd5hbrkDVTUJhk4QAMoA2erGZEABgZr621928Bg6wo7/x1V1wBdt2kQPwcM2wkZWf7CW7zsg9t++U8teKlrgSI89KNh343+x//WK5WQFMz86vlc7iCyUKjL1cEdOFI3lxGmGhsCR0x87ewrXhB8SFw2su2UigoCqRQnWwEo6SfNFNNQ2yvrDAAgh1iKKkhuAEYqVUz/dIoiT/FbptRSWziKK4huAEaBFBDBDgffcDO4akSE8vGh2JdF/m6/bXyKP9zu8P5OCF+yo7DRZl9jt73LGA5zVs3NaiPHmv45UZBm7utBvUPxE/OuDVaCFpIrk+hZf9dWCEDtCQ0A0n5bIEItfDWSC7v6XqKhG0CEJjNBJX3l9sjBlb2PPPNucGghuPHfLGSUDcKNrsAVDsQp4qJM4uJh8cG+ntem+sK4zvZSZ6dQr5QWhc4MSlkUG/9WkV0VcIyWxRqQN+ivmnaqB6VSvZzz9mmDajV52trsjEKVtt/VLa+IjdwbgwIAMXPXmzwxiIiJs9UQlK4D6JNH3lzijDzYZDdthsXBZPrsJHuH21z5waZrsC0uNZl1Dc5OoX4pXY8y8A1WUUnAPtvtfal81oTs3keLO76TKTxsthg4W03rOuNRHVc4a48ywFvTar3NxtOhJp9BUk2uFjY7q9CAfGvfUW04gIGz1QzKtGGwBVoAgDYMGimcg++oin4D32gUb6SwYq6tJgPQxvWSOqjr7IPp7kUHvHOxVhkkIQX61r3ve2LFxuvfQPJI+ubz0//JkRZKzebA/t9ZcEkktz03JavDW03nMtbWIWgzs6f+tG1oWtXnWT8VbAFEkEkAOP2kqfItb9VWqleoRsJkluoR1BhxTdmwZ2KLzbbXqPQZ8fy73qmBH0Tyq/0DLwv541LJfxtORB2+n7q1OY5z/YcoZoRAAUWBAA5mMvNleb+RrWeVayURApFtv4nb/3Oe539JUlTEL8RyR9Kua+y0CpBDkRFJTQwIIdJ6bz/PV7QKZNvLmFqUsaGMuEgxI5rPs5t52jo0enJGXNvVOCO2oqVjn20prNZaU0rz5BlAIfkzseBFOfLJXt+L5XF0AEBJlzwy6K8JUNo5IWdPyYK3fbbqaH5V22w2OqkQRizuH1vcjKqQkCxC8bThWNJET/xANQbVigPUkgdSekUkv93Xf6+ZRMC21ppbMRq6iO6/0T45E7cVg23hasVgWwqrtdeW0vcoI9/YShAqQdTMloFxmiSLMg9AVtfZqvV3yqPmQuHsParavAa81ePNN5qdDpM5DZKa22r16E4rNCK/Ac70HdXmV4qk72zVkLHD31GdVDh7jzL6BjD0jek05oBhGyGjvCH89S/FKjPX4MEXDf7YG11+XXp8fCpKUkpKGgBot57/FS704tiGPechgiWWDYNsr0Kt4avh2eSZZpA007kozxMUyE2MiikDgizRTNywTIJlCnJpvgw2T95GlwdLssgw5asyFaLB5wSBAc2XGiDOdUu3PS0S145GLuT7brdWF81o1/cMa1ndbXnJNP6LcPJwp+nlaZMgDXXNJhEqol8lYtpadbitq/cye9UPSqePRpzOwP+z0HEIZJbboUZOyJke6LeHtDvY4sEFedTKVp6SRMSYmtUW7QtpUcY0w4gEgEA1S4On5ejUgdkprCk1IUQfFBKPCwXPFbkHAt2v0VPurU/eqL8qrUaDqdSBlO1a47m5ldwzfM6JQiASmpebC6kvitTfPVxlQYY+qDqVug5QS56SxD7ErK3cTFAo0wcMOq8kknZ62pebrsG6atvY0TU4O4W1pcoqmoIy8g2JZcfVzKdL6np+4t486hZlkaLzYMbTXDvzO+RRc6dwpzxqGl79ntY5HbQCBkn69lpM2WmFRuTLGpp6VFVdew4g6DtbxWJ7BiulDD7bM9iCwp3yKG2goPYiNYNvNBHfgsImpQwAtTXKCEry8Pbq1yT0ZJBqkYa2CZPPZSSp/v0IpQi75lvP+r7vVCXx/Xvzs19kaSh6hkRGVVgAKFXl0NSsOoW1P23OrAyPp9xdb3CUqsqBYqGbtj9vIg2SqkGQXpUHJKMnMe61DOjJxpYVqbV+U/UHkLaYEyECIAppt/EnTIm84wV29LRIPOyxbyHU/TPR00rMi4Hy5EXIvmbjToxHVlLuP5mZIlLcoiSarBsrwZ9I0yktAnPe7SreEAn9K9v7rDaepB6YSbso02aGEoB8YFFiCDY5FTaUR9qjI/+R5+/s9743NQdLr0FGx6GcOz0lj5q4MAlZuXhsPD7IOB4xa0ZFkg5WdAKk5CHgSSZIl+ujLM9bE58sEoQk9KvKAanYybLpQSvd+nKcBk2zk0GI2bOyyhDPRkhSUcVF6fgXFXa1pW7hpzMdvDUmrusZeNBUR7BBwIy7s1NoUMqgRqgUTxsfP11in/Q6xhRh/4m4iaDGGErQJ2/UX+XKoJI7JSN/6LLvaEaiLVBzoZBUpB4VCkgOFDJnJjKqrWf1tJ+CDdAMHMCAvMJwm4nsifHskNMUIdSefOKUIrHBq4WnBgarVbcFysDg7BQalKoqnL5h5BuM7TlT6sJwOOJ1vU0DXz5+ToF61c9rUwL0nW2iig561FwonIVHzQ6vwekgGpzLlX5qy6M6rlAw+J6vKNT7NHaA6aVUA2cr5zY22BaoidqNDbarcBYeZfQNMJNvNBW/kwynN7m9kLFZ+aljZsslj/YvsYB8pPTOi+Pn35VYbzzeNlWyc1vmbOjn4ay1HKKB2ND9MZg3ey/328oriKm1vkApGV8aC54qq4Agw9rDnGE5kjNIMhQHTau8/PzY6JmColLc2m7/Km39NYBy+pKR+EGKwpaV9I5sWQqJtNlzdY8tAdnVfr8Qi587mvKoMMGZnvN3/2FyrhgcdfbcCmNnpsPXxlUIyThr/i1vnaYABh3dvykOfyuU2BxwbSYAUIonJ5I+WWUBEWNNj/e43y2HajUFp619rkmbvknnw3eGcpwW7KJFo9tOgGB7V98NTgYRpCQlzw7H3QpSCXqr2XWr2zHxFN/pRmqOkO94/PfHol8OjZynPQzZ/ITf82oLw9udlYEIQhVTZ6fjbkVFBBXizL/1u16oWzGNAoJghvwHLU/d66xCMCu8pJBdUlQoUDgnWDinAr3yiPVZkgcA9KZTh0Lrf1mbzittD9RcKOQKsevCORMgkgz/tivwlF1bX2X8Z+QA+uQRZbvHry6PJX40FDYDmGT4tzy9T1jL0yc67VEdVwj122XMSj+VetXXC+KxpaGR5SrIMvwr3f7fTY44zuBsHfQofXla6Do7hbPwKOMTVu/LgdA/YYf1kyoL9do79TqusCLDsAd0EvUcQA+UatSVWh16Bsv1twmqXEbP4OwUzsKjDL4BDL9FDWgYnA4Gpco4mv8HFyxY0Dylc0ePVPmHhF4AwHns2Ju1z8boXBXYEiaw8wTEZSPDJ7D+S72mmZY97Xxde7UFDKrF7sOgMKgWCbSYDXsUBtUigU5lq8ZvB/BbtMf7dMoutoMJ7N0EoCIcIDKv2Mt32fbupsytegyqRb4YFAbVIoEWs2GPwqBaJDBn2fAo45yhxYYxAUwAE8AEMAFMABPYawngUca9tuuwcEwAE5AIKxEAAA8JSURBVMAEMAFMABPABHYTAXxjejeBx9ViApgAJoAJYAKYACaw9xDAIePe01dYKSaACWACmAAmgAlgAruJAA4ZdxN4XC0mgAlgApgAJoAJYAJ7DwEcMu49fYWVYgKYACaACWACmAAmsJsI4JBxN4HH1WICmAAmgAlgApgAJrD3EMAh4872FdovMfKrbcHjKq9M3ll71fJIOGtoy00JEXdRFQnewAQwAUwAE8AEMIHdRKCF97bVKKMO6Xn2Ue+86suEldI9Z266bUP5pXuQPPhr/qsusC/yweJY8c/3j93622Jmxnc01xhveRMVzx8a/VJdiAbf9+53s738Fq+WzXQoIyyRdIghsx+ryA51FTNfSqaOL6CXAgMPN3mBnrogPnpNQvxn9/4/te1ky43qsgiZUxPpw4uiS0EK4/xxv6uF9xMaGNRLQgtiQ9cnpWpLKi/c2xkf0asLANA8yZkeuyNSoOvrlHnPJQFHpP5gwx4hF5bGEscVSi7tfYymv7o8q03UxLum9eoCALBi9sxY8vNF0QKIMGd5zuV+mSPKJyxyFDOnJjXsDkTEOfNzbvfz3G45uRoaincxAUwAE8AEdiOB9kJG0k13ZdPXfiP0jlzWjFB8eDIq9Jzcd8/l7Gv/OfSTvytdx3bffO3+pvT/XvKsPCdBIwBw2Nlzp42uWi9Su+2SNm73XW3fjV3Y8arVT0dHLs7Cd23seKHU1Lq5EF+RhcPtOU9TS0Z1mQvRa8dzaXvXA04+SBEEAmnY1EjtQQODBknALit5i/dGFz8RaSFIhmeuq7behm2DunSTMlbvlTyaqhbJx4SDR7JsqsF24650Ymh8GbLd5+/eTKr7pyMrxkNCX+CPDABAty6o5C4ci8wzuf+7zxwB8ifT0fODIbXf/xcKACQsiaW6ecf9Ti4O5U8lo8uDkfRAz7rqL8VGAXgfE8AEMAFMYF8g0N5V3+6l6dHs3/+3tKUyhjHJiGBO+qo199tt16zKi5D8wnmcWSQWn+vofT42qs4NRpGkRxmmwTghJq8ZiR2oAgiZ3/u9uVRkaUHiCP6hvt41NACqeFQivjRbCCigQPOvu9yPWxhxQp5Bkp5+VDp7ZPRUoXyNh/yvBwLPVQaIoJS8brj4lo+fl8x8UpTNgNpod9/nMifKpki5cHI8cVxecCEYY80vuVzP8tREQ1gh87VY8rMliYP0B3Z7dCp8MBIP1dLiWOyknOBVUYlkdpid93qtNeNSaFF0+NI8/z/93n9Uh9H0GqUdJz509lzpYsIo88NUk5ARKrmvRwobPW4xOt5tZKeVNP26kPCvsUzO1XeLg2lwNkO7+gaN2qU4FRDl+eFpHmVYl0HibGQoBD2qxXmTf3Qp8xmJ/XMPP+mileONn0gKSGiTq+tv5YHAWJfj2FTULyPAQIOu5IrZw5DlTq/9Q83HqNc8PZw4dFJaeNXFKpB7rG+gUgs75JYOG0osFNA6U607VtLxJyaACWACmMC+QqCtkBG6vRS9n+e+v3h4Uo1tzT1zb+jB1yXtDjHNH/QJ9R+/LIgA2I/pufYE4bbrM9+8yryIjY0WdyFKlXFeP+ikldyKodAXwpEhu/dKHyvLiqIFc/LR4bELJPOve/rfpaE7n1gZDtJE/wMmwjBJXz3kHuuf/wRSbfnoraG62+RaGVQ4K0bd5e+/i4bmUvyq0fB57Lw7LARCpTOC44tJxz0B3xZCnZ+OrgwGTb19j3MQqIXzgpEjaOfdffbtUPpsLLxcBKOT9RuIRwPJyPkF5gF/93sU4GRpnkIl61UjCBQAGsLr+ix1exLFhACACmoWYcrHRKL7WXzXmsDZ1THeutLt7ejVRYj5wyX+dbrw7dHxT0mqRHFvOV2/q4b4+pXoGQQA6CYhxSmjnlTwzpRKQGrMZH3G5Xif2qkISbcuAxl1jVIOS2asZu8rld8hdYm1O5B7y0ytyBdcVmsMoq58vo+2rKnMJdCTQaiIgETNuUlGaOgTBA6w+VrjABCqYgFkFg8x1mPBe5gAJoAJ7HsE2goZ0cYHhi54m0yPy4KJOeqrPZfcM+j79uafvKEAC9lFyx8kALRbL7vWPnz75kf/YT+Z5tw2AGouSx3EiwZjQw/HKgYh//BA4NnKxVUiCBEgnnH8sovXBvYYLfIhhfSyPPnHfs8r2ugLSNvcT+W3X5gpPGKyyPpJQqUGvU8VEjkCNo3GNjm63qIhAiDHWd9mkl8oiYSFowrpxSL71IDrnbLad1zep4tDp6fyv/dZUCFzlMI+0+tarw01US94nIflo6ZyxQbiBQAIgAAkozQdJwGg6LFGrfBD98C33Y1HW9mfFjQhfyr8Vdn2Mx9fBMVpqa2Y1M3TYI2WBB8qLU5Rf+jyraahq5D4Vjhogf2/Mk/Mt9O1U01oMFg9DgBoTILssz7/R4iMk5CTiotjscvH5Fv7PBuahcy1dlrZbqyrpoxBEiFmTs6TrwTM2Zr8OpvE+57Ag9HgdSP59Yz0CcV8d6Dro2nKG+oq8qbtanJJxr7dzhSB6ssnTsupBKPyANSHjPJRiYybdaxlGwzoaMGHMQFMABPABD62BNoKGYGaLv1t7QQLYds1AjN44H98zfqLN1I5VYtaIEEefWngxOHQmY+Jih8gNP3a3DGOcKRuLiNMNTYEjpj42klgvCD4kLhsZNspFQ0EUilOtgJQ0k+aMWSsGJv+SY4z1emVUIKA1HgApyjyFL9lSi21haO4gugGQJYkhmS3VgJfRLI7KLCwbNhAvADgdof3d0L4kh2FjTb7GrvtXabVoGq6aOMjtJBcmUTP+ru2QgA6McRoUB2rqCRgn+32vlRmFbJ7Hy3u+E6m8LDZUtRGQNNXbo8cPKkBfuSZd4OD2hlFOdb0zwk1NHNfD+odip+Yd22wTou8DBR3Mkk9KJXq5Zy3VwYLtTBXt8nIm0uckQeb7KbNsDiYTJ+dZO9wT86C0BOl0va7uuUVsZF7Y1AAIGbuepMnBhFR7/DKotj4t4rsqoCjMtqtZw8fxwQwAUwAE/jYE5iKXdpuqipt2qTQC2g7AbJ5OS5QC07r+dclwh1nJYYVQHlotyon0m1bbbVA07mMtYUFbb3E1J+2DU2r+jzra4ZLEEEmAeD0k6bKt70FJ1YINS1XI2EyvXJEG5Ws/imVowbitXvgJL/aP/CykD8ulfy34UTU4fup29TC6FS1nhY30GAmM1+W9xvZela5hBYER7b9Jm7/z3meDRWpLdqaMZtEECpBRKfuh8I4TZJFmS+PWyPSem8/z1esCGQ1Oq8c2olPRDEjBAooCgR1LrQTJtsrCuXsKVnwts9WHUYv93LzJkMpvSKS3+7rv9dMImBba82tGA1dRPffaJ9aHNasehixuH9scTOqQkKyCMXThmNJE12oZkXyZ2LBi3Lkk72+F8sD89UUvIEJYAKYACawTxLYiZCRoAf3J4pjYkIFQCqu/wBe/1X7uh9v/u2QNro4+HmLZ0vqoxlm7u9C5CWWDYNsr0Kt4RujG4OkjgtMsExBLs2XwebJ0UR5sCSLDBMDQGVoQRECCviw3ClQlQKVqLMFhTDDWlZ3W14yjf8inDzcaXp5KtjqVCPgtq7ey+zVmLZ0+mjE6Qz8PwsdbyTagRoFlh1XM58uqev5iaE+1C3KIkVXbpsSMaZmqUgHKpwyARXRrxKx3bYGHw2mUgdStmtNDQFr8yaTktiHmLWVh+AolOkDBp1XEkk7XXGfqaZN3xIJzVHMhdQXRervHm5ypRESjwsFzxW5BwLdr9Fz0LvTdeAjmAAmgAlgAns6gXZCRoJecpHbvSX30bBU5NjDz+j+3kHCIz/NagMTSHru4dRFR1jSJPPJTxD2f3H/6AJ67Q3J4XbWunYMFaMqLACUqnJoasKdwtqfNmdWhsdT7q43OEpV5UCx0E3bnzeRBknV+EhPHESqRUUEQLyq0oCYtgqmsZzIO15gR0+LxMMe+xZC3T8TPa3EvBgwazM+eds6KnhqJDXqsY4C6fB4YiEC42UDhgrVAzNpF2XazFACkA8sSgzBJuuu8upB0ZH/yPN39nvf27kbrSJJB6uRKFLyEPAkE6TrjDrTwVtj4rqegQd3boGtytieM6UuDIcjXtfbNPDl4+cUqFf9fP2d00a8s9uHcu70lDxq4sIkZOXisfH4ION4xDwn7ZpRIVRyp2TkD132HXWdqFtOYbjNRPbEeHbIaYoQak8+cUqR2OCtBH+65QCpSD0qFJAcKGTOTGRUW8/q8q8pqBRPGx8/XWKf9DrGFGH/iXOYoMY0B8N/mAAmgAlgAvssgXZCRqTGBeaCH/Rd3EOZVGXk/cz/fHv8ofcml36kXw6uvK7nqn/rf+QKUgoXXrp9x42rpabLQuaQtTkb+nk4a0Xl9Q2xoftjMG/2Xu63lVcQU2t9gVIyvjQWPFVWAUGGWdPLrokbwQZJumqhnP7hcPRgBU0EUWcNbz0TwJzZc4XfPvEwneYlIbva7xdi8XNHUx4VJjjTc/7uP0xMWSNMD/u71WjiB0MxjqDfc7gfN4WOmbRiqFApnpxI+mSVBUSMNT3e4363LtrRQvrGA83FTR6l8+E7QzkOIAqhRaPbToBge1ffDc7GRxo1s4ECgmCG/Ac1k/CaZZs6pl8X9aqvF8RjS0Mjy1WQZfhXuv2/mxxxnCo+fUvfINBLQgQpScmzw3G3glSC3mp23ep21D8zvIPt0pUxcbb0plOHQut/WVudmoko2z1+dXks8aOhsBnAJMO/5el9wjp5p16vySoAXCF2XThnAkSS4d92BZ6yc5kyTVLILikqFCicEyycU+HbiWebV2zhT0wAE8AEMIG9kgBcsGDBXAs/UuUfEnoBAOexY2/WPthjrivG9nc5AXHZyPAJrP9Sr+njNSL1cW3XLncQXCEmgAlgApjAXkOgGr8dwG/RHtu81wjHQvd8AlARDhCZV+xzcvt4Nzb/49qu3YgUV40JYAKYACawtxFo58b0TrftCKW6xnWnbWEDeyaBWz+1Z+raWVUf13btLBdcHhPABDABTOBjS6AhbNulIeP35C7QyirOjy183DBMABPABDABTAATwAT2SgK7Yi7jXgkGi8YEMAFMABPABDABTAATqBDAcxkrJPAnJoAJYAKYACaACWACmIAOgf8PffoO3HJeflUAAAAASUVORK5CYII=;" vertex="1" parent="1">
          <mxGeometry x="40" y="200" width="870" height="180" as="geometry" />
        </mxCell>
        <mxCell id="V_HjX4hnAaI_aaEMFoxw-2" value="" style="shape=image;verticalLabelPosition=bottom;labelBackgroundColor=#ffffff;verticalAlign=top;aspect=fixed;imageAspect=0;image=data:image/png,iVBORw0KGgoAAAANSUhEUgAAAswAAAEJCAIAAAAPfubXAAAgAElEQVR4AeydB5gkVb3oz6ncVZ3z9PTMbIZlySw5SFhAJBtIKojiBXn33Wt4D70Grhd9qBieAcGrCCpgQCVJloVHWETisuyuy+bZme3pnKu68nlf9UzPdM901/T0BnbxzLffdtUJ//M/v5P+dc6pOnDx4sUA/2ECmAAmgAlgApgAJrC7CRC7WyCWhwlgApgAJoAJYAKYgEUAGxm4HmACmAAmgAlgApjAHiGAjYw9ghULxQQwAUwAE8AEMAFsZOA6gAlgApgAJoAJYAJ7hAA2MvYIViwUE8AEMAFMABPABMhAINATBRQ5bfjDH84ccUL+8BPyh84ntq11KK2CuEXp8z86dvgikFzvkFCr326720fU2G352T2CnOXE90rkXwXa3D3yupCClEt2bP+o6XzWQe6esrYRaOPVRlM0Pz/6vTGx6nRtI6d7E7r0odTYv6YzV+Tz55TVotO5Y7eY3XPTcLpWu+2+SQ2gFf5rWzoseNZRcLfJrwvqjWHnWO3Ky6x8YcuOf8/lP5zPf7ggAsG9fnfnYvcy6VIa3GOF0qUC70YwY8XOrV+UuSc69k7tKsC7oShOczcRoHqVA4vrA69pcmheZShqtBXiCMkuFhEh2UOD7FQQ5F5cOHx5ORbWKZ0qDLvXvOgbKfbc7/WsRluVAYDassuGj+6fGCdNlaykhI2rgutHJ4ZOgq8tPraweKHsdZuETpbHhLXPhjZnu9SfohZdL/Qz2rqfSNmGSQYHuGOuZtGq6qsrjV0fnjmlfFm2cJyseZD0M5Ee5n2/CrtHulSvA5P93BnKJJ1kyEob6wEty6cuVhx39vetpgBngPIcmoN5RGr4ejP4+T5XZY8D2ptpzTUzvTG0idWuvAjXDxY5CQQINX/ziDgXFZG/Vv5AoXiGhFbGh+7hum0JUC9+dVh8cV7/szMMU5vUe4tlI3AXvMzFudGv5dW3Iwu+656o+tCUz8pkz63KAURkOOejoeDTLDHe57Bq5SPZwok11QmIFOd8PBB8hpvwAgA4lfJF+dLRNTVgIIPxfWMwsLlbkD3koF0F6EHMRJSOFaAzDeStlS8qWPn1IiLHCY8Hg09wU89Oe5dGLznvqR52BNWLBi1x5tCrtsQDQEm51qVcXEkdiEpta1zhtejTRZkp8jvkyagocMzOs07UCqv9q15gZVKdd3z2tMuUF+/t29prT92TGpP6dLyQc1xZBrRb9Q6Uj/6gbvy6f0MJQE/l5EtT890IGGS1QJuc7o4YqH3u20mmFjFhL5BfUfMNCwMAQIdJFoIpRO0iduuGapeNpZfxkZ86yteqrh94iAU6VWhbON1KfC+EG/NEv+ppmxHk1w2dcz7P0RoAYC5tARri6SL4e1Totd621ae9495Mq70Gdq69MbSL1ba8EIDGnGuyeVhm5LMVuNrNjklza2GEpoXmbvL3FsuObq9+gpS7tgJ3tFRp44RU4gpVuLcvuIEwD88nP7HTrA5F/0YCaFSv2Zmexwd/MiCkgb60lLkykTQHY8/WowtS5saxasnjv8vnSFAEgUBpzgUxt2y0rQBzEzER2qYCdKQBkHJ2thhxeO/0cTmoH1zIXJFIl4b6Xqqbm3ufRg8Zn3s9tAHVQ/rTotSrEassOTm7dJHsdiBToao5buca/5v/YJzHjlxwsgzzvsd+Fcya9af8y4ePjoHi3wcefoHtPBOP5l2w5dQljcmAdOAvd/sL9TsiXDjhBCX/3MBf32BMCCDiMmMUdVXiqOOkHX/ldUZZfHL2oEWym0emQlZzjsTbvjfWs7tdjWkI2t0SiRfiz2+GgJKXf3z04EAtPmBsKIF5p2TmuZG60//MQ/6kZVsghjd1aUoAWpbZ8QXR8dPB8Oszn5shETqKYpCx7Q19nB23lFt8Iu2OEgQA/EnO951kCVLfEF9+FM273hkvKdskeugAKL9R2yYyS04mwXb5rd+p8GTn8lOJ7CNSMc7Gl1IsYVbWKhsfV0UdQEMZ1Ok33c5tasXUqR0OfuuUbnZX0JRXZLPnVJWwiWSS2S74fh52pQEg5dwto+KLg4MPMPXoSL58x+ghrsGv+hkTAFYpf7Q+a8JBep3Hk2nqekhdOjeXP11UAghmWWFlIPCYg+pcYyZ0sxFo49UxY0i+dGT0IgVZekHHr4fij9MTYSkpc3O66jMM3kQkGLu7bilozug1fa4m86+jYABAqFI6hHTf5JgqZjsNTfX4fO78ihQ3gEQ7XgwE73MyKgB9hZFbiuy354XXTaBDyzLbvyR7vjjgTzQlPjOtTuUFbAvFoiAX/2e6eKRiGBT3kj98r5uZNb+dirI3hnaxOpdXE4x2lx3wAkCs9/X9R4BJofINxW6NjHBp7Ms5KWCYNADXbt10rVV5mIfig7/jIK0WvjxSqIUGvue2FiKhXvnsSNrviX/Dz3o7x2qncbNbx0KxKeXm+DOvoVG9Ki1tCAXVzFik4Q21ygqReLo//JQDQkM8W0W6WT27or3spblaZTly3hr2rLfqIfVCqI9Th88pKc8HWAMp78+Wq4GBb3uZqdnohkyb3y6Vp7TyZ0czIWffN0N8pXMFgFrh6zukt8KO+YXyYt0gCfZlf+geNztb7e1YAWxoIMj9YWCokTV2OKgtH84fpKCXeAh6pQGAOb+c+3CxeoBqcJBIcu57I8E364Nvp/Zl0/cii0btlahjXqG8VNUFQG3wBH8REPIA2NTeRo7a/nYE1Tb0HB0pAFD0pMTxh+tAZjI7SejQPTHR/07QBKC01pM4Rh7wVRfEAtlRCN3iYAQBg9u8zsbCsNIvbfFsNHRnqNYXbK6YKHJoySe6n1wPFp07vPwAldKp/BuRN7ZQixeKAcIBTho74QitSY1qYGNgD6gxF0KkSVnTZNA0IODEBQsMiOhNz41bGFbvo0qts6kIAgOAtqMpDNB986GxXU1lJjSALISqqdQI2gmMolGuW2J6Bo2bZ8R8JrrVUBDlPNqxaERXVOhewPi9asFKF4bOE7wpLbdJdx9AeY5wHFQzXn/aMEnHOiZ3Zi6XZ4yp0W/2/KKhQvpKibkrFnmLApyuzTMoKxX7P1P6eCJ9DO27fcCzDWrHZVNXqGB0PAqSP5QYW0F6fxaPbibMRaXMdYkE3z9wn/1ktY1AGy8bJSH3h8FFf0SmW8x8J2lNVUz+6Q7/t+M+AMzjUjsuhaH/HRZ0iyqpAkBJ6Z8kSp6Wp1gouvuujwhTIpByakkZdke2TdpVdhrqJ6V2flITft03uJqGQTF/XSpBE4N38UTS5dqYL5xQQ+v4uiBUO65qbPK5xiYVBQDMTAt0Li87NSwLdkW+9qdI/90sjFay/5pOkNTgHfzUrHhzshPXnYuyR4adyYPO5dVGsSmnjngBABrFJAGABuq+OeRc4ZsERNWy30rpDwxE68+vsEZaBaQxvttDtW9kUmdz/Y/T+opUZikTvNHHqgDYxJrStP1Vp0LpWMqzVVH95HRmvjN6Iw8ubarGlCoPEo6HrDZoHJbLHEMH7hSKV8oKA2jCRAQkalPqkWkaRhWFA2xNFY/WHC/S0qdHxw7WTI3iXvEF/lw3kaeCt7nqqHxzWKiLn0xk4nzkphBv2fn2FQBJFxbY78eGvk8Br5S7YSxxJTl0h0CQtg22UwWwoTHNcCFMwwnISr2fJ3qkAcKl5Jcz6kZ/6HsCUwHGkGxkxgeOzu2rGVSbayRdkqVuiw3eRkNBzn15NPVxdt6PnYRNPbSvNp1AtUl6zk6WkcG7rInI2rDvxSfcZQ1AxqCN+gqU6NzwTi5+qDa0tPb6KM8tqAZJoA+7t80yAsHCutBL6wC9NHHZueJkNwwINdJvqCO8vDR95iK4+ckweXxmyG1KaRIIuoNA0Klbaox4Vz3mKY2rYe4BNbpCZMZOHv3AMYjzqW4HQJKwfQdBeFU3CYDB5pof2VulwfXBoU8HW90ad64jGBeBMm9ocqPl11bX1qwGwQ+6Dz4EKmtrayb3ZBD1CmjoI3+WyUtciwfN1OO16knUwQdBhp8Qh/LK2jvlkgbYo4RjzqX4ZbTrGaNksg/0xyq5/AfKih9kvohcT/u8rzC2o0hdHgEQgGSGpnMkABS9s6GzzS8rlY832If6A29akxzUkyHfcjEzrh0rlVao7P1DgTfqMwdvBMIP1IY/WBQfjjptHidtBXZMy0bDcS8TElUCTjf7IJm3HiNMEQJEkAWKmjQgDM7/jUFvq+kITIKyrJDGH1srnaI77nPTjZIENsqTSulCkXxkMPQcY7WFkjt4v7jtmrL0W96pUK4XHblLK9LdvCADwNaqy03+j84psdbMxIy06p/Qa19eNmqM677RF36YpxAARW/oIXH7FSXxHt7VNLo0ctj4tSvK3hh2jjWeZvvyaugz89cOb1PoqW6oybHtpUGQeQJQVp2BIkXlW6tC2h25ozZyfSovCrXLVP6OAU+yLto+VtuEJh07FUqnVmlbRVGsmLpcd38v6qiBWnOuHbpBkVwZAEHKXV2l7xvwvFOtUKohAFB08NvMwtllzzYPUwNmVMxfXDUJxnQAoGtKFMkritRf/NEHaRiQ8p9KJZxw8A5hll6lk/LjubbmgczapWPJw5nQN8LO/CQLADpXAGKNz7+mvuG3yPsf5UvXlMV7BJfcRYO1DJimJAAANjRajQz9+Hw5yHpXsZYAujcaSHlfSdJcfbf6hfG2tpOd0MamfU32SK2KT91t9PpfoSECoMq5XmUKp8gq4eRs6qFttZkSOw3UlEfvVxQARGK1Jz9Y9B+Qunh+PrPVtfF179aJZylibLW7eHDeu7jS9xzjXCyTiNj+tlOc7FvnlC7UBSeobSK9MYXI+Ne9wxx4AtAUgqAQ0AgdEZm3vPl5Bf/i9EXX5zNb3Jve8G6ZmDTerWpM6GwMnpE4LDaREzPle+apls6WC8gcAIZKFbY5178Y2CoCwoMIa4UE9rQ9k6VihxKgrI5tnAM80wDjXZypA2BNqIBx88MaHseMSr0aqglDRpTgIh0sKNWASTqeCve/xCW+V6E3APGaEbEvHn+w3kI6Fxbc5g3/WUl9fru0we15yuNe3YVd4tM0hmS3NBYgEMlup8BB9TR8quqgHJvrk4F1B2ozR3GSGgSNqY52qtgJ7JxWO0m75IYIKjG+NtRRjHFkqUo6I682DT82yjsUJYrUC0e2ntcQSCCT4nQXAAogX3PxH81UDjGFVwnzoIpI88FXp7gBANqkBUDH8rJRo544tW1q/xo5zFKUpAUBGGkoNvO3t6LsguHMpHp0scXbo0zbaORrofBzI4nP5Km/xmIvtxSWbbyOnp0KpWMp2+CllcJ1BfRYzL/F6qpakkTQciJM6fJ0NRUYWEnDIICoPm1q0p7bIvq12ZGfZ6ECQFbw/91BLESEAgBrmCRgH4uEV9ZzmvSEf1fb/pmydI/gtLFNbarouE4q1M9IZi9QHbfH3GPdDmtkZuqVIpiiyYnaO3uDbeEwfmNDoym0sSw79qkae2/cOz5H2ysNLa6C7V7HzEcsm/bVMp3ZpFPjkhxjJveiQg0CcmIGvOE/49em2swIu3sdrKojbw89eqdr3qGlJcuq4QPz4SXlob/Gn3nbeqAyM553RorHDYoLljJcH0KSa/OWpr51jrpACCABdJUAnO4O18JOBBmtz6uZKU/eBMpw8JFfOucfVlq8rBo5MB8+oDT014GVa3a/GuNacz4lEGkYGZpRNyAm80NsfXCBtSej6Q+JVM0ELlL1esFwtsmjm0vmQCYoAOkFtTirgdqNOGtqv2Gbw4kLqw9p+lNp4aGQm1RGjqjpD7EtD8dNoSYuEel4MDb0jCKeXiz8y458xhv9brA+gTk9KGoVZNnRk3/T9uW1qmOFmukyGbdxYSPQxqsRe3f8UlL6pztL0/aJSq7YtdGJ5RKoV8+QyFX9/IxOtr2GFiLI3zsQerMp/9b0SV3biuB6M5M+QTJf42vHiejNSMtO0k5p2ZZXezU6sWkuwU5hmhSfCDLTpTnurAybA+/itT3eXRTeNjo09KABDGCGNAOCWR7o20qY1XG8UDqVcme8/MJyeZGuzx/Zckk9DWvgSW/9Tc5zy7zQOySpGuop2eqxdOBrHtoEyGvoiKTq7+rAtDP4DWeQMQ0SkjWoXrwjW+BpCQCGIEyCmJjbt2TCHE2SNd0BwIz635KtTsqPB/KUsysE9wtU6UM5cXW4pc63SGm5Qc0W3fgAi+rrm/YNtkVG40a2o1EPhPSjsonrq+Sf+qNP1+cgrfWyXmlYy57Trb6GKu06xnbta3rf2zy3OiWr81XnatO0ENw5+i74UACYzqCu5rktL3Fb/haKnbHjzMO1/mWisNZbtbhQW98UDh+s9B1bpGlQXeMe63mUNKlKGQz5tfzr7uJB+TMvJ7LbHfCg9NEau+Z+l4QsNbSGGn2njZx5pBo7uOp821fZvWpMwCI3/mnRxrmAQxVHIg/DIeWAk4ojj3vrL4ggLqDBPFObpaeGRGQ5TRn69jfbzIKYhlX/aDdBAqP7egMHaD+vZSTgGKI4CFDFrFl2snZIVStyXBUAiMy4KB6pkVunDF777MIy63ww4lzJj/0wVTjaxz9DWtXfAIgz67Mo1tq2OtBQscDQiqHEDbC+3vShqcUbXnmWkXR5kQ42Tcxz6AtlXWUYe8vMRqCNl32WevA1OP9/Ddktl8TLpcWM+87W/SU2GsosmwKVfoN6ytGu6yCEF53w3ypiBIhHQOdP+JbNA23TamSqTXnZqFGPpc9TDMhZyyUAGEOKrtFMriGu7W9vRTkrw7Zp9eY4C97ehNYtYqtVzmzYSP1AKrPIEb7JKX02nTqP63+4eZoQ1tvyzFh2atgXSptS7owXbvX3/6+p/UTyB0fTPl/8l046B4HOctvN9JlV/q5BT9Ia9NRDJX3UxTb352p9plSQiqep1GshzgBAYdkxs3yYbL45sccZRVRdpejuXiNuo/w4CcQFvh3xlFTixtH0NY6BH7lm3xUOgBFXDOiYqL2Dqq7Xa29nGrbQ7Wkg9fRk4mMqd1c88gI91Wx7pUElaXCCojDAobYqZde+Ove9rTLa3bWrh72Baid9rm4UgPq8s3ccGSTEEi3JQAhrEAClTCuNlqJu824uVg/26cBkt6y1Kp71R2l9B4qRoOofUKxu0V8++iwjm2F3bnBlVS12UDUaVH1x2fLylo/5gJFOcaPrnTu30YcdXh58rv+xX7o8DFnIE4xPZRWmJEEAtaEzdxwVnlRDJQCQS3tCDVem6X2QOfAy2Q3PuxdcVHIvypz/mbxYISCn87Tw3E/6tje2t5qHZEb+TXTcOhh+q2mwgH1MXwzoG9VUsU1y4ohhHkbRhziODrOyAei08voj07cQzIwGnfTSzzj780CIkwQA1dVq2QQAGUvzyQsUoz7ZJN4kcS8H+u5tHbdmigLAPLBcClD8JoZSgH5gTWMIdvzFV4Nmh4nC8cXKy0Ehh9TjcsVFAIzP4ykO90tU4qJ0cTTkGgXa0bn8QWjCS3V4n2RHL07nUiHPZsJcUM5cLDNPxyfWI9spYLnZCLTx6iRt0h0i02kiAiCHadKAaO5SJ8M0X8wyqYhqZ5S1DdP2Ztoqb7CeB4TydamxYtD/N44yTT1ekyK05wl+/GEMrnc5xUTpKkORXLF/THVoAHRIy6a8ZgW1pJA5hwmuYkBfJXthjVoVmzkf0wwD9FaUszBsSWH6jX15UcgqSgpZs2LjHdRseKfLb72faLC3DYbfbGqw1nIkzSRB9aSS9LaXlZDhgHTS2vtpLsknP6w7b+1zbySFn9dGPpvKbYwHNzTidojVmuaMuw6F0rFV2uBVSToxOdOMDBECB8kk6Lp+lPMJV35pjSA0ZdA0lhSz5+r8r1wT3+sjDa3PhArS41L5I/my6e57sG4Tm4z7cb54TSqVDgdepUFUzF0mUc/Hpn94cUaeOio/HlKl6aJl9/huD9RuSiffz/Y/1pgtsKkAC4uZM9ng3+u194Ia+VKMl60VoFnXN2doZz08d6QBjdrFY2Mf1Ng/hb07DWXBeOdOUDsZSumNBmRfcHNn5dLXUcFHBaaGjKCqqbxrA2nbvjr3vW3y0+rUth72BqpVcG93FEBkYZjPO2SPV3ESQBPZxDvut15omkEx2B1bqGXLNXPMvWXyq1OcdOiZmb7J+syqA4eoA4gUcs5sTjrkjOyUF6P1LS32HUg6Ms6XXg9uPmBs+UUptNK/fYwgBd3pUzwqVZJIgIjCMJ/jJ9Vgxiw1nFOW3+5TIzPc3JXPgZu8LfT4n5gjjivF+zTejdQqk9gslBrW2LigmfvYoe8o2gHN5Ot62xFOWV1b7+XmH07xEZKSTXHbbGtr9XTUtfKITvUtIknVLKyWN75gWIYJ5O4bXHC/acRKyRtU7xciQusmps5ZNWrn5gtR3WQBkWX5+/qCq8f7TcL5+4j3X7LZ/9qeNkj2dV/ot2jstHExBH9PLGJm8p8bznIE/ZY3eB+fPHncC7IPxmJKNvex0WLIhHmOfzwW+Uvro38bVWwE2ni1ETThBPXSDTsyhxpovJZesmPLRwCsCqEvxTz2j++dRQJBLB1vCne4xh+nmgLaaUitisblQu78bOIi3QQEmWL5ZwJTixoa53qJKl0k0/eHuMZkkCW5Y1rWNESn8upcKOOrNmHHouzoRxTDpLhVkdjsBmhvRdkEpvtLm/LK66XPj+QOMQy2bl70j2w+HxIlIfTVPnce2OGlxdStySpn2SVo2ejWMyHY5h+4yWe9gN34m6gejduJX5P2/jyifyKf/HbBJCD1t8jA7U7SKWavL6Bn+0OvW1WKfCsYeXokcX3G8dWIUK7HaxurtX+Ylk59Ka1ToXQq5RkyunMg3wjF7sxmLkiOfNyEBVb4Yyz0fGMFgpOyX09VeUAUGMergfj9HmuLaP2Pej7aD3LZ85MjV5igwjiei8T+3PTmdseku1IeJryR39R2fCqZ3xQPbDY7Ntj6zlD6WZ9jYXb08nrt/Vs4drf9i1F1zTpXgI40SKVyds2ggHRZQrqskT2D8X9tMLAV9kYDjvr6vgOzHymlbsyZEJI5Vvi9w2XJtmlfNn1vQ6tOvz3Uw86gOiXSvTtcvHixfWgoVE+8YmyRm9z2yNBz70yaFfaROvoSbvGQ03IHLVTY+ihmKszmJ+MvbZxd7O5Vo6N++76HcIpz+WmksUZ66QGtqa9sUdxZTtwsez8f5psHrZYQ+AYTwAQwgf2EgPWdjOHSprl8s3U/ydk/g5oNS7ZtXoXKyR/O93lUngHKDv/qTbObAm3FNDuaZeGth4S3Gd3pMgmDEMtUx5FyMtoeUGNS9nvzouqO/Zv7vZk1nCtMABPABDCB/YeAnZEBocm6NQ5S2X94X33GW+r03Dz33JoqVe56ynrPqTF3xXEMTAATwAQwAUwAE+iWwOzLJd1KwuEwAUwAE8AEMIHdTgAvl+x2pHtRIDYy9iJsnBQmgAlgApgAJvDPRKDx8tU/U55xXjEBTAATwAQwAUxgLxDARsZegIyTwAQwAUwAE8AE/hkJYCPjn7HUcZ4xAUwAE8AEMIG9QGB3GhnIrUon57NX5SuDu+9FlL3AoG0S0NQjzR8BR8ppueIyfZYv67SKQvNzI9/Kybvhzd9WufgOE8AEMAFMABPYHwhMvsKK1NNSqRVIuDfsXz85KiIjqqGC9bXpjn+MWr2gWO03gQoJkaKTpLEsm3Uy/G3OyTPiOsYlTSOkqQOKvKRWO1iSWdZ7R6Qp9Y7x9oYHVct+M038cF543fjnQZF6eLFgsM71zhlfe5xUByln5KqE4HnGQdW/RQsTLK2pXR2hROtqDFGjNNH4QvmkUHyBCWACmAAmgAnspwTIQCBQVx2S23mHoskumpPU6vGieGK5fGK1fGE2e67KvOBkOtkZBsms5x3DLDtGkwYyXboWJz23B9ocaztJSJCL1ybTF5eryxSNB2SW5V9180atvBTQGx38qHVGwMw/5K+VP5RJfS5VdPGeNVNn/s4MOeUCTfnsdPLfU+mP5YunSJrBOrZ1FxEAtKhccrlDj45/mBQAdzV/HvT9yM914mClCqkiEi/PqdvdfBFpiyXpcFE8UpIOk2SS5be3z9eEtpSpHlnIXKowr0wYKFO5wFeYACaACWACmMD+SWDSyLDGSHKE54fJ+uH0BPua27PKSUcqynAw8NosY7MxKCt+RBQYdqdZCzn8LzROu2kLRaO4V9yelW73ywL/DsekKbAknzvQEf6/Ife29iOxeVhm5D9zSplnkaxn3N6ZRgYjZb9aMN8QmKnDToBxYnL0Ewr350j4Dx6hJuc/VlATbudoNytEprSixt3v46yTTa0TC5VzcvIbIf8WoC0VpSik0+31BDIjPOPh66eLIa9uIqS5+cj3Qs6MddAOzJMdZzUMgt7qgMckCy7BvTu+rNoWPHbEBDABTAATwAT2JoEpIwMFZDkCqSIBTYLKUaQKATRrpyqO33u5ppG7RTmITME0/LpJWQeC632KfIQkx9TasaXC+SWJ5JxbZrFOUEysnFitQVfgYZ5ue35YPT2YZ/mXfP5nOHN5sVZpZ2RQculjNeqv7oZZAADUyldnlNf7+h/g6TJUTylU44YaoFzPcZOrQS15mbwRFPHUkuilwOJ85rq8CDihVMufapKOmnSIoglq5ZqsMuJxjrWdcBlXFxlBTffrelyuHSarA7J0sFi+NFsMce43mw4Onkxx/IKplT6smJxOrBU6zhtNi4JvMQFMABPABDCBfZgABRyqeFJVWiKr/UotxEW+0Oeq6PLBBrUTKMtLpQXI2+nJHxrShZniUpNIM+wIQ0OpeBIT/Vp/wDSVAzVqAzv7ngwAYB7UzpPYr/s7JTKBTqOYJADQmHnGaUe2lCoPEo6HrMM/jcNymWPowJ1C8UpZYQBtt+QBgGqI56jsLT53yiNIo0mvJh5J+H4SnpgjoUXtbIOfPNx5PHmIjIYmJmQAACAASURBVHhNPKZSPlXU14UH7qWlY0WNItm3vYGMTq0VaG8pKwvuh+yODTQPqdS2evufVNLn1/h7uznnsGPWsQcmgAlgApgAJrAvEKBAjeb+IdCv+ui+7M7lTmcZAIjki5O1NV7XFnf0Kyxd7aAnIvkHo/wzcvUQg1ktMAQon6oiGgBXJfeZMvvf/YF1s1gOllyFYVMQdv8yyrTpA6iXvrgjt9Ba0TA5JH13aw4BMOyP3+xlHLpBkdaBxYKUu7pK3zfgeadaoVRDAMDeyNBZdowgC4TpNokKSRd553NADxtorL5EQiBUoemJZZQGGWhqMYN4KxAtGokQRVRY16O0fMFYdjnjDaXSvoH4k57QPY3AbX+hVn6/IvwxTG3iXSuShQWxwNZpWW0bDTtiApgAJoAJYAL7LgHK2ooxypIAmMtMeiNrjWwQoZrD84inq4PCRRIsyGYDdOxxgqia4iWZaoX1f2WAq3SZZ5IQIer5RHJEuW4bFCgAWDF9c4W7OeouAqATpAkAghAARJjS5elqKjCwkoZBK2ezv4OKCKqslT6WkaoOp4hAAUJkiJ8aFV+J9z9FA7duFGlqmlVkktzfXQAA9SDgWGsxNA+sSJVA3yOM9FmaX0uD2VLVj8+V8/7+TRAg0vkAn7guV/tW0FHrkiEOhglgApgAJoAJ7IsEJicbkNqP6DEIaNOkkWlO36Kox7T2A6VBO++Ox56FmgMSVdb7oAAWSXK06xcxEZjDNEY7gESZovIUlScggGShfl0mLFNJJknVUE/Jpo+lA3d6aBMgr6EjkhLbSWl1I3OccH84/AcXRZvQhMCkvT+LuEcsViigGQWqw0oQMryQygIjpqJtPEvqurNWixJocTF/VTJx42jyPHmacTKeLIqWMu8nAvdMvPQLE97ABin570XF0aoWvsMEMAFMABPABPYrAo3vZEBdPkDT5Xz2SM77GAWo1id+aEinVrnf+5iZgyQ01eOKZQ/vXwkQDVCFD/4Cpb80MrreH3jE5cjPNucPTZNFoKHF7kSns9x2M31mlb9r0JO0zAP1UEkfdbGdt5c2UodUCZVOKepeVVtowIfqzlnelbUujHkqTHva5wqaap9auziljzjIkKzREB4qiwVneMxBv+3yFsi238BAfjH7iZrw3xFhau4Hcg8FhW8lRr8hB+4KetbNsnm2oTb+xQQwAUwAE8AE9i0CjZmMvmpliVKLcN6HBUqlubJUPF02JsZ+pB9cKJ5Vqcanz2WYiwuJW4aTB3C+JzmCNE2ubpoUhfAtIUe0lLlhZ/JDVbXz47jpNhCpa2GEdt3IUFx9V/d7Ck1wEeV8wkUZJEFoyqAirUinztX5p130TDupKdL4JfmOy/Wyy/9bH6fQ7GjdooBG7ax8aXm1eILObaBnxKg7hCuVAzW94gk86vHfFYnc4WMR6fm9CxxUEecboF26xqJyYYXmvD3q3tlqt4h84BdexlPNfHX79hvT5fntIrdXArtiApgAJoAJYAL7CoHGUe/RUupC6L/DTY8vdPjF3NX56nwdmRCQCCkUs1nw/d7P51v1hoZymEq87SCHSvmzKtWY0P91Xzej+LgUc34h+bm8xDn7/kdEsJ9goMXUrckqBxBlIgAJHYJt/oGb2s2sNCsITeW0bOaCqhwyYYEVHguFHuc6rHQ0R5u6RoIJxPriCwDAVU1+d0xMhAa+6W0zowMAGiyMfZAI3uphdOtFmNpH0pWxYOgFGrqkzH+OSRui8V8KrakjkweE1GpeTCVe3xwD57IrtjkuvsYEMAFMABPABN5tAg0jYxf1gKb0iZGMER78jaPzmNkmDf3EdNbliTxR33Daxn+fckLqkVVji8tRmk0rQamsEM0NHs87E5/kQNFy6ird+z0/1/VmldnSwP6YACaACWACmMC+TmA3GRkAWBMeAEI8iAJg+nRQpDp+3HNfrxJYP0wAE8AEMAFMYPcQ2PXdEA09DOuVUfwHACAKu48qBooJYAKYACaACey3BBobP/fbDGDFMQFMABPABDABTGDfJICNjH2zXLBWmAAmgAlgApjAfk8AGxn7fRHiDGACmAAmgAlgAvsmAWxk7JvlgrXCBDABTAATwAT2ewLYyNjvixBnABPABDABTAAT2DcJ7E4jA7lV6eR89qp8ZXD//0IlNPWI0fSJU6Sclisu05tcui5Q0tT9zaI6RwyLhfeLGtM5APbBBDABTAATwAT2HwKTL1si9bRUagUS7g371098QgoAZEQ1VGAom7PRGbV6QbHabwIVEiJFJ0ljWTbrZPjbJo77skNBmkZIUwcUeUmtdrAks6z3jkhT6nZR97gfVct+M038cF543fibuUg9vFgwWOd6J9XZ0NBOzZUJiqKQKZgmCSACiDZNp64cKeqbgrFbPYz9h01Fs3ZpEa0R/Ik9nj+cACaACWACmAAmsKcJTBoZkHk2HFEL5ZBhhlTxUEXrUzWXqS8Ra6wQ/VLUWe6gico4/xRyRDXdo2tRVfPqpikE7rW1MAS5eHW23A/IFMNuZbltrPMRp5AbGz0PGR4DAbLt9zaQv1b+QKF4hoRWxofu4dqGma4iNOWzMtlzq3IAERnO+Wgo+DTb5Tey0PyaviYYXd9Ixy1WY87QTXYWBnCKhRU6/2M3vaQiptyBtxpsvdUMRzlfZWefNVJIKsew6en5wPeYACaACWACmMD+SKAxEFq6E8yqQBAAQOvMKGRf8TAVULtyR8bw8p0sjEaOTb+qegGR5fgRWe7nnMWGR9tfkfPeGvc2eRmH5DIxV/8NblZqcm26NA/LjHy2Ale72TFJbnKfumSk7H9UuR+EnVNnmQLjhFTiClW4ty+4gTAPzyc/sdOsDkX/NjlPMxV7xpUpHQG8d7sakxZIOb0CHww7q6a2VJJJVlhLz7QYUJ+CVnmFNA2G1MQZNc8a18RJJUVn6FbnjCSmHIyQBnM0Mb7EVCUnYvHV9Gdl4bagYA9zSgy+wgQwAUwAE8AE9i0CU0YGCsiyi+a2k1Cj2Hfq7tDQfKzvTm7mgDqRCYhM3jSdhqmShKHrQ5I8UNOiMPWlouZD9DPh6JOzHEqCYmLlUEWvuMJ3Mh1TAYBY7+v7jwCTQuUbiu2NDGho8zR6KjcAQK2yQiSe7g8/5YDQEM9WkW5Wz65oL3vpzusdVr4ERTyhIrIUfV5ixwka9Wgk+qpaXEiR3nxmAUmWDPFDaenH8yKvT9cXbvJHNlkCdK9JIjl/jaR7dZMkHQ+HbNeAkHLxaC7ZP/BwfS+GRkzMtZjIWFxTeYCNjH2rxWBtMAFMABPABLomQAGHKp5UlZbIar9SC3GRL/S5Krp8sEHtBMryUmkB8k4fTBuyoSFdmCkuNYk0w44wNJSKJzHRr/UHTFM5UKM2sK0njjZitf7CPKidJ7Ff93dKZCK4RjFJ62hTNEu4JumUKg8SjoeshRXjsFzmGDpwp1C8UlYYQNtsMQEAqIZ4jsre4nOnPII0mvRq4pGE7ydhRq0Lp0XtbIPfYKOHqUSZ4G0BhwqhvTXTUBZRJLelfnw8iQBhKIdXajFN98vqNldwrBEI/2ICmAAmgAlgAvsbAQrUaO4fAv2qj+7L7lzutPZeQCRfnKyt8bq2uKNfYelqhzwhkn8wyj8jVw8xmNUCQ4DyqSqiAXBVcp8ps//dH1hnMxI3ZCoMm5rLaeaNPRIT8aFe+uKO3EIAADI5JH13aw4BMOyP3+xlHLpBkVwZAEHKXV2l7xvwvFOtUKohAGBvZOgsO0aQBcJ0m0SFpIu88zmghw00Vt8sQiBUoen20ymWUmiwVOK5CEBmQNN9uh5VNZbmXxSYTlEcUvVQXY7uHNUIMg80nmQ1hv9/TspbNA/hZ5l0aVDEv5gAJoAJYAKYwD5IgAIAkqMsCYC5zKQ31lc3IEI1h+cRD693obBIggXZbICOPU4QVVO8JFOtsP6vDHBNeyNspZCECFE3CbWVgijXbYMCBQArpm+ucDdH3UUAdII0AUDWgW2IMKXL09VUYGAlDYMAIjT75AIiqLJW+lhGqjqcIgIFCJEhfmpUfCXe/xQN3LpRpKnOr+hqy2p6RMlfpNFpiiqTRIE2L0iOHBKe/0NX+z2nMut6wMdvcTk3U5CSMp/RhLWstRdE9IV2ts0zdsQEMAFMABPABPYPApO7GJDaj+iXIaBNk0CmSU4bEfWYRiboafMIVhYN2nl33OnSNAckqqz3QbpwbVleK3CVbvZXAoAANMHsA39nmESZsiZMWAICSBYoqtAIKpOkaqinZKvH0oGveWgTIK+hI5ISGwE6/5I5TlgZ8hSAenERmhCYtPdnETJkpYMCmlHgbVaCmMdjg483i0bgGJIbcUzj2RSCoEYczHZqgm3DfEEH5cZOYkK/cNENl6Yo+BITwAQwAUwAE9gPCDSMDKjLB2i6nM8eyXkfowDV+sQPDenUKvd7HzNzwIOmelyx7OH9KwGiAarwwV+g9JdGRtf7A4+4HPk2ZkkLFWiaLAINLVq8dvFGZ7ntZvrMKn/XoCdpmQfqoZI+6mLtv1RhJQqpEiqdUtS9qrbQgA/V9cjyrqx1YcxTYdrTJlduubpc0evbYA2HtRlW9+kmYjx3BYGf4p+wyaFZu3hM+cu88JoWqTBPGAcoBnTVN2vsIgscHRPABDABTAATeBcINAa/vmpliWIm/f2/FCjT5MpS8XSZeZYjrYUMpB9cKJ4lOV/0+ne0DITm4kLyX4r6ukj/rzmCrZhc3TQpCuFbQO6afOaGMvOq1/+Yk6m1z5jpNqCka2FENbRoH64bV8XVd7WrJSCinE+48ktrBKEpg6axpJg9V+d/1dXEAPmOy6UwjrxZukEDo/UsQ6N2ZknNM9oJOve7duN+meWGkWZSdJKiak2UWDHVRzszLaq13EDDcLDssDWHpEc0w69UTy0iv4lY2Rxz4mmMFlb4BhPABDABTGC/IgAXL15sKRwtpS6E/jvctFFX3y/mrs5X5+vIhIBESKGYzYLv934+35o5aCiHqcTbDnKolD+rUo0J/V/3dT8umvMLyc/lJc7Z9z8igv0EAy2mbk1WOYAoEwFI6BBs8w/c1G5mpVlBaCqnZTMXVOWQCQus8Fgo9Dhns9LRHHX8GgkmEIkJk8FVTX53TEyEBr7pbTOjMzMyoYvnF6V5kqj7B29zdlouQYP5kW/l9QpJFBhuM8duZ9lh620d0lFKv58N/b67z47NTB27YAKYACaACWAC7zaBhpGxi3pAU/rESMYID/7G0fQUP7tQ/cR01uWJPDHL5zRmF7Q3QiD1yKqxxeUodZ1YrJi4VvP835Ddty4Ytfo+hXzT6ci2kiN0zUfSuVbHrlPGATEBTAATwAQwgXedwG4yMgCwJjwAhOMTIe96trACmAAmgAlgApgAJvBuE9j13RCNHBjWK6P4DxPABDABTAATwAQwgXECXXwvC6PCBDABTAATwAQwAUxg7gSwkTF3ZjgGJoAJYAKYACaACXRBABsZXUDCQTABTAATwAQwAUxg7gSwkTF3ZjgGJoAJYAKYACaACXRBABsZXUDCQTABTAATwAQwAUxg7gSwkTF3ZjgGJoAJYAKYACaACXRBYJ8xMqBW+K/Nw5cou3JYWhf5fS8EMVbs3PzfaWn3vX28v0BB8/Mjd2xNnG7/ddh9NDe7pjxSLhnefHNe3Wfa6z5KGauFCWAC+xiBlpHKPCA7+tWCujq64Puuid4MmvJZmey5VTmAiAznfDQUfJqd+EI2q1Y+ki2cWFOdgEhxzscDwWe4qY9nO5XyRfnS0TU1YCCD8X1jMLB5j31HA+rFrw6LL87rf7a7o193uQzQ/PzolyTnN/t9I9MzZS7OjX4tr74dWfBddzcjAvLXyh8oFM+Q0Mr40D27+BFxVLtyePQD9THYhESZZt92+X/n42c9pq4LIHPLl0216ZQWJaV/mlD/PC/+VL1Oskr+K6NFMTjwPc/Ep+4BgDJJJxmy0sx1liyjaDHx9TL3g3hgY3OsTkrsQfd2yu/B5NqI7qFQrOMCO/cAvXkB0KnOo8XZ4f8qaJMFZTD+rw0GttabWG9p2fRRhC6dn82fLskB68wB/v8FQg/y1F7/liDy1soXFax+0ouIHCc8Hgw+UT/6wFfa+eO0NO2UJN0R+nzcm25TtpNOZrxauLBYPUTRXMjK1zP1fM082HIyAgBoaWb714pGwj/wxQBrAEAquW+N5AcIz83zw2+DLrsU84jU8PVm8PN9rkqTaHyJCYDm80+dUvbaKhxuMTuME1KJK1Th3r7gBsI8PJ/8xE6zOhT9GwmgUb1mZ3oeH/zJgJAG+tJS5spE0hyMPVuPLkiZG8eqJY//Lp8jQREEAqXpg/HuhE9oWmgvzoAQavGqgvlCv3eGhQEEKXdtBe5oYWiTU/OwzMhnK3C1mx2TZJtwc/GC64PxnztJwjSiteLHs2OfpoZucVO7iGeO+epYbbrMCDTEq8bybldfk4VhRR3zRL/qmSnDJssw6Qk+Ux79ZMH5lXoHOjPyXnPpoPxeS7+3QrGJ1ZuXXZ336IboDP+fgGN8sEeQTE30G72kZdtHaWclxy5E7l/EIptIc0Epfe1YUhmIP8LsteKoJ4SUs7PFiMN7p4/LQf3gQuaKRLo01PcSCcqu8H840FSvifSTU4ljWbZoryDSDpK0ojPw4xBdRcaBxczHx9K5odhzs/RIsEoRQVGMBdgRACKiFCapJlvBpn1NaAMN8XQR/D0qNMWyVxT7/vMQaFQ+qFevTtfWhoJmeizQyD7UKitE4un+8FMOCA3xbBXpZvXsivayl+ZqleXIeWvYs95qB9QLoT5OHT6npDwfYA2kvD9brgYGvu1l5vhkAB1y8X+mi0cqhkFxL/nD97oZBYBIcfSWEvfNweCmiTZnPfHcWHN/acCvlca+nJMChkkDcO3WTddaT17MQ/HB341PCZjq8fnc+RUpbgCJdrwYCN7nZNR67qApr8hmz6kqYRPJJLNd8P087LJ9RGhAAejAUmk+671txqwDNKpXpaUNoaCaGYtMBre7INb7+v4jwKRQ+YZij0YGpZU/O5oJOfu+GeLHW7hK0imaRIBOsL755eqJqk6AXXpEm2u+bKpNV7YOUlckU8eR/m+GhPI4PSRfOjJ6kVLvc6Hj10Pxx1sf8eyyDNmnPdwHcsXDfZHXJ5+R7QoFAGDOL+c+XKweoBocJJKc+95I8M16SyF16dxc/nRRCSCYZYWVgcBjDsoEAGqFr++Q3go75hfKi3WDJNiX/aF73KxiHWJsq3znKsoq5Y9mC8fJGgfpdR5PZmrAmUX7tt69FYpNLNC5c7DxQsCmzhs+A2Qcjh3M9AMIe1PDto/S4hraGPC/XJ82yPq97ytmYjoCzCyUd6HfaFcskPvDwFDDgx0OasuH8wcp6CUeGgQ92mTx0HL5KI39a59jvPtqRJnxC9mnwtFJ150+1xnVipUvapZ8kYxjkywervlHaO0ISd3EOYaaOiS79lVPLFQpHUK6b3JMNbDdDGoyS/hi/yMwYWRop6YzcWf0P3n00aY8UKo8SDgeskZT47Bc5hg6cKdQvFJWGEATJiIg0XSGO5mmYVRROMDWVPFozfEiLX16dOxgzdQo7hVf4M+N0b1J/MxLdUW+9qdI/90sjFay/5pOkNTgHTyRdrnX5nKn1vyb+HolRsrRor7N7UoAQLjCNwmIqmW/ldIfGIi+ZC2XwBo53qL0k1I7P6kJv+4bXE3DoJi/LpWgicG7LCFoqJC+UmLuikXeogCna/MMqjBTnbYuSD6mqm/1zTy9XT85nZnvjN7Ig0u7Gkst6RrFJAGABppqnW0T7eAIdfGTiUycj9zUsDCaAiK/VD1Co9byczX1mmRYl3POl021sQbdWf7MA3PJj6mOXw74x+fJreCQ+8Pgoj8i0y1mvpO02ZHRPssFwbkxkzumhl4XZulqx1ULl5Jfzqgb/aHvCUwFGEOykRlfhkPyhxJjK0jvz+LRzYS5qJS5LpHg+wfuGzc3kXRhgf1+bOj7FPBKuRvGEleSQ3cIBLJTvnMVNaWPJ9LH0L7bBzzboHZcNnWFCkZnQWfn3Vuh2MQyO3cONl6KTZ1Hhk9HfcXErUWTgNRO3vVQwLumPjr2poZNHyVC7hWBulaUAi5XFiK/KA7QzqdmPDbMALoL/cYMWTMdCNNwArLSZs3XWF4ou4Twc6229UwJzS6sLp9cKAdY999nP34SUdDxJpdbLuqPOaUjFe7VAFzc1Lk3xLZvXwApp5aUYXdk21Tz2rOgGvrg3/2CgGVkoP5i6hLDc0vAIQOpWWuHblAkVwbWKsDVVfq+Ac871QqlGgIARQe/zSycXfZs8zA1YEbF/MVVk2BMBwC6pkSRvKJI/cUffZCGASn/qVTCCQetDrdZervrjb7ww7w1t1/0hh4St19REu/hXTXS+Ywze11J+h3vrFpLhuJROveki0YAGASZJwBFQBNAkaLyTe2TVEoXiuQjg6Hn6k8nJXfwfnHbNWXpt7xTAYAACEAyQ9M5EgCK3tlOmbZuhC4vMuj104+MR7Fi6nLd/b2oowZqU22trYh2jnONYj09m7VLx5KHM6FvhJ35KZno0PS236QBBIiA7POh2N3jltlUgDld9ZIvm2ozq5HhraYvKGobQrEXGnNsk+qakKhaBT3zb5YsI5LbyJjHyiopWEvOs/wh5X0lSXP13eoXxrvZnexEDFYqrVDZ+4cCb9T7+jcC4Qdqwx8sig9HrRoFALHG5x8fFIu8/1G+dE1ZvEdwjQtpq7xNFQVS+XiDfag/8Kb1OEs9GfItFzP8LKrbefdWKDax9M6dg41XcwWYXuch+1g09g9E5kjIabUV2ez/3ql/ZyC0lgC9qWHTR4mAWBOK/yqT+PqI+CajHWAIt8f9/+jC0u+537Armwk//fh8Och6V82wCQi1fK5IPhfvcjECHZHa9r/KBgGIDO/9UazJWLdTgnjbyX2wKg5CcYhz3kFKl08FnqV9sbXSKbrjPrfVIU/+7UlQk4ngi/2CAAUYpfCZAnik32fZoc3VBABknXmGCFO6PF1NBQZW0jAIIEJWIJP23BbRr82O/DwLFQCygv/vDmIhIhQAWMMkAftYJLyyPk4kPeHf1bZ/pizdIzjbGMctlKhtU4M3OcxSlKQFARgBxBq3S0qUjtWdKyk0KFZ9nPeVGYNQiyQAHIoSReqFI1vPa3gQyKQ43QWAAuA2b/jPSurz26UNbs9THvdqZnYDaFwMoWlBQKXolh6SVgrXFdBjMf+WGQwbie/mXxXqZySzF6iO22PusRZd4Dv++B1OAiIzJJcuzez8VxD/YWv7716V3vJlU21mSRop5xTQPzhiWam42BXseqvmbFmGdIoCfk0nQBdGBtDiKtjudTTNFk9o7VNVB+XYPFXxqM0cxUlqEIC6kUpmpialYYomG7W3Y6ZtqiilaQzJbmk8uSKS3U6BgzpKmt2jt0KxidWbl72iVZZ/ezwEzfyiD/UP584SA2tdRG9p2fRRAKBwNf8hEWz08JtgbWGhdGmB/XFQaDLW22rae7/RVlyTo7EsO/apGntv3Dtjvso8pFjs53w/mn2iZVwe3BCIf8mLOENdVs5/dof6q4G+mSZ7U9ITlyXBuT1X/qip7XCFiy1Pm/btyziyVCWdkVebHvDALnSwMxXDLvs5AQotLpcW6MbQji2X1bNindie2vqbnOfbQ6FNJKka6inZ6rF04Gse2gTIa+iIpEQrJEw7g99wBhnTICFZg+rFO7IFnpYAYAjCJIiJGeZ6yBxNkjXdAcBsRkYbmONmj+bwPEePnFpRn/Wio0Vjvc9ZahO2xcmKCPl7B0JvNo3BiCDHl0UQ6XgwNvSMIp5eLPzLjnzGG/1ucGJPQ4uUGTcQmSwg5CaZAKCF5fIiXZ8/suWSeniLYdpieMu80NqWkDPE9ergKWdXCO4XqNKHcuLqcMsjjkLRCYZEAIyyrK5sv6FUjbh9yV4S6jFfsl21sdUDkq+EYv/tkD89MvYveeFrQUeXFWa2LEOFgDRq2kZnq4U1uTfd3p6KMLM8Gy5oyvwAwCqAzkLGxdlU0ZAVAo5X/vHARiOZ8du5/t9bodjEMjuXso1X92ojihkhUNwwICB6U8Omj4Ja6dq0uC06+HOBRMC9ylW9djR5PT34fzwtj+Mzte2535gpasoF6UdlE9dXyT/1R5+esSkE6pXzKuDVqDs7FWGWqxrFjFh1kd3koF3Do+eW1VX+6dtcZoowKeE1JnOVzN0dpcxWE9umfUG9eoZErurnpzXVPQJqptLYZT8gQMHN/vj/8jR6MyR/eGfa5Ru4y0nlINBZbruZPrPK3zXosUYppB4q6aMutnlVXCUsC1aQiqep1GshzgBAYdkxs3yYbL45sQ8IRVRdpei6aWKPRJ+nGJAbfxXCGFJ0jWZyEzGY593s+eXqIA+O1B0PWV1D0x+0RoVp3YPMsilQ6TeopxydumdYZp0PRpwr+bEfpgpH+/hnWozxJvlNlwgSKtDY1uS3+vunGAL5g6Npny/+Syed65Ryk8DeLhEX+HbEU1KJG0fT1zgGfuSyth/O/BtPv1ctYG/56qbazFS17kJt4UiTFH4bct08lv6IMPCbpq1kHaJMd26XZcSZSCVbxuzp0abuqSQNTlAUBkzfZJdnGUmXF+lg08QEg75Q1lWGafT+RlwxoGOi9g6quj5Ve6ekN1/ZVNECQyuGEjfA+rrlAk0trjdHnfN1b4ViEwt17hxsvLrXGxpqzCSylNXSe1NjMq2ZfRSlqQOIWdWYNzUofh2DPi6rpIfuAnMv/cakMtMvkHp6MvExlbsrHnmhdX60HhItLBYPpNw38t1OtbbKRyQARLfmNfWyP8irzMs0AK1GRrPMae0rXi4tZtx3tp9l2a2gmpXA1/sTAQIoJJ1gmMY/SoRApugETSoAIMr5hIsySILQlEFFWpFOnavzT7vo8fGMNLS46OfiYgAAIABJREFUpodU+Yhi+ivJsukOPVgfzk3G/ThvnpFKfUBSQ5p6SDF1mUQ973E0L8d2QrSkkDmnpnkM7cBi5sIatcozZSDnXJ639ep5haqHd69uXT01aSYJ5JNKUp9heHQ1algmgMF6HhDQ6amxi6tyVNfDqnxkKX+ONP5AaB5YLpwoKWHd8OjKQTWNIahCd0OxSVE5oIe1FitDbWZI0xZDkhln2MipeUhm+Bfb00e0tQUagbr/VWm6CIHG+m4PMMvSyferU/owhhbRtKiqHFzOXFYxh51C81szvlLi51u2f0KaCm+TaG/5sq82NslNelWE4J0udGY6t6wJF0Sm00QEQA7Tepmo+c8+ywBpER1k6e5esYHsC27OWUpfVxAXqlpMkQ+tVA6sb+VQHd4nWeXidO5IVXfr6uH59MUy87R3YusGAGBhMXNmo/ZeUCNf8vCTfXVb5W2qqOJwv0TJF6WLB2mGW5NPz+QPmlFicyrKLgqlTRW1idWbV3OpTbuGevVD2eKxkjxPUQ4Qi59O5BYynicEq6n3nFanPspguE2EfFauslAzXIa2pJw5r0as5a1nJNu/2fuNORUKNGof3Dn6SZl+OOjdaSgLZNn6p+qNXUDWlwLOK+vrvZ7tbXqnNuVFqJXLcsXjpdpCRZ1Xq56bSp9msH9zdrv1u8h77/fyM9eMOrYvVDujrG1wu8amU5sd1PQY+P49S6B5hrdNJsk3QrE7s5kLkiMftz5ZI/wxFnq+EYWTsl9PVXlAFBjHq4H4/R5ri2j9j3o+2g9y2fOTI1eYoMI4novE/tzNIynk7w07FmVHP6IYJsWtisTubdq0iEhhpTP7xRJ4dsbUnEl7fx7RP5FPfrtg7Uv/W2TgdieJALUqGpcLufOziYt0ExBkyvo0TeNx1qidmy9EdWvtI8vy9/UFpxkubWDUnUya20rmF8uTMy6dAs50t54qpv3RYurWZJUDiEJo2ejWMyHY5h+4yTf73GZDDkx4I7+p7fhUMr8pHqi/4osOyo78MGvta5Vo9i1f3z2+5i4GxRVFgI517Z88GlLn9jszX3bVpjvZ5Opg6MWRsU9nha+EeUkv3bAjc6gxkdAlO7Z8BMCqEPpSzFOf6LLPMoCGvEQltnJdUoWjvr7vwOxHSqkbcyaEZI4Vfu9wWWpD9sFYTMnmPjZaDJkwz/GPxyJ/mSJJP+tzLMyOXl6vvX8LW1tuEQDQTvnOVZTg74lFzEz+c8NZjqDf8gbv45Mnt7Cba1F2UyhzKkobgTZeoFOdRwSpaYVLU7mggUyC3iIEvhP0Nr7gZyPQxgt06qMQ5f5ZzLwim//icEoAsMA4Xgn1/9HVOj/aQrtxM0u/MbdCIZXK2TWDAtJlCWl8tdp6Omr6BFl/qXgkdH3f1ek7N9PLCxGEqRYvLeWChokIKskJv48Fnpyxk7SRmS5/O7YvQSwdbwp3tFVvFlBdJo2DvQcIwMWLF+832XCVEz/J0d+dF1rXxq7fa7kwD0sPf171fSHubcyT77Wkdz0h9cKRHWeysS+E+W4mlnY9vX1Bgr+08wd56kdDkTdbJ8B2o27WdzKGS5t2/Zutc9Dpn7Eo54Dn3QmKC+Xd4Y5T3YcJ7LFudw/kWT+mUsu5XBveTQvDelNxrcczqpTOkmfMX++BPO9ekdBQlqjMc90tXe3epN81aUhZUZITHu+a/amqz07rn7EoZ6fyLofAhfIuFwBOfl8k0Fj72Bd1a+hUX882A2L2Ipn7S3jWddNGtD32a7C+O73iDdni8/2+0XfZ4plbJhHp+u7C+sz/3OLtv6FRrJQ5A3i/7+3m5dX9KZv/fEW5H5QOLpT9oJCwinubwP5gZHBi+ofJKkFyL0QiK6dt+dvbvMbTg1sCA9YnzPHfvk4AJrzxa737upZYP0wAE8AE3qME9qs9Ge/RMsDZwgQwAUwAE8AE3pME3lsL1e/JIsKZwgQwAUwAE8AE9k8C2MjYP8sNa40JYAKYACaACezzBLCRsc8XEVYQE8AEMAFMABPYPwlgI2P/LDesNSaACWACmAAmsM8T6PntEhQ5bfj9R2njb3CaY8EHf+srt344gluUPuecMpvzP/0Hf3a27/X2CmofUaNX9fdQPGc5cbPs/XyY7+Ighj2kAhaLCWACmAAmgAn0bGTA4vrAa5ocmlcZira3IBwh2cUiIiR7aNBkZCD34sLhy8uxsE7pVGHYveZF30ix569N9KxGh6KH2rLLho/unzCXTJWspISNq4LrRye+OEzwtcXHFhYvlL1uk9DJ8piw9tnQ5myX+lPUouuFfkZb9xMp2/jiJhzgjrmaRauqr66sn7nSQbEunTmlfFm2cJyseZD0M5Ee5n2/CrtHulSvyzRwMEwAE8AEMAFMoCsCPRsZQEm51qVcXEkdiEptB7HCa9GnizJT5HdMHhMFUOCYnWedqBVW+1e9wMqkOu/47GmXKS/e27e10pW6MwP1pMZMMdNd5BxXlgHtVr0D5aM/qBu/7t9QAtBTOfnS1Hw3AgZZLdAmp7sjBmqf++kCrXtqERP2AvkVNd+wMAAAdJhkoc2ph+0EdXJDtcvG0sv4yE8d5WtV1w88xAK924PfOonE7pgAJoAJYAKYQK8E6kYGqyw5Obt0kex2IFOhqjlu5xr/m/9gnMeOXHCyDPO+x34VzJoAQG3Z5cNHx0Dx7wMPv8A2nY85LXE074Itpy5pTAakA3+521+o3xHhwgknKPnnBv76BmNCABGXGaOoqxJHHSft+CuvM8rik7MHLZLdPDIVsppzJN72vbGe3e1qTFO33S2ReCH+/GYIKHn5x0cPDtTiA8aGEph3SmaeG6k7/c885E9atgVieFOXpgSgZZkdXxAdPx0Mvz5zswskQkdRDDK2vaGPs+OWcotPpN1RggCAP8n5vpMsQeob4suPonnXO+MlZZtEDx0A5Tdq20Rmyckk2C6/9TsVnuxcfiqRfUQqxtn4UoolzMpaZePjqqgDaCiDOv2m27lNrZg6tcPBb53SDV9hApgAJoAJYAJ7mQABAIqelDj+cMlLUbmdXFEEQkz0s4QJQGmtJ6EAwlddELNsBOgWByMIGOzmdTYWhqV/aYtn4z+ciey0Qw1R5NCST3SvXg8WnTt8xec2ffzf/n97bwLdxnXm+d5bGwo7CBAgwV0yaVu7ZC1eInnsdmRPLNtx3JnE9iTdTk960vGcyWQ6r9PpnqSXzExPv36ZvPPGySSn03HSSZweO05sd7xblluWLSdOJFOrtVEUBYokiH0pALXedwpcVATBSxACaUn8cHyMW/Wv73+/+7sl1oeqQmHwnm1oaICz90gBhrRsH71lU8HHT6SBnW35wKKksRDCrMGVB2HoGImFlSt1TPjTeycqDBOJUmBnFFsEIx2hGaumusMBPrwC6+eUaGxyFbZhrBhy0VzU03pqUEsNapkYmSjPmBVCq92QCXZttfdeQ2QF21YK/omHV2IcvMfZEyaZ01oJMd5N9tW3seZMsvZjgnZrIrFd1mcXOVOJwDsQAAJAAAgAgaUhwCFEHG4dI1QcanrrZU9WRVjQeb18aJVcJ04mOtar3auKB4Yd4sp8M4u0Ic9gip4bTh0L7j+G+FUjD+6SLl5JYZSWdl2JOEqrxnf24jOvhNibY90eozDOIqdmZwh2aWYaEd/bL3ozE2kYi5AGPfdJ1WjbMXz3NiI2KR47IgXnufMM41M8LEK6LRG7OKYKM3y8ufsPmytWTi66NwluhsQOqtM/rFbsLx7uR80PeNauw/LR4uHpezKY8m/C61rk5yX2E+6+LiP6UjG/nVu7GguOSTeSlI8+XsqoyLbZuW0X51jDu/foGcP2THtbLpG8Oyv7UexPiXt3k+9dwfzBcXgBASAABIAAEFhyAhxCzEi/N9mV9l8X/diKZOys+9QB39nRiUSY0X5Pem3S15cL7xVcfSWWMOeOuKT6DlpYc7pQ8TTra5OZmP/YSeH6W5AqMwxHkMpohIkd8iV7Uv6+8fsfTcYGPKcP+gZGFiGNScR61x0jG8pnaBBCRrRpz6vu8imFSVkMlESEdIVLDbqOvxU4KyHGSxjzCgmu6/ZMG9e2nkFZZfTUAuAZOiqXG8jQECIIYTRRfpgZj+o51cxVGdFLhHO6WbsNZYrIYO2vhtr3iyPfyPEnkPTZiBTu6HjWNmdZNDlceAMCQAAIAAEg0HgC5j0ZpXPBFx5396zPXLsmH7o+Gbo22/1ax54jPEHIiHlPRtI3dUkrVwlimJCC+8zAxHGvnlQwRphBmsIgUfOEiiEXwYIa9qlG1Js0kDzU/Pz3XSs2ZPrW5FuuT4auy3S/1vn64canMZG62CQHWiaP+IaqlwuI6UExZ59dad6TYXkRiSsayM0qPh8ailuEWprC9UKzExX2KelyZVBLCH0bzKLJ7PBkA8/IFim887mgh5Ujm4raczYTIryAABAAAkAACCwtAQ4hw9WsKUlxYL848E6w7Y7zOzeq7Wsk51FfniBEuLPvOTd25cI3pnke5Q97Rus+ShpcLou6/WrygCe9OrnzISZ+zo5Xj29VbYd/4S4QMw11Ko3w7ZGdNyhta/OuI025xqYxyZc99XTvqYWwJjn7SBKHgvJ129ORl3zlL4gQMaDipFCc5xCOmZYtPKdr596rchbE0M2TFLyHYZFe+2MtcCfvd6ixArJ3cyJGJGcUze/wqOvyaloU8whhYnRI0g0qe1aouDVmIYOGbYEAEAACQAAI1E+AQ1jruev8Dc2MlOELJeQMmc/XkrO8PHXgVAZ9Z9L5tU0aMmwDR8XJZ2Jwavh6qaVZ8XfK5i2G/uzWO/V4zHbhhDuuqG2r863NSlNHyZR82W136+NRcfi468Igv2Fjtmtv+4vfd3sFNpVkhCbFJguZAkZY7d55fnNoOg2FQaiUWYw03DHL90EWQM6wnXjTs/L+jKc3du/nk1KOwaLm4J17Hwufm3pQiLEuFvmCZP9WV+iQ5cZLHBbCbUg7pUTTVbqTIrqxgePX2beGbCUd8ePygeer3jk6Ixa7+FWfd7UnkbPDvOUz369kDYSIvio5dp+sl082SV8viL8KhJ9wWFKZ4QELQAAIAAEgAAQWlQCHCJsaciTtJa9PdjFIlWwjJz2H9jkvnrDQbecHuDVbVGPUMzD91CmxsH5nLDx95cSmdK5TOgnrTLjiicK6O+IXJUENr0qHr2ftMdf+A81nrhvdcn+UvO4/N8qwTs3VJHsVLlNgEWFSQ46EYzoNYdRMw6VMj75xacSGZl5ZmO5ivkZpMPjS08KmmzIdYdXhIUpeGDnjzExVYxPRZNYhHTdt5u3YGDugXWRq6UnuLx73iSs2co4WlisZ0uDkt0ssm1RpKkdLEY0L97KsYqT6S6f26WZhgsWnulb+wtDbMmNfVnxfanFansdRxQRWAQEgAASAABBYTAK4r6+P7o+d+Q89PNrrYQef7957crqsoAfNqTIead3tidXXyLbywdiQhTOvdOw/Nb9tY9OYM7/LX3De6tpyO6sfLux/Rp3rjAc8Vvzyn0fIEAgAASCwDAhQn/jpzO34eDLsVRwCks/7+0/PXwrMS8zIOg895zwiaC63weiMlOXmPFJOey1CGtPeV2cj72n7gufqHBqMCggAASAABK4cArQiA2PD5lFFzMXf9/1mjy8z1+fmhY/WULhsotawxUuj1gxgOyAABIAAEAACQGDhBOa/XLJwT4gAAkAACAABIAAEgACadZsiMAECQAAIAAEgAASAQCMIQJHRCIrgAQSAABAAAkAACMwiAEXGLCSwAggAASAABIAAEGgEASgyGkERPIAAEAACQAAIAIFZBKDImIUEVgABIAAEgAAQAAKNIED7CivVn7TcPvSvN5vPIC//Jmjzsz9tys589qXYO/6Rj2RtCf/uJ/3xqQdvUz3rEC+TNOrIfDFDFvQwLqym/mooM9De/SN7nU9CnWcoRP7E+chGd9dX/ULjvgU9T5+LKjNa4YFY/HcKipegAuf6UUfrvsl/R2RFcvi/pNmfdrbt4adSMHJfOju2deLfBrY93dn5NPwo7hQbeAcCQOBqJ1B3kYHTxwO/VUvBnlx3a/UKwh4suW2ECZa8PLIUGcTTl9q4JdsW0jiNSw15Dr/VFEnXfXSrO405Jharax4c2to+WS4ZCpuLOk+93Xx8ePJXxhhHse/GVN81JZ/HYDQ2O+o8+kbwzPTT1udwnVrNcb2POtsF9dhjhfjUE79xp7jtMzbydv43r1f5+bSpyFrfRTn7YDx1U0n1ksJ3JX7I0fTDkCdSN95au70it/OUMr+bzGwtKl6CJV543x34vt+RnX8oZE0y+jHZ/nh7uJ9Doo6yF/8R4RLLjwlsznqCkHF/s9fFEMQoyb+JSPPbX9yC+IvZu1PpOwrk9Y7un4i1ziLW0l8dkt7qaX9jIU/Pqy/qYrLQAgJAAAhUIXDx72MVkbpKjrqPRd1iRulsLVT985f6bevudElIO86bvw868SKBbRfu/JCa6ve/vc9WYpWem+O3Pyi/9UT4bG5qkwW+15XG/H2UEmK2hHiP4uvMbn1A0/+x/UQGYW9uxyejKzwE6Ww+xRui5mnRSfXRV+uC6xVCPlR6Vyn/hOvkFnyItWF0EVG1wFrXkeKDo+NrHC3ftmc/p7i/6WVWalyq6uTU6njVbucuxP5iJItcTT8JO0YZ4lHlTszVVgIQv6ZroutNkTd/jGbmv6BRb+tXvZXQCML6gmfB2BCLfDGH+z220cLC9g5GVYMzTypWJlRtub6oak6wDggAASAwTaD8J9ImX7sjvqq35LETQ+byCfHCYf977wuuGyP37SjhZNOLP2yOGwhhdc1DQ1vbUPrXnf+8zzb3mW/Sc9/AbddOnQwYD/zyx/5UeYkJpW65RU7u7XztoGBghIkYG+W43x/ZfFPh/GsOTZD7dsRX95Y8DmLIbD5hHznSdPC4reFpTA9+7gYzsq/jzTMYcaUtnx5eGyh2dOonMqjn1liPhygX/Hue84+ZtQURHIZm+U1XsiZ2/kuS/dtdoQPWz7IT/WAmuJkTiD54UJtgJ64S+z7Ee1oZBiHHdte/2m5upxyUfvUC6XnU1ZGRBwt893W4dLA4KAnX7mDRudKhf1LwDteW25j484V0h61jFWdjjNxR+dRLiqQhrMtdGv+exzWo5AyNO293nJ17iBUK1qSHRxK3FVQbIxzyNX/f78hMbGEoNycT9+YKHToq8Pa3As1PuQQFIV5J/XkkVQx2fsPDm/uGlvtiZNzv7fivfpuCkE3O/tvyCRUR88e83tjUIZYtJf5uWHqrq+sZoexOSg+dH15nXknhr4sN/b7hGitlbtD5PQEvn0nsUJn3gu3/n4cnauqvzhcOhewrUtk+TWcZ26/8wZ94bFMngyqGUsMikXfFMi5ny1da3ZO/jCvaD80XxxVifzOeb9J1h0FYNPrjcl2sulo/G3bLpPTJyPD9MjEHiu3/2N3x0vTlErrtHHgRYo43hf8sIERJ9svpWouMUGb0zxOFgG7wCH3u7OnPmckIz3V0/ZOIKfPlmzuKnjuoQAAIAIH5CHAIkdbtIzdv1FBJiF1gsV3ztkn+k80GQpmj3pFtpc6m/Mq2QHwYY4/U1UKQLp45RqkwzA4zA95TuuYKFsPN1isppGV9pknyvHIc9e4a2nKdwmlc8mDLwQGu7xopwNjR9tFbNqmWNPKBU4FFSGM+JFadNTjzOgk2dIxEaeVKHRP+9N6JCsP8C64UZp6RJhjpCFWtv3CAD6/A+jklGpvsAdswVgy5yPAupKf1bLkS02KTv8LKrBBaz+oy4Vxb7b0RTVawZ6Xg9ykps18cvMfpi6qJ05rnOs67yb66qB/YrRus/ZiQ2JlIJAV9dpFjHdestn5LMvMvgdavtDDNufh/io/9W1vP/3YyCGnboxf+QHX+Y7irn8fNUvKPoiM80/UDB6MKTd8JFv9rLHqX2P4Sr304GlslNP9Fk1lhIKPw6ZHxbXzTdzq9g1i9KR59WEHDs7qctYJ0Ssornd3vJCJfHE+93tb1FWXsf6Rz7R6/GUsKH03Z/mdb9//kkK+Q+PLoyO+x3f/gZBb+id3sllXyN6jsuyHXZIUxK5WqKzS7/287mhAyboqe/yQO/knIqZlzwZpDxuKTXb0/I4ZHiv3fY1V/bbe65Vx4EUIqJ4whhPXZv+tb1cpcmXCHvu4kXDH+P6LaM52t+82dExdZs/KhzBclas6eQAACQAAI1ETALDIcbvNkbnGo6a2XPVkVYUHn9fItCJLrxMlEx3q1e1XxwLBDXJlvZpE25Bk0j3OUF04dC+4/hvhVIw/ukqY+wyLEKC3tuhJxlFaN7+zFZ14JsTfHuj1GYZxFTs3OEOzSzDQivrdf9GYm0jAWIQ1K4hclo23H8N3biNikeOyIFJznzjOMT/GwCOm2xPTn8ovbT7bw8ebuP2yetbq8wr1JcDMkdlAtTR0Yi/3Fw/2o+QHP2nVYPlo8PH1PBlOuXHQt8vMS+wl3X5cRfamY386tXY0Fx6Q5ScpHHy9lVGTb7Ny2i3Os4d179Ixhe6a9LZdI3p2V/Sj2p8S9u8n3rlDLkZgk3MEnXeaNmUlv076MtK2ksE4RyZmPSuzzXcG9gjmPGU/zL6TBz2YLP3W4ZITGPS3/UIw8Gk1KzuKDiuMfOr1j5dm2FbI367bn2gPvmacruFeCTVuk2FTi1eFMrNVtzn6ewyKvFW37Hdw4FkppzUcmChTmcJP/MGd2kHb4X3BkPpuVfuJ0F2l+c2qMpgYRv5u/uHPOualVwGzSPPNnSBgRhk1xXEU1YWAmz+CqJabVZrrNUvFOb1Z7ljrDJhnEmTlgieOSMyvgueaLHjWdBjSAABAAAgsnwCHEjPR7k11p/3XRj61Ixs66Tx3wnR2dcGJG+z3ptUlfXy68V3D1lVjCnDvikqaOkgvrDmtOFyqeZn1tMhPzHzspXH8LUmWG4QhSGY0wsUO+ZE/K3zd+/6PJ2IDn9EHfwMgipDGZtN51x8iGtsmRGNGmPa/OOGCJgZKIkK5wqUHX8bcCZyXEeAljXiHBdd2eaePa1jMoq4yeWgA8Q0cThwlDQ8g8oYImyo/y93n0XPkQp4zoJcI53azdhjJFZLD2V0Pt+8WRb+T4E0j6bEQKd3Q8O//XGdgB0bzqYb4wm2cQZ5h52mW5lSgfjZy9Z5IaYojBiZobofKlCva3wdDeyMjnk9xrbW2/mro7oUlVBdY2MHW9gLC2cxxaPeVAeddZNo+QHWODZbPlQ6tOpj/Hs7FyhVEOx1Ge5QpqM0IRip15GiDzZ4Pj6yeR4/eDPV/3cVMTUPuxm9rHJYjz4b0E6+qh1eer+rawFggAASDQAALmgaF0LvjC4+6e9Zlr1+RD1ydD12a7X+vYc4QnCBkx78lI+qYuaeUqQQwTUnCfGZj58WghOWCMMIM0hUGi5gkVQy6CBTXsU42oN2kgeaj5+e+7VmzI9K3Jt1yfDF2X6X6t8/XDjU9jImWxSQ60TB5wDFUvFxDTg2HOPrvSvCfD8iISVzSQm1V8PjQUtwi1NIXrhWYnKuxT0hUffmsJrrYNZtFkdniygWdkixTe+VzQw8qRTUXtOZsJkfrCk19GnrmRGYUdT3QG37OYmx/ipzbDutasIx0ZQVXHyHrKBFt7nPu2R2LJDOtTYyIYm1ciZrzIVA1jrp34ro+1ixnbTi0Q1v33XXb71KLMTsQhg+MTqNimEnSxcJnaaAnf58Xb8Fzmnq+GdwWGQAAIAIGJe+MNV7OmJMWB/eLAO8G2O87v3Ki2r5GcR315ghDhzr7n3NiVC9+Y5nmUP+wZrfsoaXC5LOr2q8kDnvTq5M6HmPg5O149vlW1Hf6Fu0DMNNSpNMK3R3beoLStzbuONOUam8bktLOnnu49tZBdgOTsI0kcCsrXbU9HXvKVvyBCxICKk0JxnqMdZlq28JyunXuvylkQQzdPUvAehkX6rCPrnAniTt7vUGMFZO/mRIxIziiadweq6/JqWhTzCGFidEjSDSp7Vpg8ss7pNbdQstmiKNeuc69WfYQGUe6Oxnrtoa+7Cl8cj94jtv9z+ZRJSuBlXe7Q0fFyXYANtWN6YOY9K0Q0T5OYZQvWlc5pae40yoreIevYPnEeQu9SNI0XEvOEIISYuDBxi+mMTXXB2c+lbskWfm531vu1phmG9S3Mg7c+UxNreY+avVPOMV+T/cwVVXcaEAgEgAAQQBzCWs9d529oZqQMXyghZ8j8SCtneXnqb5Qy6DuTzq9t0pBhGzgqTt7Jyanh66WWZsXfKZu3GPqzW+/U4zHbhRPuuKK2rc63NitNHSVT8mW33a2PR8Xh464Lg/yGjdmuve0vft/tFdhUkhGaFJssZAoYYbV75/nNoek0FAahUmYx0nDHLN8HWcAuYNhOvOlZeX/G0xu79/NJKcdgUXPwzr2Phc9N3d5qrItFviDZv9UVOmS58RKHhXAb0k4p0Wr3GUoR3djA8evsW0O2ko74cfnA8/Nf1scuftXnXe1J5OxgGYTy/UrWQIjoq5Jj98l6+WST9PWC+KtA+AmHJZUFDNfcVLd5n3Fm/yg6mm72vyNyhqF1FAstvPdlB0uQcW1y7OOa61thzynW+ffFyBejiVMdzScYJNs9+7mR+8fTw0H3MFK3JpKrCZq4AKfztiEmdXM696tmZ4IoNyXSvWhSmje1a9KxnbbmXwsonIvfV2T3tzlq/dLFbGssPt/sumls7M+R/5duMYaRW5O9nPtf7PUXZObBnRgugzCI2A2DR0xFOc6Zl34IR8zyauIfFxXv7KQr1kzubP+7K/TezBk2eGEM5bdnCkd8tgLR7ZgfM+/9nHO+JnzniKroFBYbRcCD2FVGlQK4Uf5Wn/cZJWvekQ4vIPABEOAQYVNDjqS95PXJLgapkm3kpOfQPufFv5C67fwAt2aLaox6BqafOiUW1u+Mhad6EamfAAAgAElEQVSvnNiUznVKJ2GdCVc8UVh3R/yiJKjhVenw9aw95tp/oPnMdaNb7o+S1/3nRhnWqbmaZK/CZQosIkxqyJFwTKchjJppuMw79ydejUsjNmQ5+T9lX8t7aTD40tPCppsyHWHV4SFKXhg548xMVWMTDtP3EEwb4qbNvB0bYwe0i0ynRYTk/uJxn7hiI+doYbmSIQ1OfrvEskmVpnK0FNG4cC/LKkaqv3Rqn24WJlh8qmvlLwy9LTP2ZcX3pRZn/V/ynOyTe7u1o5RK3BsfuV8zEMNGbY49AfNSiFuKP5oib7QHD5g7AXuouWV3ZOTRmP2rLc4s4/hJW4sRS/7nobjI8Id8zU85xnZMGDKu/9Pi+/fx+F+fG9dZ24Gm4E/J6O1Vxjd7Ff9Gk/2a+PBDsm5w4juhth87rFdnZm8/z5q0q+Wv2tKfSGYfGU04Cc7xtrea3fPEzC1jLfPl87H1Opn4F/GJ8wP/BuG8M/iVNm9Sy/xxJLFO123l8qI9cuZezGScwa+GPUk0J16EEC9FvzWWF826hKwZPrsTo0F/59ebrE9NneyuIi+D9/19i/ZIcuxvUwaDuXdaOr/jYl2U+SrHV42auW9X9AOLl0JglSH8WG6/FIfaYz9tu/Brpr57pGvvBLYEAtUJ4L6+vurK1FrszH/o4dFeDzv4fPfek9NlxZS8wHfGI627PbH6GtlW/vRlyMKZVzr2n5rf9hLTWMrPDQtEMs/mlZ9CnLe6ttzO6ocL+59R5zrjsaDHis/T/2UgTzz4/PRCnnp5GWQNKQABCoEbDTsUGRQ+IF01BKx3080alDO34+PJsFdxCEg+7+8/PX8pMMuicoWRdR56znlE0Fxug9EZKcvNeaScDm1EGkv5uWE68YY06vkUkve0fcHTkN7BBAgAgUUl8BiXfJddlNMM23T7f9T8i5o8mAOBeQnQigyMDZtHFTEXf9/3mz2+zFyfm+ftZNYGhsJla7hrbyJu8dKYlResAAJAAAgsKYF32eIiXsuo9b7qJR0ydLasCNCKDJL37n5s1g8xLDmexqaxeJ8bGgtmzk8h0pv5vW82ti9wAwJAAAgAASCwGARoRcZi9PeBey7u54bGDg8+hUzwJHzTX/Y2NZYtuAEBIAAEgMDiE5j55bfF7w96AAJAAAgAASAABJYJASgylslEwzCBABAAAkAACCw1ASgylpo49AcEgAAQAAJAYJkQgCJjmUw0DBMIAAEgAASAwFITWHY3ftYKmNEKD8Tiv1NQvAQVONePOlr3TbGiSLW6z9yu4YYz7WEJCAABIPABEHDkRr6ddf5xu3f6JxU/gCSgy0YQuISpLB84sV66Kx67Oy/7CRMXXb8MNu+xTT6zGRulO2PxXflSgDAx0fVCsHn3lSNdAluyJhn9mGx/vD3czyFRR9mpCgMhilS1Q9IXH/rrlDp9zkgX/F/rCpy9+GjzhRqi+ialanITK8Gwxh17KRkuZV+wAyz5DkCZ3kmJMimMVrg3nvydQilg4JTN8S+B4LMObt4fJ6EYUqT5E4UtgACNgHns1LaPjzyoOp8IB08y+g2J6B+MGLmu1nfN53vqt0RHHlacT4SbTzDGxuTYIxeMfHfrO1eGRBv3fBrxa7omut4UefMHRy5WGAghilTd1avpkiv03wP2ib8CBLPRixVGHYb1TUr13MprwbDGHXspGS5lX7ADLP0OgN6mzLApUSZFvXNs9KPE8722ltOssTIz/rnRMbmz4/l5fm6NYkiR5skSZCAwHwEGYTW3U2JfDYVec4gRHrUqRNPzd+U0jEzpwxKzOxR61ZRIi0I0I39Xzvyd1stfmm/k1XWuEPu7c4PfGzj77yViy43++PTp/3P69I9HczaEKFJ1r8m1epOOYjb7eUGIlP8b5tmJX0qrz7A+8pQMwbDGHXspGS5lX7ADfBA7wDwPwaFMCiJqh0pOef2/Evk4b3vX7ztBlDZtnh+zoxhSJMp+CBIQqI0AgwRZ7mTsR20YIX1TPHaDLfADD9tdknmEOKXUxdiPiKa0IRHbxgce93KdJVm4EqTaxl+5lWb3/21H5592dz3hwLIz9IUVKx5dseI/hcxfg6VIlS7WZaI3aSScHvnW2bPfHTz/tWhq/dSfg/oM65sUa0YVbTCscceu4GZdbDhDq3lFu+F9geEHsQOofMW8zlykTArC4rtOrlMqBMy6gvglqZN3/dr8K017UQwpEs0RNCBQEwEG2XWd4dhs+ce7H5GEJ4PeUzzH65odIbumcyyXRchZSHwmzz8V8p7kWE7XnVeCVNPwZ2+E2STHJTlOwogwbKrcTrLmj5sjijTbZ3oNtr3Y2vbNtvB/6+z4uxZvVE7+yYX42omfganLsL5JmU5ndgMMa9yxZ6ObXtNwhtPOsxsN7wsMP5AdQJw9tZY1lElBiDkc7Pghm/qryNi/Gxv+Slb4Tkfo0PQ9XxYTa5NiSJGsDtAGAnURmNg1CcKG9HBMGgkE3+DNAypBCCNEsPk/xig8NJ6PBkKv89hAmJBy/XzZS3XhWJSgvM1xRLSN8MJZh/d74cBZNXunVP+PzdU3KZSBgWGNO/ZSMlzKvmAH+CB2AMoMmxJlUhAioXzydyV0yuU4bRM0OfPJlDTvj61SDCnSPFmCDATmJ8CgAsdqunxbLLZZCDzu5Q1EvJqus2wBoRLLKrpya3z8RvNCiSn5dI2wnHQlSPOP/YPYgnBChCEeXZ/n5ObcudU3KXP71TnLYGgl0PBJsZpXtBveFxjW+JetYiKsiwtnyJas8bPaFEOsZj43Lg2G2h/ze95savlaV3A8P/ZoxrxVjvKiGFIkiiFIQKA2AgxSbeI5Q7qzYF4oGTdLaGV9QRsWbSpCWlnamed/FvKOXWlSbeNf6q2wrrQZTJxj57lNa+686puUuf3qnGUwtBJo+KRYzSvaDe8LDGv8o1cxEdbFhTPk6Xd+UgxZVekkwmlx8m+IzjmOCaSnpJjf+Zv7RTGkSHP7gQIEaiTAIMK5X3FxOsOwqtxVKuwcj35Ed77m4s2LJpzrZTenswyjyl1y4cPj0V2aY7ebN64EqUYAi70Z1vK/G0/fWCj1yPJ1UvoPRxLXCN6XnfNdQZ07rfomZW6/OmcZDK0EGj4pVvOKdsP7AsMa/7JVTIR1ceEMOfrHDIqhLoinmdKdidw1qu7W1WuzsXuKzFGHSH9OBsWQIlnH2NC2sS429L1z45sWdt2YEgWSdX4aTsNqvtA2GwgEmBGHI6vm70km78vkO7Hj2dbQG8LEuTdmzOFIq/ldZakH259rDb0uTBwgL3/JyqKD8A/oHoTQM1zuAqZ/iDDjSE8utQm7fukSZv0roEjWHifbGOm92fQ9mfSudGZ7QVXsTd9r9Z+cUWNUNaQkXB/5KrlNrQLDGnfsKWBV3hvOsEofU6sa3hcYLv0O0DnfX6S5J4WxHbEznbn0v0kkHkhnN6jse4GWH3nKT/SZ2kXK7xV/Q+Y2RBRphuNCF3glt0sWXvGIs64NkZZC5haVf9frHKNf5pnRJSUKJCuphtNAc0+ltd+qbdzX11dVuMpW3mjYfyy3I4Q+bbvwa6Z4+Y/uikv48kcKGQKBy4fAEvwDX4Iu5uF5Cc+inscZ5CUmcAlTOeNZlkucNnQHBIAAEAACQADx+bHvjeaqfq1XdbV+NuyWAdKVSgCKjCt15iBvIAAEgMBVQkBzNP+Xbv+My8hTIyMMp0y14f0KJABFxhU4aZAyEAACQOBqIkAY7sI8v71yNQ13WY0FioxlNd0wWCAABC4vAtt0+yIltHjOtSZccLd9xl3rxrDd5UzgEqZy2RUZH/w/vNr2pCslz9pGA1sBASBQncB/1Pxo/q+7VY+FtUDg8iew7IoM+Cd9+e+UkCEQAAJAAAhcHQSWXZFxdUwbjAIIAIErmsD7jPJp24WlGcL7DNw5uTSkoZcqBJbLczI8iF1lXJE3Fr3PKFlEf5hflXmFVUAACAABIAAEPnACy+VMRhbpV8QzuD7wHQISAAJAAAg0hsAlPMGpMQmAS6MIXMJUlosMrJfuisfuzst+wsRF1y+DzXtszMSj9bFRujMW35UvBQgTE10vBJt3fxASQsRfzN6dSt9RIK93dP9EvPgoWkqG9fGlGFIkSl+UKIoEhlYCFFAUyepQ0aZEUaQKE+siJYoiWR1qb1MMKRLFnxJFkcDQSoACiiJZHSralCiKVGFiXaREUSSrA7SBwMIJmL9dou2IDv+eYn+6JfSU1yEXU59KKxGP64L5YBT9Q2PDj8jiz1tCT3qdxVLyUyllxOMaXmrJ2BCL/GVCzjpspKTFPL7D3HSRQclw4TTMCIohRaL0RYmiSGBoJUABRZGsDhVtShRFqjCxLlKiKJLVofY2xZAiUfwpURQJDK0EKKAoktWhok2JokgVJtZFShRFsjosuH0JP3ix4L4gYFEJXMJUMgiruZ0S+2oo9JpDjPCoVSGanr8rp2FkSh+WmN2h0KumRFoUohn5u3LqEksIMcebwn/W0/W/mhyZmSApGc7csNYliiFForhToigSGFoJUEBRJKtDRZsSRZEqTKyLlCiKZHWovU0xpEgUf0oURQJDKwEKKIpkdahoU6IoUoWJdZESRZGsDtAGAnURYJAgy52M/agNI6RvisdusAV+4GG7SzKPEKeUuhj7EfPahL4hEdvGBx73cp0lWVhaCSGkcsKYefqEVDx3lpJhXTjqHDKlL0qGFAkMrQQooCiS1aGiTYmiSBUm1kVKFEWyOtTephhSJIo/JYoigaGVAAUURbI6VLQpURSpwsS6SImiSFYHaAOBuggwyK7rDMdmEXJL8Uck4cmg9xTP8bpmR8iu6RzLZRFyFhKfyfNPhbwnOZbTdefSStaBTV8mmVhJydAaVXubYkiRKP6UKIoEhlYCFFAUyepQ0aZEUaQKE+siJYoiWR1qb1MMKRLFnxJFkcDQSoACiiJZHSralCiKVGFiXaREUSSrA7SBQF0EJs4MEIQN6eGYNBIIvsFjghBBCCNEsPk/xig8NJ6PBkKv89hAmBDzltCllCgDo6RBiaJIFEOKBIZWAhRQFMnqUNGmRFGkChPrIiWKIlkdKtqUKIpUYVLjIsWQIlHMKVEUCQytBCigKJLVoaJNiaJIFSbWRUoURbI6QBsI1EWAQQWO1XT5tlhssxB43MsbiHg1XWfZAkIlllV05db4+I3mhRJT8ukaYTlpaSXKwCgZUqIoEsWQIoGhlQAFFEWyOlS0KVEUqcLEukiJokhWh4o2JYoiVZjUuEgxpEgUc0oURQJDKwEKKIpkdahoU6IoUoWJdZESRZGsDtAGAnURYJBqE88Z0p0F80LJuHmOQllf0IZFm4qQVpZ25vmfhbxjH5xEGRglQ0oURaIYUiQwtBKggKJIVoeKNiWKIlWYWBcpURTJ6lDRpkRRpAqTGhcphhSJYk6JokhgaCVAAUWRrA4VbUoURaowsS5SoiiS1QHaQKAuAgwinPsVF6czDKvKXaXCzvHoR3Tnay7evGjCuV52czrLMKrcJRc+PB7dpTl2u3ljaSXKwCgZUqIoEsWQIoGhlQAFFEWyOlS0KVEUqcLEukiJokhWh4o2JYoiVZjUuEgxpEgUc0oURQJDKwEKKIpkdahoU6IoUoWJdZESRZGsDg1tG+tiQ987N77JmO0KkpXJZULDmtJC2+ZzMpgRhyOr5u9JJu/L5Dux49nW0BvCxB2WzJjDkVbzu8pSD7Y/1xp6XZi4j2MpJcRL0e9Eoh9PS61E78ulP5pKbcSuN+0sQZQ0FspiYnuKIUWi9EWJokhgaCVAAUWRrA4VbUoURaowsS5SoiiS1aH2NsWQIlH8KVEUCQytBCigKJLVoaJNiaJIFSbWRUoURbI6LLg998MVSEshc4vKv+t1jlXczI9AsnK+TGiguafSmm3V9nL57ZKqg4eVQAAIAAEgsFgELuFZ1IuVEvjWR+ASprLiuRP19Q9RQAAIAAEgAASAABCoJABFRiURWAYCQAAIAAEgAAQaQgCKjIZgBBMgAASAABAAAkCgkgDck1FJBJaBABAAAkAACACBhhCAMxkNwQgmQAAIAAEgAASAQCUBKDIqicAyEAACQAAIAAEg0BACUGQ0BCOYAAEgAASAABAAApUEoMioJALLQAAIAAEgAASAQEMIWIoMd3bkByNZV0NswQQIAAEgAASAABBY7gQsRUaJZYoMK5eJWFYvd0IwfiAABIAAEAACQKAuAmwg4C89FBl+OF9q09Q2VQsWM58aT4ZFbz9f+Uz5ujqAICAABIAAEAACQGB5EjB/II0ddDrPCGhVNter6Bm3/2m/77c2rgQ1xvLcJWDUQAAIAAEgAAQaQ8C8LoIljlfl3DrW/80Af21elgUhBddLGsMXXIAAEAACQAAILFsCE8UEUdYU0dsBb7838BYqrpeNZcsDBg4EgAAQAAJAAAg0iAA8VrxBIMEGCAABIAAEgAAQmEkALovM5AFLQAAIAAEgAASAQIMIQJHRIJBgAwSAABAAAkAACMwkAEXGTB6wBASAABAAAkAACDSIABQZDQIJNkAACAABIAAEgMBMAlBkzOQBS0AACAABIAAEgECDCECR0SCQYAMEgAAQAAJAAAjMJABFxkwesAQEgAAQAAJAAAg0iAAUGQ0CCTZAAAgAASAABIDATAJQZMzkAUtAAAgAASAABIBAgwhAkdEgkGADBIAAEAACQAAIzCQARcZMHrAEBIAAEAACQAAINIgAFBkNAgk2QAAIAAEgAASAwEwCUGTM5AFLQAAIAAEgAASAQIMIcA3yuepsGK3wQCz+OwXFS1CBc/2oo3XfFCuKRMFAiaJIYGglQAFFkawOFW1KFEWqMLEuUqIoktWh9jbFkCJR/ClRFAkMrQQooCiS1aGiTYmiSBUm1kVKFEWyOtTeduRGvp11/nG7N1V7DGx5WRK4hKksHzixXrorHrs7L/sJExddvww277ExpDxUbJTujMV35UsBwsRE1wvB5t2LJk2xNfoSw19LKkdaVv4/nskzLfWlMWVYxztZk4x+TLY/3h7u55Coo+xUhYEQRaJ0RImiSGBoJUABRZGsDhVtShRFqjCxLlKiKJLVofY2xZAiUfwpURQJDK0EKKAoktWhok2JokgVJtZFShRFsjpAGwgsiIB57NS2j488qDqfCAdPMvoNiegfjBi5rtZ3WYSQfkt05GHF+US4+QRjbEyOPXLByHe3vrMo0mTezkLiczl8/uJBve40FgSiYmPi13RNdL0p8ipCaEYyFKnCxLpIiaJIVoeKNiWKIlWYWBcpURTJ6lDRpkRRpAoT6yIliiJZHSralCiKVGFiXaREUSSrQ+1tiiFFovhToigSGFoJUEBRJKtDRZsSRZEqTKyLlCiKZHWANhBYEAHcd21P6q+Hsic6un4qYqxLnzs/drNOzjT3/Dcfh9T0Xwylz7Z3/9huSp+NjG3XyGBz91/7+IZLkydO9PznIwkl2KzERlv8k2cycF1pTBguCIZZThRifzOeb9J1h0HMUqr8Ul2tnw279bkleWrL2e9gCAzn2qMou83sHWl6DexRsEfVsUc1fLeZ3iEpjUs4x05xBekDIHAJU4n71obHvjvO/L8rQoexfkM08ke676dc6lNG6NFWJ5HGvhvFj61o6cf6xvHIf1B9PxHSv6c3P9rqMhotlf/gareORu7lW/8igD557kIwMFlk8HX1Vd9fcER0v04QMm6Knv8kDv5JyKkhhDCbYjGhSJRJp0RRJDC0EqCAokhWh4o2JYoiVZhYFylRFMnqUHubYkiRKP6UKIoEhlYCFFAUyepQ0aZEUaQKE+siJYoiWR0W3r6EI9PCO4OIxSRwCVPJIbuuMxyfRcgtxR+RhCc7vafyOb6g2REims6xYhYhZyHxmTz/VKf3ZD7HKboTIa3RkoxIWzr6kOb5Rqu9iIrYwsteV191FhmYTZoXRwwJI8KwKY4zL5dMvCjS1CZV3ilRFKmK0dQqShRFmoqu8k6JokhVjKZWUaIo0lR0lXdKFEWqYjS1ihJFkaaiq7xToihSFaMaVlEMKRLFmBJFkcDQSoACiiJZHSralCiKVGFiXaREUSSrA7SBQD0EJm6sJAgb0sMxaSQQfIPHBCGCEEaIYPN/jFF4aDwfDYRe57GBMCHmhYiGS7yc+qMUeTHkH7DWF+Uh1ddXPTQgBggAASAABIAAEGgYAQ4VOFbT5dtiuc1C4Kte3kDEq+k6yxYQIiyr6Mqt8fyNfOBrZcmna4TlJISMBkvkmmy2V9NWRAY+UR4bSwgaP/ujhPfveoIn6+qrYYjACAgAASAABIAAEKiHAIdUm3jOiN1ZcP5Dp3fcPEehrC9ow16beZnAlMZ35h0/6PKOTUtuUyINlvBZf/v/5Z2+WbP0wPB4U1PH9118AiOtrr7qoQExQAAIAAEgAASAQMMIMIhw7ldcnM4wrCp3lQo7x6Mf0Z2vuXjzognnetnN6SzDqHKXXPjweHSX5tjt5o1FkBSWHxGEyf94XsKoxAojPCvX21fDEIEREAACQAAINJKAsS429L1z45uM2aYgWZlcJjSsKS20bd7kyP4m1PbDeOzescjvGzhhcz3ZFnx78skQ7MFg2+Px2H1jkU8bOGVz/qwt+OZiSZTU60uDYggSEAACQAAIfIAELj4jYFYSIFmRXCY0rCktqI37+voWFAAbAwEgAASAABCYn8AlfO9xfnPYYikJXMJUwg+kLeVEQV9AAAgAASAABJYRASgyltFkw1CBABAAAkAACCwlASgylpI29AUEgAAQAAJAYBkRgHsyltFkw1CBABAAAkAACCwlATiTsZS0oS8gAASAABAAAsuIABQZy2iyYahAAAgAASAABJaSABQZS0kb+gICQAAIAAEgsIwIQJGxjCYbhgoEgAAQAAJAYCkJWIoMd3bkByNZ11L2Dn0BASAABIAAEAACVy0BS5FRYpkiY/5WCELIsvqqHToMDAgAASAABIAAEFhMAmwg4C89FBl+OF9q09Q2VQsWM58aT4ZFbz+PF7Nj8AYCQAAIAAEgAASubgJsIBBgB53OMwJalc31KnrG7X/a7/utjStBjXF1Tz2MDggAASAABIDA4hIwr4tgieNVObeO9X8zwF+bl2VBSMH1ksXlDu5AAAgAASAABK56AhPFBFHWFNHbAW+/N/AWKq6Xjat+3DBAIAAEgAAQAAJAYJEJwGPFFxkw2AMBIAAEgAAQWK4E4LLIcp15GDcQAAJAAAgAgUUmAEXGIgMGeyAABIAAEAACy5UAFBnLdeZh3EAACAABIAAEFpkAFBmLDBjsgQAQAAJAAAgsVwJQZCzXmYdxAwEgAASAABBYZAJQZCwyYLAHAkAACAABILBcCUCRsVxnHsYNBIAAEAACQGCRCUCRsciAwR4IAAEgAASAwHIlAEXGcp15GDcQAAJAAAgAgUUmAEXGIgMGeyAABIAAEAACy5UAFBnLdeZh3EAACAABIAAEFpkAFBmLDBjsgQAQAAJAAAgsVwJQZCzXmYdxAwEgAASAABBYZAJQZCwyYLAHAkAACAABILBcCXDmwLFeuiseuzsv+wkTF12/DDbvsTGkjAQbpTtj8V35UoAwMdH1QrB596VJCBF/MXt3Kn1Hgbze0f0TEU+jX4S+pr2hAQSAABAAAkAACCwxATYQCGg7osO/p9ifbgk95XXIxdSn0krE47pgnuTQPzQ2/Igs/rwl9KTXWSwlP5VSRjyu4folY0Ms8pcJOeuwkZIW8/gOc9NFRsP7WmKU0B0QAAJAAAgAASBgJcAgrOZ2SuyrodBrDjHCo1aFaHr+rpyGkSl9WGJ2h0KvmhJpUYhm5O/KqXVLCDHHm8J/1tP1v5ocGWsai9LXzA5gCQgAASAABIAAEFhSAgwSZLmTsR+1YYT0TfHYDbbADzxsd0nmEeKUUhdjP2Je0dA3JGLb+MDjXq6zJAv1SgghlRPGzBMhpOJukMXoa0lJQmdAAAgAASAABIDADAIMsus6w7FZhNxS/BFJeDLoPcVzvK7ZEbJrOsdyWYSchcRn8vxTIe9JjuV03VmvZO16+jLJxMpF7cvaL7SBABAAAkAACACBJSEwcT6BIGxID8ekkUDwDR4ThAhCGCGCzf8xRuGh8Xw0EHqdxwbChJi3hNYnUYZUnyElitIXSEAACAABIAAEgMDiE2BQgWM1Xb4tFtssBB738gYiXk3XWbaAUIllFV25NT5+o3mhxJR8ukZYTqpXooxnKfuipAESEAACQAAIAAEg0CACDFJt4jlDurNgXigZN89RKOsL2rBoUxHSytLOPP+zkHesERIl6aXsi5IGSEAACAABIAAEgECDCDCIcO5XXJzOMKwqd5UKO8ejH9Gdr7l486IJ53rZzeksw6hyl1z48Hh0l+bY7eaNeiVK0kvZFyUNkIAAEAACQAAIAIEGEcB9fX0IG/Id8di9+VKzgRM214vB4Cvi9MO45NvjsfvypaCBUzbni8HgSyI79ZyueiRein5rLC8iwhkEYUbDaNDf+fUmwUBmGo3tq0GMwAYIAAEgAASAABCog0C5yKgjDkKAABAAAkAACAABIEAlUPG0Cuq2IAIBIAAEgAAQAAJAoGYCUGTUjAo2BAJAAAgAASAABBZCAIqMhdCCbYEAEAACQAAIAIGaCUCRUTMq2BAIAAEgAASAABBYCAEoMhZCC7YFAkAACAABIAAEaiYARUbNqGBDIAAEgAAQAAJAYCEEoMhYCC3YFggAASAABIAAEKiZABQZNaOCDYEAEAACQAAIAIGFEOAWsrF1W9Jy+9C/3qxO/GC7Mdr87E+bshNPAp3aSuwd/8hHsraEf/eT/rg+tbbB75dJGg0e1aXaubIjf1Py/XHIoV2qE8QDASAABIAAEKibQN1FBk4fD/xWLQV7ct2t1SsIe7DkthEmWPLyyFJkEE9fauOWbFtI4zQuNeQ5/FZTJD1Rq8HNi4MAAAoaSURBVNQxirrTmKMvrK55cGhr+2S5ZChsLuo89Xbz8eHJZ6kzjmLfjam+a0o+j8FobHbUefSN4Jl4jflzXO+jznZBPfZYIS5PZoA7xW2fsZG38795XZ9Zpc2RInW1KGcfjKduKqleUviuxA85mn4Y8kRqTI/qDCIQAAJAAAgAgQUSqLvIQHLUfSzqFjNKZ2uh6kEs9dvW3emSkHacL00nRQLbLtz5ITXV7397n63EKj03x29/UH7rifDZ3PQ2C2vUlcb8XZQSYraEeI/i68xufUDT/7H9RAZhb27HJ6MrPATpbD7FG6LmadFJ9dFX64LrFUI+VHpXSU5VGAghPsTaMLqIqFpgretI8cHR8TWOlm/bs59T3N/0Mis1LlV1cmp1hO2AABAAAkAACNRNoFxk2ORrd8RX9ZY8dmLIXD4hXjjsf+99wXVj5L4dJZxsevGHzXHzB8zUNQ8NbW1D6V93/vM+mzFnn6TnvoHbrp06GTAe+OWP/anyEhNK3XKLnNzb+dpBwcAIEzE2ynG/P7L5psL51xyaIPftiK/uLXkcxJDZfMI+cqTp4HFbw9OYM/GLAjOyr+PNMxhxpS2fHl4bKHZ06icyqOfWWI+HKBf8e57zj5m1BREchla4GEbWxM5/SbJ/uyt0YPbNLpgJbuYEog8e1CbYiavEvg/xnlaGQcix3fWvtptGykHpVy+QnkddHRl5sMB3X4dLB4uDknDtDhadKx36JwXvcG25jYk/X0h32DpWcTbGyB2VT72kSBrCutyl8e95XINKztC483bH2Yu5QQsIAAEgAASAwBITYBAirdtHbt5Y8HFc4oKYlpCzTfLbGAOhzFHviIyYpvzKNrNGwB6pq4Ug3XbmGKXCMPPPDHhPve8aiU9eYpgaEmlZn2mSPP3HUe+uoYf/8+lPf2Hwnm1oaICz90gBhrRsH71lU8HHT6SBnW35wKKkMZVOLe+swZUHYegYiYWVK3VM+NN7JyoME4lSYGcUWwQjHaEZq6a6wQE+vALr55RobHIVtmGsGHLRXNTTempQSw1qmRiZKM+YFUKr3ZAJdm21915DZAXbVgp+XzkW4+A9zp4wyZzWSojxbrKvvo01Z5K1HxO0WxOJ7bI+u8iZSgTegQAQAAJAAAgsDQEOIeJw6xih4lDTWy97sirCgs7r5UOr5DpxMtGxXu1eVTww7BBX5ptZpA15BlP03HDqWHD/McSvGnlwl3TxZD2jtLTrSsRRWjW+sxefeSXE3hzr9hiFcRY5NTtDsEsz04j43n7Rm5lIw1iENOi5T6pG247hu7cRsUnx2BEpOM+dZxif4mER0m2J2MUxVZjh483df9hcsXJy0b1JcDMkdlAtTZ7jQcX+4uF+1PyAZ+06LB8tHp6+J4NhzRhdi/y8xH7C3ddlRF8q5rdza1djwTHpRpLy0cdLGRXZNju37eIca3j3Hj1j2J5pb8slkndnZT+K/Slx727yvSswUx1WTwzWAgEgAASAABBYHAIcQsxIvzfZlfZfF/3YimTsrPvUAd/Z0YnemNF+T3pt0teXC+8VXH0lljDnjrik+g5aWHO6UPE062uTmZj/2Enh+luQKjMMR5DKaISJHfIle1L+vvH7H03GBjynD/oGRhYhjUmOetcdIxvKZ2gQQka0ac+r7vIphUlZDJREhHSFSw26jr8VOCshxksY8woJruv2TBvXtp5BWWX01ALgGToqlxvI0BAiCGE0UX6YGY/qOdXMVRnRS4Rzulm7DWWKyGDtr4ba94sj38jxJ5D02YgU7uh41jZnWTQ5XHgDAkAACAABINB4AuY9GaVzwRced/esz1y7Jh+6Phm6Ntv9WseeIzxByIh5T0bSN3VJK1cJYpiQgvvMwMRxr55UMEaYQZrCIFHzhIohF8GCGvapRtSbNJA81Pz8910rNmT61uRbrk+Grst0v9b5+uHGpzGRutgkB1omj/iGqpcLiOlBMWefXWnek2F5EYkrGsjNKj4fGopbhFqawvVCsxMV9inpcmVQSwh9G8yiyezwZAPPyBYpvPO5oIeVI5uK2nM2EyK8gAAQAAJAAAgsLQEOIcPVrClJcWC/OPBOsO2O8zs3qu1rJOdRX54gRLiz7zk3duXCN6Z5HuUPe0brPkoaXC6Luv1q8oAnvTq58yEmfs6OV49vVW2Hf+EuEDMNdSqN8O2RnTcobWvzriNNucamMcmXPfV076mFsCY5+0gSh4LyddvTkZd85S+IEDGg4qRQnOcQjpmWLTyna+feq3IWxNDNkxS8h2GRXvtjLXAn73eosQKyd3MiRiRnFM0vqKjr8mpaFPMIYWJ0SNINKntWqLg1ZiGDhm2BABAAAkAACNRPgENY67nr/A3NjJThCyXkDJnP15KzvDx14FQGfWfS+bVNGjJsA0fFyWdicGr4eqmlWfF3yuYthv7s1jv1eMx24YQ7rqhtq/OtzUpTR8mUfNltd+vjUXH4uOvCIL9hY7Zrb/uL33d7BTaVZIQmxSYLmQJGWO3eeX5zaDoNhUGolFmMNNwxy/dBFkDOsJ1407Py/oynN3bv55NSjsGi5uCdex8Ln5t6UIixLhb5gmT/VlfokOXGSxwWwm1IO6VE01W6kyK6sYHj19m3hmwlHfHj8oHnq945OiMWu/hVn3e1J5Gzw7zlM9+vZA2EiL4qOXafrJdPNklfL4i/CoSfcFhSmeEBC0AACAABIAAEFpUAhwibGnIk7SWvT3YxSJVsIyc9h/Y5L56w0G3nB7g1W1Rj1DMw/dQpsbB+Zyw8feXEpnSuUzoJ60y44onCujviFyVBDa9Kh69n7THX/gPNZ64b3XJ/lLzuPzfKsE7N1SR7FS5TYBFhUkOOhGM6DWHUTMOlTI++cWnEhmZeWZjuYr5GaTD40tPCppsyHWHV4SFKXhg548xMVWMT0WTWIR03bebt2Bg7oF1kaulJ7i8e94krNnKOFpYrGdLg5LdLLJtUaSpHSxGNC/eyrGKk+kun9ulmYYLFp7pW/sLQ2zJjX1Z8X2pxWp7HUcUEVgEBIAAEgAAQWEwCuK+vj+6PnfkPPTza62EHn+/ee3K6rKAHzakyHmnd7YnV18i28sHYkIUzr3TsPzW/bWPTmDO/y19w3uracjurHy7sf0ad64wHPFb88p9HyBAIAAEgsAwIUJ/46czt+Hgy7FUcApLP+/tPz18KzEvMyDoPPec8Imgut8HojJTl5jxSTnstQhrT3ldnI+9p+4Ln6hwajAoIAAEgAASuHAK0IgNjw+ZRRczF3/f9Zo8vM9fn5oWP1lC4bKLWsMVLo9YMYDsgAASAABAAAkBg4QTmv1yycE+IAAJAAAgAASAABIAAmnWbIjABAkAACAABIAAEgEAjCECR0QiK4AEEgAAQAAJAAAjMIsDY7fZZK2EFEAACQAAIAAEgAAQulQDT3DzHD3pdqjPEAwEgAASAABAAAsuawP8PS3tAlCxai1QAAAAASUVORK5CYII=;" vertex="1" parent="1">
          <mxGeometry x="40" y="480" width="716" height="265" as="geometry" />
        </mxCell>
        <mxCell id="V_HjX4hnAaI_aaEMFoxw-3" value="inode bitmap:&lt;br&gt;1) inode id =15 116已使用；&lt;br&gt;2）对应下图中红色框中的内容，计算方式为：&lt;br&gt;14（offset）*8（bit） + 4 （bit）= 116" style="rounded=0;whiteSpace=wrap;html=1;" vertex="1" parent="1">
          <mxGeometry x="40" y="400" width="640" height="60" as="geometry" />
        </mxCell>
        <mxCell id="V_HjX4hnAaI_aaEMFoxw-4" value="" style="shape=image;verticalLabelPosition=bottom;labelBackgroundColor=#ffffff;verticalAlign=top;aspect=fixed;imageAspect=0;image=data:image/png,iVBORw0KGgoAAAANSUhEUgAAAs4AAAI5CAIAAAA+GSvaAAAgAElEQVR4AeydCZgkRZ3oI/KuzKz77Orq7jmBmWFgwAG55ZgBkRu5VRTFBXn7dl19D10P1kUfKuI+V1lwFcEDPFA5FBhAjscpgsAwDOMwV09P91TXfWdW3vG+rO7qruquyj5mBmYw6ptvOjKOf/zjF5ER/4yIzIBLly4WQ4ZWYDQLAGjFT9u1dpWORsL3/cZXQwAAwCxJXXheFVUp2mPUX0088LTLtL3Hf9zK3RefIcPR0AO/9Fca8ZshgF6WvOwsCWaCf/xFoIgAgOrhHxs+tBS971Vt7UWFAEXkdrLCgrpLZzfcl3htBIghQy8wakONnlOG1x6pgWTo/l/5q3tXjQn9OjqgvuKyoaN64Y4HFj27DbZFIdRVHxteFUbytvAT63wFFQCAuKAOC0y9veBtqewLSPR90r04Zmz7L2mkNDU0cJ5n5SpobJD/cr9ujAUS5KLrxH6vvuk7Cn25e2m/ueM2Sf6A+9BD0chPq6MLxNWnkKCmb7pdzsqAP1ZcvZaEFe2N79dLlr6yppc4rianbqx7vivUr03XdvQM/IgnpuaKrzEBTAATwAQwgXeIAAWgseCMXUeGCKlMywoQIjoEQK3QanP41AZ920q1Q/0GsNjtG7lxO4PSew6RoiEt0Kfaw1igctTpZi7L7t7szml6fHktFtL8CcUO8lWO/pCZSXMjm8Tdg/Thqyr9z/Q+8hO3lyGLBYLxa6zKlGUIoD6wdtf7IhNqaAQASnlfqOHOyvOCa7Gbn/UsOr/sWZI95zMFqUpAzuBp4Zkf9OxsGl/WyuzwP0muW/sjb7QM7rCH6YkDY4uWnmZnAACkYdM6nKJXuo6KsIoJ6Iz66kPWjApCkV72GbG3AIQESQBQW69VLACQuayQOlc1STu9dKPMvRTsuQfbGTPSxBEwAUwAE8AE9iEBCiCyOMQXXIrXp4oE0CU2+bbnjecEfSJTk921nVqxWrdGPdtzzQd9Tj5sbbanMaTZEVmtb6XWh0ghL+by8srTcpNBjN6zrNRzCOnKii++Gtp28Ojq89PoycDOUYIUDNGvejWqLJMAEcUhPs9PqMGM2mqI2j5QIzvULMWE8Nk5lMHwut8xRxxTTvTovAdpNSa5TSg3bbIxGajFxhjzgf730S5opV41Jpm25Keur2/ycQtXUXyUpBRLGkTtAluitji1jcqwQfUsIUnNKq5Xtjxn2uYJ5O7tX3SfZcbLqes13+ejgj31gn+YACaACWACmMC7SQAuXbrUOX8o1I6/YnSJhxx8aOCZtyeMC+dEXUMJj7TylPzyxSrbGJItldn2WOLFLTOL3btqdNVv/w8QTrIXUMwN8ov3691mP8RK8ibF97kIP74is/+XCmuICWACmAAm8J4lQDmVTKieeFGhx6vxDFB3BdZvndkgcJLWCLMqwhsPCm8yhui2CJOQKlTX8XJC1j5QY0L2e9NR88T/yfPeLBouFSaACWACmMCBRsDJ1IDQYj06B6nc33yvPOUrd3uGnnuZLY2q5GebbN+pMVsNcDxMABPABDABTAATmC+BmRdQ5isZp8MEMAFMABPABDABTABM28SImWACmAAmgAlgApgAJrD3CGBTY++xxJIwAUwAE8AEMAFMYBoBbGpMQ4I9MAFMABPABDABTGDvEcCmxt5jiSVhApgAJoAJYAKYwDQC2NSYhgR7YAKYACaACWACmMDeI0AGg8F5SUPRU4Yuuih7xHGFVccVDltIDG50Tfk0Jbckc85HRlctAalNLnk2X8Ccjx77iRrzUX0fphEryVvK5J8Eeu+9nzyTtki9ZNfOj1ji0y5y79S1g0CHoA5qooWFkVtGpZroHpz2YRjCkD+cHv3HTPaKQuHMilYSxV17xfiem4YdlN47Xi1qAL3474OZiOB9i5rnt3K7qTQ/ht1Tdaovq/r57bv+OV+4qFC4qCgBwbNpb5eiW+n2qT/cZ5WyT9XeM+Hmmt07vqBwj3btnTo1gD3LEqfeDwg4fVfDUT1Y2hT8q66EF1QHYs0jQNoTuMKKm0VEWPHSIDcZBXmWFletrsQjBmVQxSHPhuf9w6V5937zVqNd14mr8ePWxkdLSyOraWHLC6FNI+MDKMHXl76/uHSx4vNYhEFWRoWNT4e3TXyvfUJOZwdFLblO6GX0t34g55qGGezjjr6KRS/UXnnS3PNBmlMrl+WKxyi6F8k/lOgh3v/TiGd43ng7F+PA8oUKSacYstrBhkArCukLVNedvT3rKcCZoDKH28E6Ij10nRX6XI+7us95vJN5zbUw82PokKpTfRHu/1giEggQWuGmYWkuKqJAvfKhYuk0GT2ZGLibm+2dAI3SV4ak5xf0Pj3NPHXIfX6pHATuQZC1ND/y1YL2ZnTRdzzjTR9ayunZ3Fk1JYiILCc+HA49wRJjfQ6rVS/OFY+vayIg0py4Lhh6ihsPAgCIauX8QvmouhY0kcn4v94fnHIU5R7oOT1ppwYwPdZsfbo2gO40kK9eOb9ol9eHiDwnrAuFHuXGBgC0NDf070V9oi8xmcBX+4M7ZtusZqv0HsabVzvsCmoPlWkmn0Pf2kwy/ldNu99Ku7my1heTO5Iu/jX2RElhSvwuZSIpCh69+/Tj9eL6wAvPsQqpLTg2d8pl6vP39OyYb389LzUm9OnqUPJcRQG0R/P1VY660DB/1ru5DKC3euKl6YUeBEyyVqQtzvBETdS59J0kU0uYiA8oL2uNY2HHY9ARkoVgElGnhLP1Q/XLRjMr+Oh/uSrXaO7/8BKLDKrYsXJmK/G9EG/UG/uKt2NBUMAwDU58lqPt42nmci9AUzpVAn+JCfNttx316ez5TubVWQMn3/kxdErVsb4QgOacW7J1eHb4s1W43sOOynO7wwhdD8/d8J9fKie68w0T5Pw1VbirrUmbx6WTV2jCPT2hzYS1qpD6xG6rNhD7MwmgWbt6d2YBH/pBn5ABxrJy9spkyuqPP91ILsjZG0ZrZW/gLr8rSREEAuU5V8TcitGxAcxNxHhshwbQlQZA6hm5UtTlu9PP5aFxaDF7RTJTHuh5sWF0eg1TEiP/Jzh+vjmCZHof05hHwefeDh1AzSP/jkkajYlVDzoxt2yJ4nEhS6VqeW73hsDrf2PE9w+fe6ICC/5HfhrK2We76ysuHzoqDkp/6fvDc2z3uXm04NztJx/UnBiYOEQeACJSPO44tfBM359eYywIIOKyoxT18eT7jpF3/Yk3GHXpibnlSxQPjyyVrOVdyTf9r21i97oaHUG0exLJ5xL2IfKUsvpjI4cG64k+c3MZLDgpu8CDtN2Bpx4MpGwLAzG8ZbScE4tWZHd9XnL9V3/k1Qm7d0IwJMLvoxhkDr5mjLHjlnFLj6c9MYIAgD9B/MAJdlTtNemlh9GC68REWR2U6YGDofJafVBiDjqRBDuVN36lwRPF1ScTuYfkUoJNLKNYwqpuVLes0yQDQFPtN+jXPeKgVrUMapeL3zGRu6MDWsqaXO7MmhqxkEIyOwX/jyLuDACkkr95RHq+v/9+ppEeKZfvGlnp7v9KgLEAYNXKRxozKByk3/J6sy23HGnIZ+ULp0pqEMEcKzwZDD7iorq3mHHlHAQ6BHUtGVIuHR45X0W2XtD1s4HEOno8LiVnb8rU/KbJW4gEo79o2Au6GLu6x92cbOoqdSwgXC2vJD03uiar2UlDSzu2kD+nKidMINOu54Ohe0VGA6CnOHxzif3Wgshb4+jQiuzOLyreL/QFki35T8+rW33ZBx92rxSbglL6n5nSkappUtyLgcg9HmbG8naryvkxdErVvb5aYHRydsELALHJ3/OvQSaNKteXZmtqRMqjX8rLQdOiAbhmx9Zr7MbDPJjo/xUHaa34peFiPdx3i8demoRG9bPDmYA38fUA6+ueqpPGrX5dK8WhllvTT3dDs/bxjLw5HNKyo9FmMNSrayTiid7I4y4ITekMDRlW7Yyq/pKP5urV1Ui8NeLdZLdD6rlwD6cNnVlWnw2yJlI/mKvUgn3f8jGTM9NNmQ5/Z6k8pVc+O5INiz3fCPPV7g0A6sWv7ZLfiLgWFitLDZMk2JcC4bs97Eytt2sDcKCBIPebvoFm0dihkL56qLBcRS/yEADTb4Ksy7WLsTvAufyshZX8RaXawZrJQSLFee6Jhl5vDL7d7i+HvhfZNOovx1wLipVlmiEAarM39OOgUADAofU6atsVlGOqOQVSAKDYCcljVxlAYbK7SegyvHEp8HbIAqC80Zs8Wunz1xbFg7kRCD1SfxQBk9v2loOdYede3u7dYhpiuN4Tam2eKHpY2S95HtsElpw1tPpgjTKowmvR17ZTSxdLQcIFThg97gi9RY1acEtwH6gxFz6kRdkTZ9AyIeCkRYtMiOitz4zZGXYfpMnt86sIAhOAjq0QBumehdDcqaWz4xpAFkLNUusELQKzZFaKtnVmZMdPdiUWMrEdpooo8SjXkmFD1aBnERPwaUU7Xxg+W/Cl9fxWw3Mw5T3CtbxuvvqEaZGut5j82ny+wJiTY+DM5UUDxcyVMnNXPPoGBThDX2BSdi7OP0v+WDJzNO2/vc87CPVjcukrNDAylgQpH06OriF9P0zEthHWknL22mSS7+2713n62kGgQ5CDkpD7Tf+S3yLLI2W/nWo7VddwBb6V8ANgHZPedSkM/++IYJ9LB0kNAErO/CBZ9rY90ULJ03NdtOWwY6SeXFaHPNHBCevKSUPjhPTuT+rCz3r619MwJBWuTSdpov8unki53VsKxePq6C27FwMA1Y+pmVv97tHWQk3PC3SvLyc1bDt2TaH+u2jvL1gYq+b+MZMkqf47+Ml58tZsx93dq3KeDLuTB93rq4Nik15d8QIAdIpJAQDN6ectT6af4sq7IzcKiKrnvpk27u+LNZ5lYZ20K0hn/LeH61/Pps/getfRxpp0dhkTusHPagA4pJoif9plt0rpWsszNVHjxEx2oRi7gQeXtjRjSlP6CdeD9j1oHp7PHk0H7xRKVyoqA2jCQgQk6pOakRkaxlSVA2xdk47SXc/T8qdHRg/VLZ3iXvYHf98wlCejd3B1Vb41LjSkTyazCT56Y5i3rX3nBoDk84rsd+MD36WAT85fP5q8khy4QyBIxxu2WwNwoDHFfCEsUwRkdayfR6bfQD2l5K0li4DUbt79YNC3YRbbhiLl1Jey2pZA+BaBqQJzQDGz4wLn1VXafYV8SY66Ld5/Gw0FJf+lkfTH2AXfFwmHdujcbLqBaq2vPXPbpgbvtqcm60P+5x/1VHQAGZM2GytTkrj57XziMH1gWf3VEZ5bVAuRwBjyDM4wDsHiW+EX3wL0suRlZ0kTnTEgtGivqQ3zyrLM2iVw22MR8tjsgMeSMyQQDBeBoGjYagz7XnjEWx5Tw9oHasyKlxU/ceRDRyPOr3lcAMnCzl0E4dM8JAAmm299fG+XBjeFBj4davdrXrmPYNwEyr6mK837v76+vmE9CF3oOXQlVDfWN0zs1SAazdA0hn+vkJe4l/Zb6XX12gnUocshw4+LQwV1451KWQfs+4Sjz6L4FbT7KbNssff3xqv5wocqagBkv4DcT/h9LzOOY0lDHgEQgGSWpvMkABS9u6mzw19Wrhxrsg/2Bl+3Jzyox8L+1VJ2TDtWLq/R2PsGgq81ZhFeC0burw9dWJL+EBMdHi0dBXbNy0HDsSALEjUCTjX+IFmwHyksCQJEkEWKmrBETC7w9X5fuwEJLIJqPSOXrZdPMlz3euhmTQIH5Um1fJ5EPtQffoax74WyJ3SfNHh1Rf4lL6qU+3lX/tKq/AteUABg67XVFv9bcVKsPUsxLS8AQLf6clBjjMYWf+QPPIUAKPnCD0o7ryhLd/PuljFmKk6nqpwfw+6pnOprql6T1054J2OByW6oxbOj0yTIAgEou81AiaIK7U0h44neUR++Ll2QhPplGn9HnzfVEO2cqmNGE57dKqVbLTs2URQvpS83PLfEXHVQby21yzApkqsAIMj5q2r0vX3et2tVSjMFAEouftAqnlHxDnqZOrBiUuGCmkUwlgsAQ1djSFlTov4YiD1Aw6Bc+FQ6KcL+O4QZepVuyo+V2p4TsuqXjqZWMeGvR8TCBAsAOt+wdgRigz8wNq6X+MDDfPnqinS34FZmccPaZkxLFgAABxrtpoZxbKESYn0vsA0BkH0kFv8bIvMk5PT6mlzuf+82vt0X3uj8YIfUD5Rl3d1za0AYu9d2s+PaONxfEz1Su+KTV1t8gZdpiACoce5XmOJJikaInEM7dGw2k2KngJoM2FMXBQCRXO8t9JcCB6cvWFjI7nBvedW3Y/y5ihhd7ykdWvAtrfY8w4hLFRIRO98UpYkedk65Q0MQQX0r6YurRDbw1tvMIccBXSUICgGdMBCRfcNXWFAMLM2cf10hu92z9TXf9vFp5L2qxrjOZv9pycPj4yWx0v6nHm/rcrmgwgFgalRxUNz0fHCHBAgvIuw1EzivzZssFT+MABVtdMsc4FkmGOvoLAMAe3IFjBkh9iA5alYbjVFLmgqiBDfpYkG5DizS9Xik90UueUuV3gykq4elnkTigbH7pGttwUFf5Pdq+nM75c0e7+Nez/pZWCd+XWdIdntzSQKR7E4KLG9k4dc0F+Xa1pgebHhQ2ziKk7UQaE57dNLESWD3vDpJ2iM/RFDJsdWirmLMI8s1Uoy+0jIIOSjvUtUY0s4b3nF2UyCBLIoz3ACogPyrm/9ItrrSEl4hrOVVieZDr0xyAwB0yAuArvXloEYjc2pwfHcbAIAcYilK1kMADDcVm/53flU5C4bTs5qnjyPeecp0TEb+NRx5Zjj5mQL1p3j8pbbKckzXNbBbpXStZQe8tFq8togeiQe2211VW5YI2l6EJV+eqaWDfU/SMAQgakyhWrT3tqhxTW74RzmoApATAn9xEYsRoQLAmhYJ2EeikScbJU15I7+q7/xMRb5bEB0sVIcmOqaTBo3TUrlzNdftcc/obAc3Mjs5fwDTNDneeme+Yds4jF040GiJba7IjX6qzt6T8I3P1wJQY/k3x2LQzI97UO9Q/nQpuNHtbGvoCQ3s9LmmP2g53F9tU5stOjWd5CgztlPVtqN0CMjx2fBm+LS/Ds1mWtx94WE3IGVn+OE73QsOKx+0ohY5pBA5qDLwp8RTb9oPV1bW+/Zw6Zh+adEyhutBSHZv297Sw85RIwgBJIChEYAzPJF6RESQ0Xt8upX2FiygDoUe+om48PDy0hW16CGFyMHlgT/1Pblh76sxpjXnV4PRpqmhmw0zYqI8xI4HFtl7NVp+SKLqFnCTms8HhnItAbNxMocwIQHIz2mlGY3V2YizJ/ubdjocd9g9SctPo4UHwx5SHT6ibjzItj0ot8QadyLS9UB84ClVOrVU/Iddhawv9p1QY0pzalTULsi2qSd+U3bttatjx5ruM5G26XAQ6BDUTL03/lJy5r92l6fsIpXd8Wti4wso0KidJpMv9PLTutrOGtqIIH9PX/j1lvLbUykNbauC+/Vs5jjZ+itfP0ZCr0fb9pl2y8uxvjqr0Y1Naw12i9Oi+HiU6T6taWdk2Bp5D93OePdQeMfk0DRCJjCBFdZNCGZ4uO8oYUbPsUrpVsvd8fKLK5UlhrFwePsljTzs4Sez4+d5780Lwm+TpGZqJ+Vq76eDX/XSFkA+00Ak1XifB2bE0NfFEGOZJCTrULtgV67I0zIADEFYBDE+22/LhHmaJOuGC4Bp7b+tWN2UH4vkreTWCJ7nqPKH89L6SFubb5PSdoFa7bqxYRY1Vjydb9g2Gc0LxYlGIxIy3pdLXlcjf9cbe6IxH9lMOvkXUcwwgRLmrJoBmmr7TcqZfjdN9wFgat/bOs86Kau7q3uzaVka7p58j0MoACwxZGgFbvuL3PY/h+On7Vq7Su9dIQkbfTWbDrXjdWFVf7Xn/SWaBrUNntF5j5UWVa2AgYBeeNVTWl5YezmR2+mCyzNH6eyG+9wystXQm2r0nDK89kgtfmhNfNNf3btqjCMjt/xuyZa54ENVV7IAI2H14BNKw+t8jZdIEBfUYYGpz9BfQyK6mqZMY+frHWZELNN+/KA9BAnM2bce2EcHeD0rA9cAxUGAqlbdtpn1lTW9xHE1ACCyEpJ0pE7umDR+nYsLK6z4QFR8kh/9Xrp4lJ9/irStAxMgzmrMqNhr3lpfU8UiQ6ummjDBpkYHAC090QwqsIxsKEsMsHV8zsNYrBgawzjbZw4CHYKcizSPUJML/PuA0wJKolJeynjubN934qChwrJpUO01qcddnToQQnhehP9UlaJAOgKKP+DbHo865tUsVIf6clCjkcpYoJqQsxdQADAHVEOnmXxTXMe/86vKGRl2zGt+njPgnZ/Qhl1s35XTb2ykfSidXeKK3CjKn82kz+Z6/9A6ZQgb9/L0VE5qOFdKh1rujhfuCPT+r8l9RsqFIxm/P/ETkc5DYLDcTiuztsbf1e9N2Yv92mGyMeJmW/tzrTFrKsilUzTqr2HOBEBl2VGrcrhivT6+AxpFNUOj6Nm9cNxB+TESiAt+K+ota8QNI5mrXX3/6Z55zzgAZkI1oWu89fZrhtFovd1pOEJ3poG0U1PJj2rcXYnoc3Sn27YhG5pa3CJyje18TpkBKkWD41SVAS6tPZ7T/dW9722X0emqUzucH6hO0ufnRwFoLDhj15EhQirTsgKEiA4BUCu02rxftEHftlLtUL8BLHb7Rrv52T9K7zlEioa0QJ9qd46BylGnm7ksu3uzO6fp8eW1WEjzJxQ7yFc5+kNmJs2NbBJ3D9KHr6r0P9P7yE/cXoYsFgjGr7EqU5YhgPrA2l3vi0yooREAKOV9oYY72/LOyByoWezmZz2Lzi97lmTP+UxBqhKQM3haeOYHPTubm1+tldnhf5Jct/ZH3mgZMmAP0xMHxhYtXeqQnTRsWodT9ErXURFWMQGdUV99aOrWgunJoEgv+4zYWwBCgiQAqK3XKhYAyFxWSJ2rmo2JJ+lGmXsp2HNP++g1XRQA1iGVcpDitzKUCoxD6jpDsGOvyJo0O0QUjy1VXwoJeaQdky8tAWBsZk91eV6kkudnSiNh9wjQj8oXlqPxIM3le4wduSCTT4e92whrUSV7gcI8kRhfp+ykgO3nINAhqJu0CX+ILNFCBEAuy6IB0dqxTsRpdcwwzYjqp1X0zVN2bjoqb7Le+4XKtenRUijwZ46yLCNRl6O091F+7MEMbnKLUrL8cVOV3fG/tXZrXfJyqK8ZQR1UzJ7JhF5gQE81d16deiE+fW6mFQaYX1XOwLAth6kXzvVFIbsqKWTPkI11UDPhnSq//Xr8hr2tP/J6yw1rL1DSTArUTijLb/pYGZkuSKfsnaHWQYXURYZ4a49nCyn8qD782XR+SyK0uZm2S6r2PKdddamUrnelA16NpJMTs87IlCBwkUySbuhHiY+6C8vqBKGr/ZZ5UCl3lsH/1D3+lT/S1HssqCIjIVcuLlQsT88DDcvYYjzr+NLV6XQmEnyFBjEpf5lMPRuf+rnGaWXqqvxYTI2mS7b14789WL8xk/og2/tIc+bAoQEsLmXXsqG/NFrvuXXyxTiv2GtCM654TtPOfoTuSgOa9QtGRy/U2d9FfLtNddFY505QuxlKM2oXlowRnkuTkDXqH8jnFzO+XwrN6u+QT8MLss95uNPzmWup0MMCU0dmSNM13r2ZdLy/uve93fKZ8O/YDucHakLmHjsogMjiEF9wKV6fKhJAl9jk2543nmuZUzHZXdupFat1a9SzfeJbVZx82Npsz0SrZrW+lVofIoW8mMvLK0/LTQYxes+yUs8hpCsrvvhqaNvBo6vPT6MnAztHCVIwRL/q1aiyTAJEFIf4PD+hBjNqqyFOWoF7T43sUGuHPgeEymB43e+YI44pJ3p03oO0GpPcJpSbNtmYoOl73aH/fbQLWqlXjY7jnLq+vsnHLVxF8VGSUixpcKY1t0Y+2kZl2KB6lpCkZhXXK1ueM23zBHL39i+6zzLj5dT1mu/zUaF9i1P3opr1swrFmGGxgMix/L09ofVjtw8h/jrq+4dc7t93ZkySfdUf/iUaPWVMDMHfHY9a2cK/DOU4gn7DF7qXT504FgTZB+JxNZf/6EgpbMECx6+LR//YPg3QQRUHgQ5BHQSNe0GjfP2u7GEmGmull+zafjGANSH8xbjX+VG+u0ggSOVjLeEO99ijVUtEJw2pF2IJpZg/J5c837AAQaZZ/qng5DKHzrlfpMrnK/R9Ya45MWRL7pqXPSXRrb66V8rYOk7EtSQ3crFqWhT3QjQ+sxk6v6psATN7p0N9FYzy54bzK02TbRgZvcPbzoFEWQh/pcdTAE54aSl9a6rG2dYJWjGyYy0Eg4G+G/2tbyqON48pelq070dR4xOF1LeK9rsGf4723S6SopS7roie7g2/ajcp8o1Q9Inh5HVZ11eiQqWRvmOq9v5hSj6NxbVuldKtlqfJmJ0H+Vo4fmcue25q+GMWLLLCb+PhZ5trEpyc+1q6xgOiyLheCSbu89obSBs/6tlYL8jnzkkNX2GBKuN6Jhr/fcs73l2znpXyMOmL/ry+61OpwtZEcJvV9YZt7Buln/a7FudGLm+03j9H4r9wfnmqoVn3BtCVBqlWz6ibFJAvS8qXNYs39qmuQYLU9eKl6XzIRBZBbxeC3w752tfZmwna/sIRf8+3Ye7icvqGvAUhmWeFX7vcdhSH+8uh720T3uFiHu2wO6gO8uflBZcuXeqcEAq1468YXeIhBx8aeObtCePCOVHXUMIjrTwlv3yxyjbGMktltj2WeHHLzGL3rhpd9dv/A4STxNWnkOYG+cX79W6zH2IleZPi+1yEbx269v+iYQ0xAUwAE5hOwP6uxlB561y+9zpdCPZ5Vwk0rdqOSgjVEy8q9Hg1ngHqrsD6rTMbBB3FtHpaFeGNB4U3GUN0W4RJSBWq63g5kWwfqDEh+73pqHni/+R5bxYNlwoTwNdFXy4AACAASURBVAQwAUzgQCPgZGpAaLEenYNU7m++V57ylbs9Q8+9zJZGVWY9ib3v1Ji74jgFJoAJYAKYACaACcyNwMwLKHOTh2NjApgAJoAJYAJ7kQBeQNmLMN8lUdjUeJfA42wxAUwAE8AEMIG/DwIzvafz90EBlxITwAQwAUwAE8AE9hEBbGrsI7BYLCaACWACmAAmgAnYBLCpgdsBJoAJYAKYACaACexDAnvT1EAeTT6xkPt4odq/915W2YdldxQNLSPa+hlxpJ6SL60wZvgeT7tItDA//M28shfeEW6Xi68wAUwAE8AEMIEDh8DEy65IOyWdXoOEeyKBTRNjIzJjOira36vu+mO02rmlWq8FNEhIFJ0izRW5nMjwt4kT5851TUtaZljX+lTloHr9UFlhWd8d0Zbcu6Z7JwKoeu4bGeJ7CyJvjX1aFGmrSkWTFTeJ074UOaEOUk/L1wjB+5SLanzNFiZZWtdmdSATbWhxRI3QRPMb5xNCsQMTwAQwAUwAEzigCZDBYLBRAEju5F2qrrhpTtZqx0rS8ZXK8bXKebncWRrznMh0szZMktnEu4ZYdpQmTWS5DT1Bem8Pdjgwd4KToJSuSWUuqNRWqDoPyBzLv+LhzXplGaC3uPgR+6yB6T8UqFc+nE3/S7rk5r0bJk8Tnh5z0gdayhmZ1D+nMx8tlE6SdZN1Dc4uIQBoSaXs9oQfHvuoKQCeWuFs6P/PANeNg50rpEpIujyv7fTwJaQvleVVknSkLB8uKyTL7+xcrnFtKUs7spi9VGVeHjdTJkuBXZgAJoAJYAKYwIFMYMLUsEdKcpjnh0ioQ0AS7F893hdEOlpVh0LBv84wQpv9ihpARJFhd1v1sCvwXPPsnI5odIp72eN90uN5SeDf5pgMBQ4q5A9xRf5v2DPYeTy2Ds8O/1terfAsUoysxzfd1GDk3FeK1msCM3loCjCPT418QuV+H438xivUlcJHi1rSI47MZs3IktfUufv8nH1aqn0KonpmXnktHNgO9GWSHIN0prOeQGGEp7x846wy5DMshHQPH70lLGbtY3tggew6w2ES9A4XPDpVdAuevfFV1o7gsScmgAlgApgAJvDOE5g0NVBQUaKQKhHQIqg8RWoQQKt+sur6tY9rGb/bVITIEiwzYFiUfdS40aMqR8hKXKu/v1w8pyyTnLh9BhsFxaXq8bU6dAf/wNMdTyNr5AcLLP+iP/AUZ60u1audTA1KKX+0Tv3J0zQOAIB65aqs+mpP7/08XYHaScVawtSClPsZbmJ9qK0sExeCKp1clnwUWFrIXluQACeU64WTLdJVl1equqBVr86pw15xtOPky5i6yAzpRsAwEkr9cEXrU+RDpcqluVKY87ze/Uhipl6+SLU4g9godJ1DmlASOzABTAATwAQwgQOEAAVcmnRCTT5I0XrVepiLfr7HXTWUQ01qN1BXl8uLkK/bLAA05fOypWUWkWHYYYaGcukEJvbV3qBlqYfo1GZ25r0aAMACqJ8ts18LdMtkHKNOMSkAoDn93NSunClN6SdcD9oHipqH57NH08E7hdKVisoA2mkRBADNlM7U2Jv9nrRXkEdSPl06kvD/IDI+X0JL+hkmP3Fs9Fj2EJmJunR0tXKyZLwV6buHlt8v6RTJvukLZg1qo0D7yjlF8DzodBShtbJa3+HrfUzNnFPn75nN2Yldi44DMAFMABPABDCB/YcABeo09zeBfsVP9+R2rxbFCgAQKRek6ht87u2e2JdZutZFW0TyD8T4p5TaSpNZLzAEqJysIRoAdzX/mQr7373Bt2awH2y5KsOmIZz9CytTphKgUf7Crvxie43D4pD8nR15BMBQIHGTj3EZJkXaRyELcv6qGn1vn/ftWpXSTAEAZ1PDYNlRgiwSlsciqiRd4sVngBEx0Whj0YRAqErT4wsrTTLQ0uMm8UYwVjKTYYqosu6HaeXc0dxqxhdOZ/x9ice84bubkTv+hXrlg6rw2wi1lXevSRUXxYM7phS1YzLsiQlgApgAJoAJ7O8EKHuLxghLAmCtsOgtrD2+QYTqLu9D3lkdQS6RYFEuF6Tj6wiiZkmXZGtVNvDlPq46y5KThATRvM86R5T7tn6BAoCVMjdVuZtinhIABkFaACAIAUCEJV+eqaWDfU/SMGSXbOa3VRFBVfTyR7NyzSVKCBQhRKb0qRHp5UTv4zTwGGaJpqbYRhbJ/cUNANCWA9dGm6F1SFWuBnseYuTP0vxGGsyUq3FsvlII9G6FAJHi/Xzy2nz9myFXfZYMcTRMABPABDABTGD/JTAx8YC0XkSPQkBbFo0sa+oGRiOudx4uTVr8RSL+NNRdkKixvgcEsERWYrN+ZROBOUxpdMJIVCiqQFEFAgJIFhvuCmEbTApJaqZ2Ui7zfjp4p5e2APKZBiIpqZOUdj8yzwn3RSK/cVO0BS0ILNr3w6hn2GaFgrpZpLqsDSHTB6kcMOMaGuRZ0jDEej1GoKWlwsdTyRtGUmcrU0yUsWxRrJz9IBG8e/z1YJj0BTfLqX8uqa52tfAVJoAJYAKYACZwABJoflcDGsrBuqEUckdyvkcoQLU//UNTPrnG/drPTB8qoaUdU6p4+cCTANEAVfnQj1Hmi8MjmwLBh9yuwkyrANCyWASaWuxNgAbL7bQya2v8Xf3elG0kaIfJxoib7b75tJk7pMqofFLJ8Gn6YhM+2PDO8e6c7TAXaDDj7VwqaGk9Wv2CtDHsIsOKTkN4mCIVxcioi37T7SuSHb+ZgQJS7hN14b+jwuQ8EOQeDAnfTI58XQneFfK+NcPW2qba+C8mgAlgApgAJrA/EmjOavTUqgep9Sjn+4NAaTRXkUunKua4BYCMQ4ul06u1xNR5DWtpMXnzUOpgzv8YR5CWxTUMlJIQuTnsipWz1+9OfbimdX80tzwmIg09gtCemxqqu+eqXm+xBTGixEfdlEkShK72q/KaTPosg3/CTU+3lloSjTnJt93ul9yBX/o5lWZHGnYFNOunF8qra6XjDG4zPS1FwyNSrR6iG1Vv8GFv4K5o9A4/i0jvr91geVVaaIJO+ZpLKsU1unh7zLO73XqR+OCPfYy3lv3Kzp03ZCoLOyXurAT2xQQwAUwAE8AE9i8CzUPkY+X0eTBwh4ceW/oISPmrCrWFBrIgIBFSKWab4P91gC+0aw9N9XCNeNNFDpQLp1drcaH3a/7ZjOVjUqyFxdS/FGRO7PkfUcF5soGW0remahxAlIUAJAwIBgN9N3aaZWlVEFrqKbnsuTUlbMEiKzwSDq/juqx9tCabdCPBAlJjOQYA4K6lvjMqJcN93/B1mN0BAPUXRy8kQrd6GcN+WaZ+caY6Ggo/R0O3nP23UXlzLPEToT13ZPGAkNuNjMnMG5tm4Fz2zLamxW5MABPABDABTGD/INA0NfZQG2jJnxjOmpH+n7u6j5wd8jCOz+Tc3uijje2oHcL3Ky+kHVkzt7td5Zm0EtTqGsna7PW+Pf4JDxSrpD9u+G4JcLPexDJTHjgcE8AEMAFMABM4MAjsJVMDAHvyA0CIh1IALL8BSlTXD4MeGA0Da4kJYAKYACaACewdAnu+S6Kph2m/XIp/AACiuPeoYqCYACaACWACmMABTqC5LfQALwZWHxPABDABTAATwAT2TwLY1Ng/6wVrhQlgApgAJoAJvEcIYFPjPVKRuBiYACaACWACmMD+SQCbGvtnvWCtMAFMABPABDCB9wgBbGq8RyoSFwMTwAQwAUwAE9g/CexNUwN5NPnEQu7jhWr/gf91S2gZUbPl86hIPSVfWmG0+My6QknLCLSK6p4wIhU/KOlM9wg4BBPABDABTAATONAITLyWibRT0uk1SLgnEtg0/uEpAJAZ01GRoRxOXWe02rmlWq8FNEhIFJ0izRW5nMjwt40fHuYEhLTMsK71qcpB9fqhssKyvjuiLbk7Jd3nYVQ9940M8b0FkbfG3uFF2qpS0WTFTSLV3dzQT85XCIqikCVYFgkgAoi2LNFQj5SMraH4rV7G+aOoklW/tIQ2CIHkPi8fzgATwAQwAUwAE3hnCEyYGpB5OhLVipWwaYU16TBV79F0t2UcJNVZIfbFmFjpoo/GiL8Lu2K64TX0mKb7DMsSgvc42hmCUroqV+kFZJphd7DcICs+JAr50ZGzkek1ESA7fp8DBeqVDxVLp8noycTA3VzHOFNVhJZyejZ3Vk0JIiLLiQ+HQ0+ws/yyFlpYNzaEYpua+XikWlwM3+hkZwBRKq4x+O976IOqUtoTfKPJ1lfLcpT4CjvzDJJKUnmGzUwtB77GBDABTAATwAQOXALN4dAuAcG8EAwBAGiDGYHsy16mCupX7sqaPr6bndEstxXQNB8gchw/rCi9nFhqBnT8K3G+WxO+liBzZT4bd/de72HlFt8Wp3V4dvizVbjew47KSov/pJORc/9a4/4jIk6ejwrM49LJKzThnp7QZsJaVUh9YrdVG4j9eWLOZjL1NJclHwF8v3A3JzCQemoVPhARa5a+TFZIVthIT7cbUI+KXvAJGRoMaMnT6t4N7vETT0pi+FZxWhaTHmZYh3maGFt0qpHjqfha5rOKcFtIcIY5KQa7MAFMABPABDCB/ZHApKmBgoriprmdJNQp9u2GPzR1P+u/k5s+rI4XBSKLtyzRtDSSMA1jQFb66noMpr9Y0v2IfioSe2yGw01QXKoephpVd+ROpmsuABCb/D3/GmTSqHJ9qbOpAU19gU5PlgYAqFfXSMQTvZHHXRCa0hkaMqzaGVX9JR/dfQXELpegSsdVJZaiz07uOk6nHo7GXtFKiynSV8guIsmyKX04I39/QfTVqfrCrYHoVluA4bNIpBSulg2fYZGk6w9hx1UhpF4wkk/19v2hsUdDJ8bnXSxkLq1rPMCmxv5432CdMAFMABPABGZNgAIuTTqhJh+kaL1qPcxFP9/jrhrKoSa1G6iry+VFyDd1SG3KhqZ8Xra0zCIyDDvM0FAuncDEvtobtCz1EJ3azLafYtpM1f4XFkD9bJn9WqBbJuPRdYpJ2celohnitUinNKWfcD1oL7WYh+ezR9PBO4XSlYrKANph6wkAQDOlMzX2Zr8n7RXkkZRPl44k/D+IMFpDOC3pZ5j8Zgc9LDXGhG4LujQInW2aprKIIrntjYPpSQQIU11Vrcd1I6Bog+7QaDMS/osJYAKYACaACRyYBChQp7m/CfQrfront3u1aO/JgEi5IFXf4HNv98S+zNK1LiVDJP9AjH9Kqa00mfUCQ4DKyRqiAXBX85+psP/dG3zLYTxuylQZNj2Xc9KbeyfG00Oj/IVd+cUAAGRxSP7OjjwCYCiQuMnHuAyTIrkKAIKcv6pG39vnfbtWpTRTAMDZ1DBYdpQgi4TlsYgqSZd48RlgREw02thEQiBUpenOUyu2Uqi/XOa5KEBWUDf8hhHTdJbmnxeYbklccu0wQ4ntHtEJsgB0nmR1hv9/IuUrWSv5GSZgmhTxX0wAE8AEMAFMYL8lQAEAyRGWBMBaYdFbGusdEKG6y/uQlzdmobZEgkW5XJCOryOImiVdkq1V2cCX+7iWPROOUkhCgmg2GXWUgij3bf0CBQArZW6qcjfFPCUADIK0AED28W+IsOTLM7V0sO9JGoYARGjmiQZEUBW9/NGsXHOJEgJFCJEpfWpEejnR+zgNPIZZoqnuL/PqK+pGVC2cr9MZiqqQRJG2zk0Nr4ws/J67845UhXXf7+e3u8VtFKTk7Gd0YSNr7xGR/OHdHcuMPTEBTAATwAQwgQOJwMTuBqT1IvolCGjLIpBlkVPGRSOuk0l6ypyCXVCTFn+REN267oJEjfU9QBevqSgbBa46m92XACAALTDz8N8dKVGh7MkTloAAkkWKKjajKiSpmdpJudr76eBXvbQFkM80EElJzQjd/5J5Tngy7C0C7YIStCCwaN8Po2TYzgcFdbPIO6wNMevi/etaRSNwNMkNu6bwbIlBUMMuZic1zrZpxKDl+dETmPCP3XTTpyUJdmICmAAmgAlgAgcMgaapAQ3lYN1QCrkjOd8jFKDan/6hKZ9c437tZ6YPe9DSjilVvHzgSYBogKp86Mco88XhkU2B4ENuV6GDcdLGBloWi0BTi7agPbwwWG6nlVlb4+/q96ZsI0E7TDZG3Kzzly3sTCFVRuWTSoZP0xeb8MGGHjnenbMd5gINZrwdSuVRaqtVo7FJ1nTZW2UNv2EhxntXCAQo/lGHElr1C0bVPy6IbGiTCguEebBqQndjE8cessDJMQFMABPABDCBd41AcwjsqVUPUq1UoPcnAmVZXEUunaowT3OkvbSBjEOLpdNl8XlfYFfbcGgtLab+oWS8Fe39GUewVYtrGCglIXIzyF9dyF5fYV7xBR4RmXrn4lkeE8qGHkFUU4vO8Wbjq7p7rnK3RUSU+Ki7sKxOELrab5kHlXJnGfxPZzVJQL7tdquMq2CVr9fBSKPI0KyvLWsFRj/O4H7VafSvsNwQ0i2KTlFUvYUSK6V7aDHbplrbBTRNF8sO2fNJRlQ3A2rt5BIKWIhVrFERT2m0scIXmAAmgAlgAgcgAbh06VJb7Vg5fR4M3OGhzUYhAlL+qkJtoYEsCEiEVIrZJvh/HeAL7UWEpnq4RrzpIgfKhdOrtbjQ+zX/7EdHa2Ex9S8FmRN7/kdUcJ5soKX0rakaBxBlIQAJA4LBQN+NnWZZWhWElnpKLntuTQlbsMgKj4TD6ziHtY/WpGNuJFhAIsYNB3ct9Z1RKRnu+4avw+zO9MSEIZ1TkhfIkhHov03stoCC+gvD3ywYVZIoMtw2jt3JskP2Gz2kq5z5IBv+9ew+VjY9d+yDCWACmAAmgAnsHwSapsYeagMt+RPDWTPS/3NXyxP9zEKN4zM5tzf66Ayf35hZ0DsRA2lH1sztbld51pnFS8lrdO//DTt9G4PRah9QyddFV66dHGHofpLOt3vOOmccERPABDABTAAT2E8I7CVTAwB78gNAODYpsp8UDquBCWACmAAmgAlgAu82gT3fJdEsgWm/XIp/mAAmgAlgApgAJoAJtBKYxVe2WqNjNyaACWACmAAmgAlgAnMhgE2NudDCcTEBTAATwAQwAUxgjgSwqTFHYDg6JoAJYAKYACaACcyFADY15kILx8UEMAFMABPABDCBORLApsYcgeHomAAmgAlgApgAJjAXAtjUmAstHBcTwAQwAUwAE8AE5khgvzE1oF78921Dl6h7cvTaHMt+oEY31+ze9t8Zee+9p3yggEALC8N37Eie6vxl2f20NHumPFIvGdp2U0Hbb+7X/ZQyVgsTwAT2SwJt45V1cG7kK0VtfWzRd93jfRq0lNOzubNqShARWU58OBx6gh3/xjarVS/OFY+vayIg0py4Lhh6ipv8/LaoVs4vlI+qa0ETmYz/6/3BbfvsuxvQKH1lSHp+Qe/TsztOdo9rAi0sjHxRFr/R6x+eWihraX7kqwXtzeii73hmMy6gQL3yoWLpNBk9mRi4ew8/Q47qVw6NfKgxEluQqNDsm+7Ar/z8jIfezQLI3Mrl0Gy65UXJmf9Kar9fkHi80SZZtfDlkZIU6rvFO/6xfACgQtIphqy2cp2hyChWSn6twv1HIrilNVU3Jfahfyfl92F2HUTPo1Lswwe79wDzCkK+euX8ot0z+BCR54R1odCj48cFOAQ5qGElasXzSrWVqu5GsMjyTwXDD/BU42BIB4EOqTqg25deXXsAwpDPyRVOlZWgfa4C//8a5ZrNNxLn2PeiZdmdXy2ZyUDfF4KsCQCp5r85XOgjvDctjLwJZtmlWEekh66zQp/rcVf3JSws+4Al0GJqiHLumhocavEBwDwunbxCE+7pCW0mrFWF1Cd2W7WB2J9JAM3a1bszC/jQD/qEDDCWlbNXJlNWf/zpRnJBzt4wWit7A3f5XUmKIBAoTx2S9yYxQtfD7+BsCKGVPl60nuv1TbMzgCDnr6nCXW0MHUpqHZ4d/mwVrvewo7LiEG8uQXBTKPEjkSQsM1YvfSw3+mlq4GYPtYd45liurs1mlgWBpvTx0YLH3dNiZ9hJR72xr3iny3AoMkx5Q09VRj5ZFL/c6EanJ37HfLoo/47lP79KcUg1ryCknpErRV2+O/1cHhqHFrNXJDPlgZ4XSQAcgrp3RADpy2W9JAa/H6ZryDyklP3YaCY/EH+GchTokOodqxA7I4ceQD89NXoe8vw4Ht1KWovKmWtGU2pf4iFmBv3m1ffCGkWEJCkeZIcBiEpyhKRaLAaH+2tcGWhKp0rgLzGhJdUMeuLgvzMCzUERGrWrMvWN4ZCVGQ02GUC9ukYinuiNPO6C0JTO0JBh1c6o6i/5aK5eXY3EWyPeTbYNQT0X7uG0oTPL6rNB1kTqB3OVWrDvWz5mNjZ4Mzf7CcqllP5npnSkapoU92Igco+HUQGIlkZuLnPf6A9tHbdX0NLc0A11zxf7Anp59Et5OWhaNADX7Nh6jS2DeTDR/6ux6QFLO7aQP6cqJ0wg067ng6F7RUZr5ActZU0ud2ZNjVhIIZmdgv9HEXemRZXuTnRIubyQ9d02bQYCmrWPZ+TN4ZCWHY12T98SQmzy9/xrkEmjyvWleZoalF757Eg2LPZ8I8yP3ecaSadpEgE6yfoXVmrHawYBqDlWRIuOwDYr51Quh2YzK4sHaWtS6WPIwDfCQmVMEaRcOjxyvors+oeunw0k1rUfrutUZMg+4eU+lC+t8kdfne3EhrWwkr+oVDtYMzlIpDjPPdHQ6407hTTks/KFUyU1iGCOFZ4MBh9x2Q/QUC9+bZf8RsS1sFhZapgkwb4UCN/tYVX7YGRH5bs3UVatfCRXPEbROUi/5fVm98xYn1+lOKQC3TsHhyAEud/0DTSbFzsU0lcPFZar6EUegu5BDmogyD4eiTUFgt1+92m1atxAgHISCBxSTcjq5NiDfqOTONC9B0B6QkdbgoGXGlM+uYDvA6WsXS7GsR3Mt+8lGddWRVqlB4Zp/QhZ28q5Blo6JKf7q1GscLW8kvTc6Jq8wfY2qI70sOcBRGDc1NBPzmQTYuzfePSRFuUpTeknXA/aY6p5eD57NB28UyhdqagMoAkLEZBoOR2ezNAwpqocYOuadJTuep6WPz0yeqhu6RT3sj/4++YY3yJ+ulNbU6j/Ltr7CxbGqrl/zCRJqv8Onsi4PRvz+ZPrga18oykj9SjJGPS4kwAQ7siNAqLquW+mjfv7YvazEYB1cuxuNE5I7/6kLvysp389DUNS4dp0kib677KFoIFi5kqZuSsefYMCnKEvMKnidHU6+iDl6Jqxwz/9XHjjxEx2oRi7gQeXzmpEtaXrFJOyx3I0eY92zLSLJzSkTyazCT56Y9POaImIAnLtCJ3ayM/V4GuRYTvnXC6HZmMPvTP8rEPyqY9qrp/0BXZMdKqQ+03/kt8iyyNlv51y2KnRuchFQdySzR9dR68KExKdlIiUU1/KalsC4VsEpgrMAcXMji3MIeXDydE1pO+Hidg2wlpSzl6bTPK9ffeOGZ1IPq/Ifjc+8F0K+OT89aPJK8mBOwTCHly7Kt+9iVryx5KZo2n/7X3eQagfk0tfoYERJ61nCJtfpTiksrp3Dg5BUxoAYZkiIKud1j1bgxzUaBXIGsqJxUqQ9fyl0/GNrQJbYTmnao25R/1Gu6CJq649AOReFqhrJDnoducgCkhSHy0+Pu3xZkLOmIOYZ9+LKOh6ncuvloxHRPlIlXslCJe2dO7NXDrfXwCpJ5fVIU90cPL22oMOtpkZ/vveImCbGqi3lL7E9N4cdClAbi2eyzApkqsAe13gqhp9b5/37VqV0kwBgJKLH7SKZ1S8g16mDqyYVLigZhGM5QLA0NUYUtaUqD8GYg/QMCgXPpVOirDf7nZbpXdyb/FH/sDbs/0lX/hBaecVZelu3l0nxafE3LVl+Ve8WLOXEqX3GdxjbhoBYBJkgQAUAS0AJYoqtPRZpFo+TyIf6g8/03gOKHtC90mDV1fkX/KiCgABEIBklqbzJAAUvbuTMh39CENZYtKbph5Gj+Kl9OWG55aYqw7qk3dcRxGdPOeaxH6StuqXjqZWMeGvR8TCpEx0WGbw5xkAASIg+2w4/osx+2wywpxc8ymXQ7NpHRg66uGrZc4t6ZvD8eea820T0SxI1OyKnv6bociI5LYw1vsVjRTspegZfkj9QFnW3T23BoSxznY3O56ClctrNPa+geBrjTmV14KR++tDF5akP8TsFgUAscEf2EDZNVniAw/z5asr0t2Ce0xIR+UdmiiQK8ea7IO9wdftCXPqsbB/tZTlZ1DdKXh+leKQyujeOTgEtTcA49hCJcT6XuhgGbQFOajREIiOSA/+r4pJACLL+/4z3mKkTiJpE9jwnk2qyfRjrnn3G1MFTbue1gMQG8KJn2aTXxuWXmf0g03h9kTgbzM9kdDz73uJN0XuwprUD6UBTryDlC+f1HCG+4utl08yXPd67A554rfvQE1kgR0HFAEKMGrxM0XwUK/ftklbGwsAyD5BDRGWfHmmlg72PUnDEIAI2ZEs2ntb1LgmN/yjHFQByAmBv7iIxYhQAWBNiwTsI9HIk43RIuWN/Kq+8zMV+W5B7GAot9GiBieHcHKIpShZDwEwDIgNHrecLL/fEJ+kUL9U83O+l6cNRW2SAHCpagxp5w3vOLsZQCCL4gw3ACqAg77I79X053bKmz3ex72e9czMZtCYGELXQ4BK0209A60Wry2iR+KB7dMYNjPfy381aJyWyp2ruW6Pe0bbdIFvBxJ3iAREVlgpX5rd/Y8g8b32XmD2qsyvXA7NZoaskXpmEf2NI1aUS0vdoVlv5JypyJBOUyCgGwSYhakB9IQGdvpcLfPH41r7Nc1FubZNNjxqG0dxshYCoGGqktmGndGIDdM02Wy9XQvt0EQpXWdIdntznQiR7E4KLO8qaeaA+VWKQ6r5BbUoaq7IjX6qzt6T8E2brZka5JBXXq8HtAAAIABJREFUQyDcHEx80Yc4U1tRKXx2l/bTvp52U3WqwNmlalF23Dn/fmO6rJl8UKRW+LAEtnj5rbC+uFi+tMh+PyS0PFR0ELAHfS8oC+LOfOUjlr7LHSm1PXM631/mkeUaKUZfaXnMA3vQwXYoFfZ6LxCg0NJKeZFhDuzaflmjPPZZ8OkdP897vzUQ3kqSmqmdlKu9nw5+1UtbAPlMA5GUZMeEGTH0dTHEWCYJyTrULtiVK/K0DABDEBZBjM85N2LmaZKsGy4AZjI1OhAdM350l/cZevjkqva0Dx0lmZv8YrlD3DYvOyHk7+kLv94yEiOCHFsoQaTrgfjAU6p0aqn4D7sKWV/sO6HxvQ5tUqZdQGSxgFBaZAKAFlcqSwxj4fD2SxrxbYYZm+HNC8Ib22JOEzdfD28lt0bwPEeVP5yX1kfadmOpFJ1kSATACMsa6s7ry7Wox5+aT0bzLJfi1Gwc9YDky+H4f7uUTw+P/kNB+GrINcsGM1ORoUpAGjW2ejjmPxGIplrdEyFgen02fdCkEQKAXQHdhYyJc2iiYTsGHGv8Y5HNZjZjl3P9f36V4pDK6l7LDkHjaiPjfbnkdTXyd72xJ6ZsPugU5KDGmMA6xQzb9NmtLto9NHJWRXshwIxPgHUSOHOqLnzn3W90kdfVG+rlazLSYKz/RwKJgOcFd+2akdR1dP//8bZNHkxJr+9B32tRwl+Z7McV7hcxymo3tB3uL2jUTpPJF3r5KbfqOwZqCgF8ub8SoOC2QOJ/eZt9GlIu2p1x+/vuEqk8BAbL7bQya2v8Xf1ee6xC2mGyMeJmW1fLNcK2ZgW5dIpG/TXMmQCoLDtqVQ5XrNfHdwmhqGZoFN0wUJw5GAtUE3Jjr0uYA6qh00x+PAXzrIc9p1Lr58GRhutB+/Zr+UF7OmbKLaiwbBpUe03qcVe3ThpWWPGBqPgkP/q9dPEoP/9Um2HeIr/FiSChAZ1tz35HoHeSIVAuHMn4/YmfiHS+W84tAufnRFzwW1FvWSNuGMlc7er7T/fY231ThY3lP18t4PzKNZtmM1XR8WtqO0dapPDLsPum0czFQt/PWzaadUky1btTkRFnIY1sG7mnJpu8plI0OE5VGeAa20E8EVJgGdlQlhhg6/hkg7FYMTSGyY3HMBOqCV3jrbdfM4zJ1jsho83h0ESLDK2aasIEmxr2C7T0hNGWdq4X86sUh1Soe+fgEGSrjbRTU8mPatxdiehz7bOD3YIc1JjGAZEAEBNmpUNebSnbU7UFTb+YT78xXYqzD6lrfYh5oTnLa1L8Wwz6mKKRXtqhIexB32uv070UCPEa8xINQLup0arqlPsrUSkvZTx3dt5E8k6AatUNu/djAgRQSTrJMM1/lASBQtFJmlQBQJT4qJsySYLQ1X5VXpNJn2XwT7jpsccF0tQTuhHWlCNKmS+nKpYn/EBjULcYzzreOi2d/pCshXVtZSl9mUw963W1L9N2ZnJQMXtmXfea+iGl7Hl16gXvpLGcd3vfNGpnF2te3rO+fc3SopkUUE4oyz2m6TW0mGkbAibrvV9Ap6ZHL6gpMcOIaMqR5cKZ8tjDoXVIpXi8rEYM02uoy+s6Q1DF2Q3IFkXlgRHR22wNrZUhTdsMSWaMYbOc1srs0I93Zo7otNegGWcOfzWaLkGgs/7bg8yKTOqD2qQ+jKlHdT2mqYdWspdVrSFRaH2zxl9O/mj7zk/Ik/Edcp1fuZybjUN2E0FVIXSnG63N5Fe04ILIEi1EAOSy7BeOWn/ORQZIjxogR8/uNRzIPufhxHLm2qK0WNPjqnJYtXpIY4uH5vI9xqoXZPJHaobH0FYVMhcozBO+8S0dAIDFpezaZus9t06+6OUneuyOyjs0UdXleZFSzs+UluumR1dOzRaWT6uxOVXlLCqlQxN1SDW/IGjWL9w98kmF/kPIt9tUFymK/U8zWHtzdNcgh7wIrXpZvnSsXF+sagvqtbPSmVNM9s+ivRXaQaBDqtZ2Nc09c78xp0qZJn/Sw2S4rYRyer66WDfdpn5QJXt2ndjI289yzV+H+tqTvrexx8h3n4+fvkbT9f5C9dMq+maPe7SpU/PvzKCaMfHfvxMCrXO+HYpMvhaO35nLnpsa/pj9GRnht/Hws80knJz7WrrGA6LIuF4JJu7z2htIGz/q2VgvyOfOSQ1fYYEq43omGv/9bB5PIX9PxLUkN3KxaloU90I0fk/LlkZECk+KuS+UwdPTJuss2vejqPGJQupbRYuA1J+jfbeLJALUC7GEUsyfk0ueb1iAINP2532aj7Zm/axCMWbYqyE5lr+3JzTFfOkAo+Fl0dwOsrBUmZh96RZxur/95DTlR0vpW1M1DiAKoRUjO9ZCMBjou9HfnPudErvDJUz6oj+v7/pUqrA1EWy8DIyW54a/l7N3vco0+4a/525/6xsoKKGqAnS91fkppEMGs/CaXi6nZjMLgQAAcn0o/Pzw6KdzwpcjvGyUr9+VPcwcz+iSXdsvBrAmhL8Y9zYmvZyLDKCpHKQRO7hZUoUj/p5vw9zF5fQNeQtCMs8Kv3a5bbUh+0A8rubyHx0phS1Y4Ph18egfJ0nST/tdi3Mjlzda758j9oZcBAB0Ur57EyX4u+NRK1v4l6EcR9Bv+EL38qkT29jNtSpnUylzqkoHgV2DSLV6Rt2kgHxZUh5bsbWfCpjAV/uDu7oH7YBdBSKCsLTSpeV8yLQQQaU44dfx4GONfaYOeQ12T9XGePrFDP3GXCsFdO0BKM8P49YVucIXhtICgEXG9XK497fu9tlcML2+5tv3Ti/ppE/X+0uQysdawh3uTp/tmQHUpHTs+vsgAJcuXXrAlNRdSf4gT39nQfit2c1A7JuCWYdnhj6n+T+f8DVnzvdNPvtEqnbe8K61bPzzEX42k0z7RIV3XGigvPs/CtR/DkRfb58M24uK2N/VGCpv3fPvvc5Bp7/HqpwDnncnKq6Ud4c7znW/J7DPOt99UHLj6Go973ZvfjftDPudxo1e74haPl2ZNqO9D8q8d0VCUz1IY56Z3WLW3s36XZOG1DVlJen1bTiQmvrMtP4eq3JmKu9yDFwp73IF4Oz3XwLN1ZD9V0N7I74lWlbw/7P3JlByVee9795nqHnqqq7qeZBQA5KQkNDAJBEIFgRkY+znZwMXHJzlXMe8dR3HXrGTXK8k1/et3Lz7HL/3YhNnxTE4sXEuGNsQwBg0EBDINrZEIyShudXqVvVQ1TUPZz5vnepBu093f6quHuhWf7283N8+//P997d/u8TZfc6pc4rJ+yXXCzH2auUHU7XurHsiVPxKMvNGS13/B7zumR0Bk/f/31dVrgXMLm/57m02ZxN3ktDfhar5mutyGubKm8plMDs4KctgkrDED4bAclhquIrD/+9ggeNdBxoa9tluCPxgqNGzkTbrIej4s9QJ0Hio9XOhpV4l1ocEkAASuKIJLKt7Na7omcDBIQEkgASQABK4IglcWRewr8gpwkEhASSABJAAEljOBHCpsZxnD2tHAkgACSABJLDkCeBSY8lPERaIBJAAEkACSGA5E8ClxnKePawdCSABJIAEkMCSJ1DzN1DMhjt6f2+LOvpdT2Og/rkf1eUmP2jCtWb4nntyzpHw3qfDSeZ5uvPKZImUMa9jmruZLxf/Gyn0pZgHeF3C3HtBBySABJAAEkACVRCoealBM8cjv1WlaGe+o3H6dYQ7KvmdJheVgiJhlhpmoCu9aWuuOaYJmpDuDRx5s64vU/PTKWouYwY2VF3/QO+2lrFFk6Hw+SHvqbfqj/ePPRGY85S7bkx3XSWFAgan8bkB79HXomeSVdYvCGse87Y41GPfKiXHn9ZJ21zbP+M03yr8Zl/l3S0zFFblZpeceyCZvklSg2bpH4tir6fu+7FAX5XlVdkH7oYEkAASQAJIYBYEal5qEHnIf2zI78oqbY2laQ9l6d827s1IjoznwsRLp4gZ2X7xrlvVdHf4rQNOiVc6b07e8YD85lNN5/KzKJrdtaYyWIPpY2nElZOIGFBCbbltH9f0f2k5kSU0mN/5qaFVAZPofCEtGi4t0KCb049+OlthjSMWItLbSmp8nUEIEWO8kwJvUpzOaKZtZvmBgeH1nobH3bnPKf5vBrnVWrWvkZvJErcjASSABJAAEpgbgcpSwylfvTO5do0UcJuGLBRGXBePhN953+G7se++nRJN1f38+/VJgxCqrn+wd1szyfy67d8POJl3btpKMDvvO3v71eMnBoYjL/wgnK60uFj6llvk1Ottew47DEqo6UoMCMLvx7fcVLqwx6M55K6dyXVrpIDHNGS+MOKOv1d3+Lhz3suwlTtdk4sfaH3jDCWCtPWR/usi5dY2/USWdN6W6AyYysXw/ufDg9YKw3R4DK10ycBcn7jw5aL78fbYoak3wVAuukVwmHrPYW2UnWutq+tWMdDIcYR4dvh+Z4dlpBwu/uols/MxX2tW7imJHddQ6XC5p+i4eidPzkvv/ptCd/q23s4lXyxlWp2tawUnZ+SPyqdeVooaobrcronvBHw9St7QhAtuz7lLtWGEBJAAEkACSOADIcARYjbuiN+8qRQShJGLrkyReJuLYSdnEJI9GozLhKsrrG62Vgo0UGxvMInuPHMMWGdYo8ieDZ563xdP2l9D2LAxW1cMdB8na3b3PvQnpx/5Qs+Ht5Pes4K7sxjhzIYdA7dsLoXE0TKot7kQWZAyZsOZN4TKIAydEldp9WqdmuLp10fXGRYSpcRPWnKZlOiETNo03h2NiE2rqH5eGUqMbaJOShVDLltNPaOne7R0j5ZNmKOLNG6Vo9FtyCb1bXOvucqUFepc7QiPPviS0uiHvZ1NZva0JhEuuNm97nbemknefcyh3TYyskPWpy51xgvB30gACSABJIAEFpOAQIjp8euUkHJv3Zu/CORUQh26qFcOsEXfiZMjrRvVjrXlQ/0e1+pCPU+03kBPGq6Qpo9FDx4j4tr4A7uLl66tcEpDi670eaS1w7vW0DOvxPibEx0BozTME6/m5kzq06wy+kJv/TyYHS3DWIAy4NrHVKN5Z/+9201XnRJwE7PkPX+B40JKgCdEd44kLo3JZkaP13f8Yb1t41jTv9nh58zEYXXiNW3l7vKRblL/8cB1G6h8tHxk4l4NrvK2eV3r+4nEf9Lf1W4MvVwu7BCuW0cdnjE3MyUffULKqsS5xbt9t+BZL/r361nD+bOW5vxI6t6cHCaJr5r+vXWhtx3Wq8zxBwkgASSABJDAB0RAIISLdwdT7ZnwNUMfW5VKnPOfOhQ6NzBaDjfQHchclwp15Zted/i6JN7kzr/nK9Z26KKa10fKp/lQs8wlwsdOOq69hagyxwkmUTnN5BLvhlKd6XDX8P2PpRJnA6cPh87GF6CMMdB6+53x6ytnawghxlDd/lf9ldMLY7IrIrkI0RUh3eM7/mbkXJFwQZOzrpnQmm7edArNGzmSUwZOzQKeoZPKooMYGiEmIZSMLkKsigf0vGrVqsR1yRS8ft7tJNkyMXj3q7GWg674N/LiCVL8bF+xqbX1OeeMi6Ox4eIvJIAEkAASQAILRcC6V0M6H33pCX/nxuzV6wuxa1Oxq3Mde1r3vyeahBiJ4Mm+zE3txdVrHa4m0yz5z5wdPfrVUhClhHJEUzji0gKxcsxnUofaFFKNoWDKIHJv/Yvf8626Ptu1vtBwbSp2TbZjT9u+I/Nfxmjprjo50jB23DdUvbKMmBgUd+651da9GsyPWRTKBvHzSihEepOMUE3ouNZR7yWlA0qmsj6oJgXeh/JkrDo6FtBJ1RJF9D4fDfBy3+ay9rzTgog/SAAJIAEkgAQ+CAICIYavXlNSrrMHXWd/GW2+88KuTWrL+qL3aKhgEmIK597xbmrPN92YEUVSOBIYqPlYaQj5HOkIq6lDgcy61K4HueR5N103vE11Hvmpv2RaZajjZTTd0bfrBqX5uoLvvbr8/JYxRpk/9eyaU7Mhbubd8RSNReVrdmT6Xg5VvkRiuiIqTTnKlzmQU65hqyjo2vl3pjkjYujWCQsxwPFEr/4xGLRNDHvURIm4OwQXJWbeKFvf81E3FNSMy1UghJpGa7F4g8qfc9humZnNoHFfJIAEkAASQAJzJSAQqnXefeGGeq6YFUsS8casp3LJOVEeP3wqPaEzmcJ1dRoxnGePusaeoSGoTdcWG+qVcJts3YAYzm27S08mnBdP+JOK2ryu0Fiv1LVKlhTKbb9XHx5y9R/3XewRr9+Ua3+95eff8wcdfDrFOeoUp+zIliihaseuC1tiE2UoHCFSdiHK8CeY74zMgp/hPPFGYPX92cCaxEc+nyrmOerSPKL39W81nR9/sIixIdH3haL72+2xd5nbMmmTo6mZaKeUocw03RX7dON6Qdzg3hZzSjoRh+VDL057X+mkXOoT137e15Ii3lbrhtBCt5IzCDH1tanB+2S9cuKp+PWS61eRpqc8TCmTPLCBBJAAEkACSGARCAjE5NO9npRbCoZkH0fUojN+MvDuAe+lkxe688JZYf1W1RgInJ14VpWrtHFXomniWopTadugtJm8d8SXHCltuDN5SXKoTWszTdfy7oTv4KH6M9cMbL1/yNwXPj/A8V7NVycHFSFb4onJpXs9I56JMhwDVhk+ZYLB/JWR6J18rWGii8sFUk/05Wcdm2/KtjapnoCpFBzxM97s+JpsNNuccmCndVtENzUGD2mXmDI9yd3l4yHXqk2Cp4EXJKPYM/YNFGaXaULlqNSnCU1reF4x0t3SqQO6tTyhrmfaV//U0Juzg19RQl9u8DLP75jGBDchASSABJAAElh4ArSrqwvuhXoLtz40sCbA97zY8frJicUFnDSjygWKG+4YWXeV7Kwckg3ZceaV1oOnLm87v2XMWN/SF7y3+bbewetHSgd/ps509gMfTL705xErRAJIAAmsGALg00K9+Z2fSDUFFY+DyBfC3acvvyC4LDcj5333ee97Ds3nNzidK+aEGY+XE14LUMaE95UZFALNXwhcmUPDUSEBJIAEkMByIwAtNSg1nAHVRYXk+6Hf7A9lZ/obevZjNhQhN1Jt2sKVUW0FuB8SQAJIAAkgASRQK4HLX0Cp1RnzkAASQAJIAAkgASRAptzEiEyQABJAAkgACSABJDB/BHCpMX8s0QkJIAEkgASQABKYQgCXGlOQ4AYkgASQABJAAkhg/gjgUmP+WKITEkACSAAJIAEkMIUALjWmIMENSAAJIAEkgASQwPwRgL7sCvZiNtzR+3tbrKeYV94zWv/cj+pyk5+b6VozfM89OedIeO/T4eT4o7tBzxrEJVJGDZUvZAo+wmsh6aI3EkACSAAJzIpAzUsNmjke+a0qRTvzHY3TryPcUcnvNLmoFBQJs9QwA13pTVtzzTFN0IR0b+DIm3V9mRqfFE5IzWXMQImq6x/o3dYytmgyFD4/5D31Vv3x/rF3lnGecteN6a6rpFDA4DQ+N+A9+lr0zMTz2mdwHd8sCGse87Y41GPfKiXHnxlO21zbP+M03yr8Zt80L2Mbz6z2t0vOPZBM3ySpQbP0j0Wx11P3/Vigr2a81XaL+yEBJIAEkAASmIlAzUsNIg/5jw35XVmlrbE07aEs/dvGvRnJkfFcsN45OvpjRrZfvOtWNd0dfuuAU+KVzpuTdzwgv/lU07n8+C6z/F1TGZfvQxpx5SQiBpRQW27bxzX9X1pOZAkN5nd+amhVwCQ6X0iLhksLNOjm9KOfrgthjSMWItLbSuW1sGN7iDHeScklRNMlVrvNLD8wMLze0/C4O/c5xf/NILdaE9LTTk61jrgfEkACSAAJIIE5EqgsNZzy1TuTa9dIAbdpyEJhxHXxSPid9x2+G/vu2ynRVN3Pv1+fNAih6voHe7c1k8yv2/79gHPmZ4eanfedvf3q8RMDw5EXfhBOV1pcLH3LLXLq9bY9hx0GJdR0JQYE4ffjW24qXdjj0Rxy187kujVSwGMaMl8Yccffqzt83DnvZVSBjIsfaH3jDCWCtPWR/usi5dY2/USWdN6W6AyYysXw/ufDg9YKw3R4DI15T6y5PnHhy0X34+2xQ1NvgqFcdIvgMPWew9ooO9daV9etYqCR4wjx7PD9zg6rMOVw8VcvmZ2P+Vqzck9J7LiGSofLPUXH1Tt5cl56998UutO39XYu+WIp0+psXSs4OSN/VD71slLUCNXldk18J+DrUfKGJlxwe85VMVbcBQkgASSABJDAQhLgCDEbd8Rv3lQKCcLIRVemSLzNxbCTMwjJHg3GZcLVFVY3WysFGii2N5hEd545BqwzrGKzZ4On3vfFk2MXHcbrNxs2ZuuKge7jZM3u3of+5PQjX+j58HbSe1ZwdxYjnNmwY+CWzaWQOFoG9TYXIgtSxng51fzmDaEyCEOnxFVavVqnpnj69dF1hoVEKfGTllwmJTohkzaNd0MjYtMqqp9XhhJjm6iTUsWQy1ZTz+jpHi3do2UTY2925VY5Gt2GbFLfNveaq0xZoc7VjnCokktp9MPeziYze1qTCBfc7F53u/UqeZN3H3Not42M7JD1qUud8ULwNxJAAkgACSCBxSQgEGJ6/DolpNxb9+YvAjmVUIcu6pUDbNF34uRI60a1Y235UL/HtbpQzxOtN9CThiuk6WPRg8eIuDb+wO7ipdP3nNLQoit9Hmnt8K419MwrMf7mREfAKA3zxKu5OZP6NKuMvtBbPw9mR8swFqAMuPYx1Wje2X/vdtNVpwTcxCx5z1/guJAS4AnRnSOJS2OymdHj9R1/WG/bONb0b3b4OTNxWJXGzveQcnf5SDep/3jgug1UPlo+MnGvBld5r52u9f1E4j/p72o3hl4uF3YI162jDs+Ym5mSjz4hZVXi3OLdvlvwrBf9+/Ws4fxZS3N+JHVvTg6TxFdN/9660NsObrzD6QvDrUgACSABJIAEFpKAQAgX7w6m2jPha4Y+tiqVOOc/dSh0bmC0T26gO5C5LhXqyje97vB1SbzJnX/PV6zt0EU1r4+UT/OhZplLhI+ddFx7C1FljhNMonKaySXeDaU60+Gu4fsfSyXOBk4fDp2NL0AZYzT19jvj11fO1ljfoBmq2/+qv3J6YUx2RSQXIboipHt8x9+MnCsSLmhy1jUTWtPNm06heSNHcsrAqVnAM3Qy+jJdQyPEJISS0UVI5Ts/el61alXiumQKXj/vdpJsmRi8+9VYy0FX/Bt58QQpfrav2NTa+pxzxsXR2HDxFxJAAkgACSCBhSJg3ashnY++9IS/c2P26vWF2LWp2NW5jj2t+98TTUKMRPBkX+am9uLqtQ5Xk2mW/GfO1v4qeUoJ5YimcMSlBWLlmM+kDrUppBpDwZRB5N76F7/nW3V9tmt9oeHaVOyabMeetn1H5r+MUZauOjnSMHbcN1S9soyYoMyde261da8G82MWhbJB/LwSCpHeJCNUEzquddR7SemAkqmsD6pJgfehPBmrjo4FdFK1RBG9z0cDvNy3uaw977Qg4g8SQAJIAAkggQ+CgECI4avXlJTr7EHX2V9Gm++8sGuT2rK+6D0aKpiEmMK5d7yb2vNNN2ZEkRSOBAZqPlYaQj5HOsJq6lAgsy6160Eued5N1w1vU51HfuovmVYZ6ngZTXf07bpBab6u4HuvLj+/ZYxR5k89u+bUbIibeXc8RWNR+Zodmb6XQ5UvkZiuiEpTjvJlDuSUa9gqCrp2/p1pzogYunXCQgxwPNG1qguibWLYoyZKxN0huCgx80bZ+hKLuqGgZlyuAiHUNFqLxRtU/pzDdstM1X3gjkgACSABJIAE5oGAQKjWefeFG+q5YlYsScQbs57KJedEefzwqfSEzmQK19VpxHCePeoae4aGoDZdW2yoV8JtsnUDYji37S49mXBePOFPKmrzukJjvVLXKllSKLf9Xn14yNV/3HexR7x+U6799Zaff88fdPDpFOeoU5yyI1uihKoduy5siU2UoXCESNmFKMOfYL4zMguEhvPEG4HV92cDaxIf+XyqmOeoS/OI3te/1XR+/MEixoZE3xeK7m+3x95lbsukTY6mZqKdUoYy03RX7NON6wVxg3tbzCnpRByWD7047X2lk3KpT1z7eV9LinhbrRtCC91KziDE1NemBu+T9cqJp+LXS65fRZqe8jClTPLABhJAAkgACSCBRSAgEJNP93pSbikYkn0cUYvO+MnAuwe8l05e6M4LZ4X1W1VjIHB24llVrtLGXYmmiWspTqVtg9Jm8t4RX3KktOHO5CXJoTatzTRdy7sTvoOH6s9cM7D1/iFzX/j8AMd7NV+dHFSEbIknJpfu9Yx4JspwDFhl+JQJBvNXRqJ38rWGiS4uF0g90ZefdWy+KdvapHoCplJwxM94s+NrstFsc8qBndZtEd3UGDykXWLK9CR3l4+HXKs2CZ4GXpCMYs/YN1CYXaYJlaNSnyY0reF5xUh3S6cO6NbyhLqeaV/9U0Nvzg5+RQl9ucE7/pywaRxwExJAAkgACSCBRSFAu7q64I6ot3DrQwNrAnzPix2vn5xYXMBJM6pcoLjhjpF1V8nOyiHZkB1nXmk9eOrytvNbxoz1LX3Be5tv6x28fqR08GfqTGc/8MHkS38esUIkgASQwIohAD4t1Jvf+YlUU1DxOIh8Idx9+vILgstyM3Led5/3vufQfH6D07liTpjxeDnhtQBlTHhfmUEh0PyFwJU5NBwVEkACSAAJLDcC0FKDUsMZUF1USL4f+s3+UHamv6FnP2ZDEXIj1aYtXBnVVoD7IQEkgASQABJAArUSuPwFlFqdMQ8JIAEkgASQABJAAmTKTYzIBAkgASSABJAAEkAC80cAlxrzxxKdkAASQAJIAAkggSkEcKkxBQluQAJIAAkgASSABOaPAC415o8lOiEBJIAEkAASQAJTCOBSYwoS3IAEkAASQAJIAAnMHwHoy65gL2bDHb2/t8V6innlPaP1z/2oLjcre6fiAAAgAElEQVT5uZmuNcP33JNzjoT3Ph1Ojj+6G/SsQVwiZdRQ+UKmzOoRXlRN/3Vv9mxLx7+6a3yK6mWGYsqfvNC3yd/+tbBj/r4vfZk+F1TmtNLHE8nfLSlBk5QE37+2Nh4Y+3dkrkr1/9cM/6O25v3ieAlG/svnBreN/tugzmfb2p7FF+2Os8HfSAAJrAwCNS81aOZ45LeqFO3MdzROv45wRyW/0+SiUlAkzFLDDHSlN23NNcc0QRPSvYEjb9b1ZWo+xtVcxgzTS9X1D/RuaxlbNBkKnx/ynnqr/nj/2DvLOE+568Z011VSKGBwGp8b8B59LXpm4nntM7iObxaENY95WxzqsW+VkuPPDKdtru2fcZpvFX6zb5qXsY1nVvvbJeceSKZvktSgWfrHotjrqft+LNBXM95qu12W+wWk7P+Wym4rK0GTFkXH+/7I98Ke3OWHYq5PDX1Mdj/R0tQtEJdOcpf+EVGJFwcdfJ49Wcj5v7nGx5mEU1J/01e8vP2lPcxwOXdvOnNnydzX2vFDV7WzSLXM13qLb3a2vDabZ+7VlnWpWIyQABJAAjMSuPRfyRl3mUGQh/zHhvyurNLWWJr2P4Lp3zbuzUiOjOeC9c7R0R8zsv3iXbeq6e7wWwecEq903py84wH5zaeazuXHd5nl75rKuHwf0ogrJxExoITacts+run/0nIiS2gwv/NTQ6sCJtH5Qlo0XFqgQTenH/10XQhrHLEQkd5WKq+FHdtDjPFOSi4hmi6x2m1m+YGB4fWehsfduc8p/m8GudWakJ52cqp1vGL385cSfxnPEV/dD5s8A5wZUOU2KlS3EDDDmq65fG+4ROulNpP/BQ0EG78WtEMzCdVnPQvG9Ym+L+Zpd8A5UJrdp4NT1ejkE4z2gqZr15Y1nRNuQwJIAAnYCFT+Q+mUr96ZXLtGCrhNQxYKI66LR8LvvO/w3dh3306Jpup+/v36pEEIVdc/2LutmWR+3fbvB5wznws3O+87e/vV4ycGhiMv/CCcrrS4WPqWW+TU6217DjsMSqjpSgwIwu/Ht9xUurDHoznkrp3JdWukgMc0ZL4w4o6/V3f4uHPey7AhmK7JxQ+0vnGGEkHa+kj/dZFya5t+Iks6b0t0BkzlYnj/8+FBa4VhOjyGxrwn1lyfuPDlovvx9tgh9u/a0R4oF90iOEy957A2ys611tV1qxho5DhCPDt8v7PD2k85XPzVS2bnY77WrNxTEjuuodLhck/RcfVOnpyX3v03he70bb2dS75YyrQ6W9cKTs7IH5VPvawUNUJ1uV0T3wn4epS8oQkX3J5z0w1u2m1UKz4UH7m9pDo5x7uh+u+FPdnR/Qzl5tTIR/KlVp2URPebkfpnfA6FEFFJ/0Vfuhxt+0ZAtD4bWv6LfcPhYOt/DzsVQpxy7j9VTq64qHgsGEyMH2h5aeR/9hffbG//maPibkoPXujfYF1bEa9J9P6+4RuUsjfo4v5IUMyO7FS5d6It/19ANNX0X18ovRtzr0rnujSd55y/Ckd/GHCOnxiadkDgRlPencj6vA1/1ugfe9uuy/0umGEtKkqJvxku1Om6xzB5MvCDyupY9TV+tskvm9Kn+vrvl01roNT9Lx2tL09cQIFtZ8BLCHe8runPI44hM/eVTLVLjVh24C9GShHdEAn53LnTn7OKcTzf2v5vLgrMV2jmLLh2VJEAEkAC1REQCDEbd8Rv3qQRyZG4yFO3Fmwuhk/WG4Rkjwbj26W2usLq5kiyn9JAsb3BJLrrzDFgnWF1mz0bPKVrvmi5qZ69tmI2bMzWFQOvHCdrdvduvUYRNCF1uOHwWaHrqmKEc5MdA7dsVpkyCpFTkQUoozowo3vxhmBdOaGGTomruHq1Tk3x9Ouj6wzrv+NKafI5apMSnZBpV2E0Ijatovp5ZSgxVgF1UqoYcpkTfUTP6LnKekxLjL3ZlVvlaDyny6bg2+Ze06fJCg2sdoRDStrql0Y/7A0NqSOntcA1QnCze11ZP7RXN3j3McfIrpGRlEOfutQBx63fksr+R6Txzxq4+nzyj5OD/8nZ+Q9ejhBtx9DFP1C9/9LU3i3S+mLqj4biItf+pIdTHXXfiZb/e2LoblfLy6L2oaHEWkf9X9ZZ6wxilB6JD28X677TFuyh6k3JoYcU0g92XxHNtqLySlvHL0f6vjic3tfc/mfK4P/I5FsCYSvXLH007fy75o6/E0ioNPKVgfin+Y5/9nKz/+vd6opXCjeo/Nsx39g64/K1WXto7vDfttYRYtw0dOFTNPqnMa9mzQVvDZm6nm5f82PTCBQT/9fgtG/wnbaPGfESQlTBMUgI1ae+K3haK2vjiD/2da8plJP/Y0j7WVvjQevDScu8tf4B5gvImrEnFJAAEkACsyBgLTU8fuv0brm37s1fBHIqoQ5d1Cu3JhR9J06OtG5UO9aWD/V7XKsL9TzRegM91tEO+KHpY9GDx4i4Nv7A7uL437OEcEpDi670eaS1w7vW0DOvxPibEx0BozTME6/m5kzq06wy+kJv/TyYHS3DWIAygMIvSUbzzv57t5uuOiXgJmbJe/4Cx4WUAE+I7hyZ+Bv90v5jET1e3/GH9VM2Vzb4Nzv8nJk4rErjh8dyd/lIN6n/eOC6DVQ+Wj4yca8GV1m/6FrfTyT+k/6udmPo5XJhh3DdOurwjJmbKfnoE1JWJc4t3u27Bc960b9fzxrOn7U050dS9+bkMEl81fTvrQu97ajmeGyO+KNP+6zbNlPBugPZ4nZJ4b0uImc/WuRfbI++7rDmMRuo/2mx57O50o88PpmQ4UDDP5f7HhtKFb3lBxTPP7cFByuz7Szlbtadz7dE3rFOXQivROu2FhPjhU8PZ3Sr7vR2iwJ1iVrZedAjDFOHlNFC5ugyhTtSFz4iWB1kPOGXPNnP5oo/9PrLkN+MGqepUSLuFS99OGfclRUon7LOAhpFSkyOTwuCbU1hUK7A0WkXmqzNRMyDeCd2q75KneNTHBGsGmhREFKT18EzzRecNVEGBkgACSCBWgkIhHDx7mCqPRO+Zuhjq1KJc/5Th0LnBkb9uIHuQOa6VKgr3/S6w9cl8SZ3/j1fcfxYObtOqeb1kfJpPtQsc4nwsZOOa28hqsxxgklUTjO5xLuhVGc63DV8/2OpxNnA6cOhs/EFKGOsaL39zvj1zWMjMYbq9r866bDlikguQnRFSPf4jr8ZOVckXNDkrGsmtKabN51C80aO5JSBU7OAZ+hk9GBhaIRYJ1fI6CKk8p0fPV850ClxXTIFr593O0m2TAze/Wqs5aAr/o28eIIUP9tXbGptfe7yX3ngz7qs6yDWD+ULHBEMq063LDeaykf7zn14jBrhTENwaX5CKhcv+N9GY6/3xT+fEvY0N/9q/K6FOlV18M6z41cQTN55XiDrxh2A3zrPFwhxU2rwfK5ygNXNib/p+URlnVFJp0MiL5TUekL6ADvrlED2z3uGN44hp+9HO78eEsYnoPojONjHHMTL4Z2D9fSp08/X9PviViSABJDAvBGwDg/S+ehLT/g7N2avXl+IXZuKXZ3r2NO6/z3RJMRIBE/2ZW5qL65e63A1mWbJf+bs5D+VZlMJpYRyRFM44tICsXLMZ1KH2hRSjaFgyiByb/2L3/Otuj7btb7QcG0qdk22Y0/bviPzX8Zoya46OdIwdtgxVL2yjJgYDHfuudXWvRrMj1kUygbx80ooRHqTjFBN6LjWUe8lpQNKxvaHcDXJ0+1DeTJWHR0L6KRqiSJ6n48GeLlvc1l73mlBBH/o2NeWJ+9kZVHPU23Rdxhz6w/68d2ortXrRCdGVNUpYU+fULbHmW+KNJnKqD4+JpNS69rEpB9zfCVjbR39PhDbxaR9xxsm7/+ndrd7vCnzo3nEEMQRUm5WTXJp+TK+0yL+vizeea9l5vma967QEAkgASQwQUAgxPDVa0rKdfag6+wvo813Xti1SW1ZX/QeDRVMQkzh3DveTe35phszokgKRwIDNR8rDSGfIx1hNXUokFmX2vUglzzvpuuGt6nOIz/1l0yrDHW8jKY7+nbdoDRfV/C9V5ef3zLGhs6fenbNqQkMVQRm3h1P0VhUvmZHpu/lUOVLJKYrotKUo3yZYx7lGraKgq6df2eaMyKGbp2wEAMcT/Qpx9cZ66JtYtijJkrE3SG4KDHzRtm6d1DdUFAzLleBEGoarcXiDSp/zjF2fJ3Ra2ZBcjqHSL5FF16d9pEbpnLvUGKNO/Z1X+mLw0MfdrX8e+X0SdohyrrcqpPjldUBNdTWiYFZ97KYLuuUibV4obrSNiHNXEZF0VtlnbpHz0no7YqmiY6Ry6QQQrikY/QG1Em76g5vt5C+JVf6idtb61efJhnW1rgM3tpMLayVT9TUD+UM8zXWz0xZNZeBiUgACSCBMQICoVrn3RduqOeKWbEkEW/M+vNWzony+H+plJ7QmUzhujqNGM6zR11j93kKatO1xYZ6JdwmWzcghnPb7tKTCefFE/6kojavKzTWK3WtkiWFctvv1YeHXP3HfRd7xOs35dpfb/n59/xBB59OcY46xSk7siVKqNqx68KW2EQZCkeIlF2IMvwJ5jsjs/ggGM4TbwRW358NrEl85POpYp6jLs0jel//VtP58ZtfjQ2Jvi8U3d9uj73L3JZJmxxNzUQ7pQxNdxdisU83rhfEDe5tMaekE3FYPvTi5S/3U5+49vO+lhTxtvIcIYVuJWcQYuprU4P3yXrlxFPx6yXXryJNT3mYUmYxXGtX3Rn8mTf3R0MDmfrwL12CYWit5VKDGPyFhzeJcXVq8BOa79tNgVO895/KfV8cGjnVWn+CI7I7cFCI3z+c6Y/6+4m6bSS1ziSjl+R00dnLpW/O5H9V7x0xlZtGMmvImHTZ0q7KJHY563/tIE355H1l/mCzp9ovZky1pq4X6303DQ7+BQm/4HclKPFrclDw/4e79mWZdYg3DZ9hcsR0G4ZIONuiXLAuBpmCaS2yRv9xgXinFm3bMvZh+4f22DuTZ9gQHYOksCNbei/kLJm6m4qD1p2hM87XqO8MWbZOsYkEkAASqIGAQEw+3etJuaVgSPZxRC064ycD7x7wXvrvpO68cFZYv1U1BgJnJ55V5Spt3JVomriW4lTaNihtJu8d8SVHShvuTF6SHGrT2kzTtbw74Tt4qP7MNQNb7x8y94XPD3C8V/PVyUFFyJZ4YnLpXs+IZ6IMx4BVhs+6u3/0Z/7KSPQylwPG7av5LfVEX37WsfmmbGuT6gmYSsERP+PNjq/JRh0m7i2YMKR1W0Q3NQYPaZeYToiEyN3l4yHXqk2Cp4EXJKPYM/YNFGaXaULlqNSnCU1reF4x0t3SqQO6tTyhrmfaV//U0Juzg19RQl9u8Nb+ddCxPoW3Glul9MhHkvH7NYNw/JDTsz9iXRzxF5OPpc3XWqKHrA8B/259w96++GMJ99cavDnO88PmBiOR+pPepIsT3w3VP+MZ3DlqyPn+V0PoPyeT/+38sM47D9VFf2QO3DHN+KZuEl+rc1+V7H9Q1g3B9ctY8w887PWaqftfZkvG1/DXzZlPpnKPDox4TZoXnW/W+y+TM7NMtexXLiQ26ubov4hPXjj7vxNa8Eb/rDmY0rJf6hvZoOvOyiKjpe/MRyiX9Ua/1hRIkRnxEkLE4tC3Bwsua3Viru8/t4uSnnDb1+vYJ66OdWeryxBD/9SgPZoa/Nu0wVHhlw1t3/HxPmC+KvnTZk3+bNv6wSYSQAJIoEoCtKurC96Vegu3PjSwJsD3vNjx+smJxQWcNKPKBYob7hhZd5XsrPwlZsiOM6+0Hjx1edv5LWPG+pa+4L3Nt/UOXj9SOvgzdaazH7N6MPnSH/Loo9NPz+aJmUt/UFghEkACSGDFEGDvtZsyaG9+5ydSTUHF4yDyhXD36csvCKZY2DcYOe+7z3vfc2g+v8HpXDEnzHi8nEhdgDImvK/MoBBo/kLgyhwajgoJIAEkgASWGwFoqUGp4QyoLiok3w/9Zn8oO9Pf0LMfs6EIuSru6Rs1XrgyZl84ZiABJIAEkAASQAKzI3D5Cyiz88O9kcC8E8ALKPOOFA2RABJAAotIAJcaiwgbu0ICSAAJIAEksPIITP6a3MobP44YCSABJIAEkAASWFACuNRYULxojgSQABJAAkhgpRPApcZK/wTg+JEAEkACSAAJLCgBXGosKF40RwJIAAkgASSw0glAX3Zd0Ww4rfTxRPJ3S0rQJCXB96+tjQfGWQESgAzIAiQ0ZAkAoACJdbDFQBYg2UzYJpAFSKxD9TFgCEiAP5AFSGjIEgBAARLrYIuBLECymbBNIAuQWIfqY08+/njO+6WW4MQLGqvPxT2XFIE5T2Xl8El16e5k4t6CHDa5pMv3QrR+v3Psqc/UkO5KJHcXpIjJJVy+l6L1e5ePNIepMtenhj4mu59oaeoWiEsnufF1BiGABHQIZAESGrIEAFCAxDrYYiALkGwmbBPIAiTWofoYMAQkwB/IAiQ0ZAkAoACJdbDFQBYg2UzYJpAFSKwDxkigBgLWEVTbMRx/QPU+1RQ9yek3jAz9QdzItze+bT0bVL9lKP6Q4n2qqf4EZ2xKDT560Sh0NP5yeUg14JhIMcOarrl8b7hE68Ull9YZhBBAmkifGgBZgDTVZ2ILkAVIE+lTAyALkKb6TGwBsgBpIn1qAGQB0lSfiS1AFiBNpE8NgCxAmupTzRbAEJAAZyALkNCQJQCAAiTWwRYDWYBkM2GbQBYgsQ4YI4EaCNCuqzvT/603d6K1/UcuSvXi5y4M3qybZ+o7/8+QQNTMX/ZmzrV0/MBtSZ/tG9yhmT31Hf8tJC59qbY3RQmlxN8MF+p03WNcepeV6mv8bJNfn1kC3mqGhqOfSmQ49RMFfGyAf8r4icJP1Ez/jQI+UfP+sQE+ohPSnM+6Tzhh8AETmPNU0q7rmgb/cZj7f1bFjlD9hqG+P9JDPxLSDxuxxxq9ZnHwH4fot1Y1dFN903Df/6GGfujIfFqvf6zRZyx5CfhXB02aqYd1kxDjpqELn6LRP415NeuNqXyapyYgAY5AFiChIUsAAAVIrIMtBrIAyWbCNoEsQGIdqo8BQ0AC/IEsQEJDlgAACpBYB1sMZAGSzYRtAlmAxDrMPp7z8Wn2XWLGwhCY81QKxK3rnCDmKq8Ff7ToeLoteKqQF0uamxBT0wXelSPEWxr5TEF8pi14spAXFN1LiLbkpRqXGpRPWZdLjCIlJsenBeHSm98BCZhdIAuQ0JAlAIACJNbBFgNZgGQzYZtAFiCxDtXHgCEgAf5AFiChIUsAAAVIrIMtBrIAyWbCNoEsQGIdMEYCtRMY/bKrSahRfChRjEeir4nUJMQkhBJiUuv/OKP04HBhKBLbJ1KDUNO0Lk0sfal2JpiJBJAAEkACSAAJzBsBjpQEXtPl2xOJLY7IE0HRIGZQ03WeLxEi8byiK7clh28Ux6SQrpm8UFwO0rwhQiMkgASQABJAAkigdgIcUZ2u80bxrpLj6Whw2DpfoWwsaf0up0qIVpF2FcQfx4KDy02qnQlmIgEkgASQABJAAvNGgCOm4H/FJ+gcx6tyu1TaNTx0j+7d4xOtyyiC7xd+Qec5TpXb5dKHhod2a569ftFYDtK8IUIjJIAEkAASmE8CxoZE73fPD282ppqixDJZIjTYkmqLrVsg+d/Emr+fTHxksO/3DTri9D3dHH1r7EkS/OFo8xPJxH2DfY8YNO30/rg5+saykWojgllIAAkgASSw0AQuPU1gSk8osUiWCA22pBpi2tXVVUMapiABJIAEkAASgAjM+RuSkDlqi0lgzlOJr1tbzOnCvpAAEkACSAAJrDgCuNRYcVOOA0YCSAAJIAEksJgEcKmxmLSxLySABJAAEkACK44A3qux4qYcB4wEkAASQAJIYDEJ4FmNxaSNfSEBJIAEkAASWHEEcKmx4qYcB4wEkAASQAJIYDEJ4FJjMWljX0gACSABJIAEVhwBXGqsuCnHASMBJIAEkAASWEwCzFLDn4s/Gc/5FrN37AsJIAEkgASQABK4wgkwSw2J58ocL1cGzGy+wgHg8JAAEkACSAAJIIGFJMBHImHpwb7+hwpSs6Y2q1q0nH14ONXkCnaLdCE7Rm8kgASQABJAAkhgJRDgI5EI3+P1nnGQtbn8GkXP+sPPhkO/dQoSrjRWwgcAx4gEkAASQAJIYGEJWFdKaFEQVTm/gQ9/MyJeXZBlhyONV1AWlju6IwEkgASQABJYIQRGlxSmsr5M3ooEu4ORN0l5o2yskNHjMJEAEkACSAAJIIEFJoAPJl9gwGiPBJAAEkACSGBlE8ALJSt7/nH0SAAJIAEkgAQWmAAuNRYYMNojASSABJAAEljZBHCpsbLnH0ePBJAAEkACSGCBCeBSY4EBoz0SQAJIAAkggZVNAJcaK3v+cfRIAAkgASSABBaYAC41Fhgw2iMBJIAEkAASWNkEcKmxsucfR48EkAASQAJIYIEJ4FJjgQGjPRJAAkgACSCBlU0Alxore/5x9EgACSABJIAEFpgALjUWGDDaIwEkgASQABJY2QRwqbGy5x9HjwSQABJAAkhggQngUmOBAaM9EkACSAAJIIGVTQCXGit7/nH0SAAJIAEkgAQWmAAuNWYPmNNKnxi48A9nzzx15sx3zw/u1GZvgRlIAAkggSudgCcff/Jitu5KH+ZKGN+cp1KwKFFdujuZuLcgh00u6fK9EK3f7+TMCj9qSHclkrsLUsTkEi7fS9H6vR+EBMwlUCGQBUiXMzTXp4Y+JrufaGnqFohLJ7kKw1oNzXA5d286c2fJ3Nfa8UMXBXwmJKBCQJpInxoAWYA01WdiC5AFSBPpUwMgC5Cm+kxsAbIAaSJ9agBkAdJUn2q2AIaABDgDWYCEhiwBABQgsQ62GMgCJJsJ2wSyAIl1wBgJ1EqAj0Qi2s6h/k8r7mcbYs8EPXI5/XBG6Qv4LlonPPRbB/sflV0/aYg9HfSWpdTDaSUe8PUvtgSMDqgQyAKkyxqaa7Op68Xwt0LuAsfnBV4BzCwJMDSuT/T91Yic8zhNSUsEQkeEapYagCEgAVUCWYCEhiwBABQgsQ7Vx4AhIAH+QBYgoSFLAAAFSKyDLQayAMlmwjaBLEBiHWYdi0p+t+x4JeCSZp2KCUuLwJynkiNUze8q8q/GYns8rj6RNCqmphfuzmuUWNKHitzeWOxVSzIbFFMzCnfn1UWWKsiNVbnEn17o+eczZ3549tw3LiY3Vy5bABXWNlGAoVBK/M/zPd89e+4/F01nfuAHp0//r9OnfzCQd4I9AYaEcMfrmv68s/3v6zxZ0IQVAUNAYh1sMZAFSDYTtglkARLrYIuBLECymbBNIAuQWAdbDGQBks2kyiZgCEiAOZAFSGjIEgBAARLrYIuBLECymbBNIAuQWAeMkcAcCHDEIcttnPuokxKib04mbnBGngzwHZIsEiIoUjvnfs86q69fP5LYLkaeCAptkuxYXIkQEssO/sVwkfii32hr/2pr0099rgRvjRqosDYogKHmDv9ta9tXO9qf8lDZG/vCqlWPrVr1xzEffFYDMCSEqIJj0DpFZFZ/zwxgCEgADSALkNCQJQCAAiTWofoYMAQkwB/IAiQ0ZAkAoACJdbDFQBYg2UzYJpAFSKwDxkhgDgQ44tZ1TuBzhPiLyUeLjqejwVOiIOqamxC3pgu8kCPEWxr5TEF8JhY8KfCCrnsXVyKm/DvZkuqPfjvsO+F0XHS6DwZ9/ZVLDUCFtUGBDCmfEoSUIBQpMTk+XYlTPB29qWWm7iBDJqeaCyejuwOGgMR0ZQ+BLECyuzBtIAuQGAN7CGQBkt2FaQNZgMQY2EMgC5DsLtW1AUNAAryBLEBCQ5YAAAqQWAdbDGQBks2EbQJZgMQ6YIwE5kBg9K9pk1Cj+FCiGI9EXxOtY6dJCCXEpNb/cUbpweHCUCS2T6QGoaZpHVsXUyJEbVXIebd76gU/oIzaoCxrw9qKB7IACcALZAESGgIEWAlgCEisgy0GsgDJZsI2gSxAYh1sMZAFSDYTtglkARLrYIuBLECymbBNIAuQWAdbDGQBks0Em0igVgIcKQm8psu3JxJbHJEngqJBzKCm6zxfIkTieUVXbksO32hdOrGkkK6ZvFBcXGl0bKMLINs4gQpte1bZXNaGtRUPZAESwBPIAiQ0BAiwEsAQkFgHWwxkAZLNhG0CWYDEOthiIAuQbCZsE8gCJNbBFgNZgGQzYZtAFiCxDrYYyAIkmwk2kUCtBDiiOl3njeJdJevSybB1vkLZWNL6XU6VEK0i7SqIP44FBz84iRBhUCTtsnWPiO0HqNC2Z5XNZW1YW/FAFiABPIEsQEJDgAArAQwBiXWwxUAWINlM2CaQBUisgy0GsgDJZsI2gSxAYh1sMZAFSDYTtglkARLrYIuBLECymWATCdRKgCOm4H/FJ+gcx6tyu1TaNTx0j+7d4xOtswiC7xd+Qec5TpXb5dKHhod2a569ftFYXIlQ54GAy5cd/qN08SpFbZaljfn8tbo1ZKDC2ogsa8PaigeyAAnAC2QBEhoCBFgJYAhIrIMtBrIAyWbCNoEsQGIdbDGQBUg2E7YJZAES62CLgSxAspmwTSALkFgHWwxkAZLNZP6axoZE73fPD282plqixDJZIjTYkmqLredqcHGPJ6cWPpxK3ZcttFHPc42x1xyj9ylygx5PRi3srkid1P18Y2yfY/T+jsWUaM7tPckpN+TSH0tnduWL12j0jM9befIHUEZtRC5raHbm05up7wWfY5p/JtP0CRmKxaHv9A19IlNsNPWufOaj6fQm6nvDzYO3mgKGgDRNZeObgCxAGs+e5jeQBUjTGI1vArIAaTx7mt9AFiBNYzS+CcgCpPHs2f0GDAEJ6APIAiQ0ZAkAoACJdbDFQBYg2UzYJpAFSKzDrOOZH8ZgNpSyt6ji20HvoP2WeJRYzkuEBlURxAAAACAASURBVJl5KtlqgZh2dXUBMkpIAAkgASSABGoh4MnHH895v9QSTNeSjTlLiMCcp7L65zksoVFjKUgACSABJIAEkMByIYBLjeUyU1gnEkACSAAJIIFlSQCXGsty2rBoJIAEkAASQALLhQDeq7FcZgrrRAJIAAkgASSwLAngWY1lOW1YNBJAAkgACSCB5UIAlxrLZaawTiSABJAAEkACy5IALjWW5bRh0UgACSABJIAElgsBXGosl5nCOpEAEkACSAAJLEsCy3GpYcqf7D3zNyllOda+LD8kWDQSQAJIYPYEPPn4kxezdbNPxIylRmDOUylYI6K6dHcycW9BDptc0uV7IVq/38mNPhubGtJdieTughQxuYTL91K0fu8HIQHcgQqBLEACDAEJDVkCAChAYh1sMZAFSDYTtglkARLrYIuBLECymVTZBAwBCTAHsgAJDVkCAChAYh1sMZAFSDYTtglkARLrgDESqJWA9Q4UbedQ/6cV97MNsWeCHrmcfjij9AV8lTeM6LcO9j8qu37SEHs66C1LqYfTSjzg67fOJyymZBudvj6ba3QG91vvCgHKsGVV2QQMAQkwB7IACQ1ZAgAoQGIdbDGQBUg2E7YJZAES61B9DBgCEuAPZAESGrIEAFCAxDrYYiALkGwmbBPIAiTWYdbxnF+cMeseMWGBCMx5KjlC1fyuIv9qLLbH4+oTSaNianrh7rxGiSV9qMjtjcVetSSzQTE1o3B3Xl1kiRDilHN/cLH3n86e+ddzvV9NlX3jb+gBKqyNOGAISEBfQBYgoSFLAAAFSKyDLQayAMlmwjaBLEBiHaqPAUNAAvyBLEBCQ5YAAAqQWAdbDGQBks2EbQJZgMQ6YIwE5kCAIw5ZbuPcR52UEH1zMnGDM/JkgO+QZJEQQZHaOfd7Lku6fiSxXYw8ERTaJNmxuBIxSo/Eh28yfd9p6/xCW+xdJXO7MjZkoMLaoACGgAT0BWQBEhqyBABQgMQ62GIgC5BsJmwTyAIk1qH6GDAEJMAfyAIkNGQJAKAAiXWwxUAWINlM2CaQBUisA8ZIYA4EOOLWdU7gc4T4i8lHi46no8FToiDqmpsQt6YLvJAjxFsa+UxBfCYWPCnwgq57F1dylnI3684XY5F3HEJGdL8SrTs1PmKgwvFdZvcbMAQkoA8gC5DQkCUAgAIk1sEWA1mAZDNhm0AWILEO1ceAISAB/kAWIKEhSwAABUisgy0GsgDJZsI2gSxAYh0wRgJzIDD6LQ6TUKP4UKIYj0RfE6lJiEkIJcSk1v9xRunB4cJQJLZPpAahpmndMLqYUp2qOnjnWXFsmCbvPF+5mxUuozYotY0L6AsNq/zYIEOAACvhJwo/UTP9Z5n9nNjief/Y2PyxiQRAAhwpCbymy7cnElsckSeCokHMoKbrPF8iROJ5RVduSw7faF06saSQrpm8UFxcqTIAawE08aOP36sBVDix86wCwBCQgC6ALEBCQ5YAAAqQWAdbDGQBks2EbQJZgMQ6VB8DhoAE+ANZgISGLAEAFCCxDrYYyAIkmwnbBLIAiXXAGAnMgQBHVKfrvFG8q2RdOhm2ThQoG0tav8upEqJVpF0F8cex4OAHJ6UdoqzLrfrYMKmhtmpjMVBhbVAAQ0AC+gKyAAkNWQIAKEBiHWwxkAVINhO2CWQBEutQfQwYAhLgD2QBEhqyBABQgMQ62GIgC5BsJmwTyAIk1gFjJDAHAhwxBf8rPkHnOF6V26XSruGhe3TvHp9oXUYRfL/wCzrPcarcLpc+NDy0W/Ps9YvG4kqyO3BQkO4fzqxT9YAq/W4itW78FAdQYW1QAENAAvoCsgAJDVkCAChAYh1sMZAFSDYTtglkARLrUH0MGAIS4A9kARIasgQAUIDEOthiIAuQbCZsE8gCJNZhXmNjQ6L3u+eHNxtTXVFimSwRGmxJtcXWczW4uMeTUwsfTqXuyxbaqOe5xthrjtFLFNygx5NRC7srUid1P98Y2+cYvb9jESUqHvOI4WLmk8mRj+bL1Fv/H7TYIYw+VwMoozYigCEgAX0BWYCEhiwBABQgsQ62GMgCJJsJ2wSyAIl1qD4GDAEJ8AeyAAkNWQIAKEBiHWwxkAVINhO2CWQBEusw63jmhzGYDaXsLar4dtA7OH41fNwdpXES1u8lQoPMPJVstUBMu7q6ABklJIAEkAASQAK1EPDk44/nvF9qCaZrycacJURgzlOJ7xFZQrOJpSABJIAEkAASuPII4FLjyptTHBESQAJIAAkggSVEAJcaS2gysBQkgASQABJAAlceAbxX48qbUxwREkACSAAJIIElRADPaiyhycBSkAASQAJIAAlceQRwqXHlzSmOCAkgASSABJDAEiKAS40lNBlYChJAAkgACSCBK48ALjWuvDnFESEBJIAEkAASWEIEmKWGPxd/Mp7zLaHisBQkgASQABJAAkhguRNglhoSz5U5Xq6MiNm83EeI9SMBJIAEkAASQAIfIAE+EglLD/b1P1SQmjW1WdWi5ezDw6kmV7BbtD+b/gMsE7tGAkgACSABJIAElicBgRDq/Pfm5t8o5bsSxaCqhX3RJ0OO+Njr1pbnoCZVHSD8WsMxadNCNt7nlBwZf9/9QnaE3kgACSABJIAElgUBgRBCi4Ko5oc38OFvBop/VJCfD/rSV84VlLWG4wdyy6JNxiPOi7/myovWHXaEBJAAEkACSGCJExhdUpjK+jJ5KxLsDkbeJOWNsrHEq8bykAASQAJIAAkggWVCwDqrYV1D+XlzayVy/6BtNFgm9c+izG8Jqbf5hTrfsF13/xctPItqcFckgASQABJAAiuDwOhSY0WM9W2+vLCXNrQVgREHiQSQABJAAkhgVgSunHsyZjVs3BkJIAEkgASQABJYHAK41FgcztgLEkACSAAJIIEVSgCXGit04nHYSAAJIAEkgAQWhwAuNRaHM/aCBJAAEkACSGCFEsClxgqdeBw2EkACSAAJIIHFIYBLjcXhjL0gASSABJAAElihBHCpsUInHoeNBJAAEkACSGBxCOBSY3E4Yy9IAAkgASSABFYoAVxqrNCJx2EjASSABJAAElgcArjUWBzO2AsSQAJIAAkggRVKAJcaK3TicdhIAAkgASSABBaHAC41Focz9oIEkAASQAJIYIUSwKXGCp14HDYSQAJIYGEJePLxJy9m6xa2E3RfDAJznsrKm12pLt2dTNxbkMMml3T5XojW73dyZqV+akh3JZK7C1LE5BIu30vR+r0LJhFihsu5e9OZO0vmvtaOH7roBMLayphIn1UA9AVUCHQBGAISGrIEAFCAxDrYYiALkGwmbBPIAiTWofoYMAQkwB/IAiQ0ZAkAoACJdbDFQBYg2UzYJpAFSKwDxkigVgJ8JBLRdg71f1pxP9sQeybokcvphzNKX8B30Trhod862P+o7PpJQ+zpoLcspR5OK/GAr39BJOP6RN9fjcg5j9OUtEQgdESYWGrUVsYok1ZT/LgeIIT8TMhfpJd/0TvQF1Ah0AtgCEjAhAJZgISGLAEAFCCxDrYYyAIkm0mVTcAQkABzIAuQ0JAlAIACJNbBFgNZgGQzYZtAFiCxDrOORSW/W3a8EnBJs07FhKVFYM5TyRGq5ncV+VdjsT0eV59IGhVT0wt35zVKLOlDRW5vLPaqJZkNiqkZhbvz6kJIhHDH65r+vLP97+s82cmQaytjske1LaAvoELAHTAEJDRkCQCgAIl1sMVAFiDZTNgmkAVIrEP1MWAISIA/kAVIaMgSAEABEutgi4EsQLKZsE0gC5BYB4yRwBwIcMQhy22c+6iTEqJvTiZucEaeDPAdkiwSIihSO+d+z7qQoV8/ktguRp4ICm2S7FgAiRCiCo5B63yJabuBpLYyaoMC9AVUCPQFGAISGrIEAFCAxDrYYiALkGwmbBPIAiTWofoYMAQkwB/IAiQ0ZAkAoACJdbDFQBYg2UzYJpAFSKwDxkhgDgQ44tZ1TuBzhPiLyUeLjqejwVOiIOqamxC3pgu8kCPEWxr5TEF8JhY8KfCCrnsXQGLHMHHhZHRjbWWwhtXHQF+sia1CVrLFgCEg2UzYJpAFSKyDLQayAMlmwjaBLEBiHWwxkAVINhO2CWQBEutgi4EsQLKZVNkEDAEJMAeyAAkNWQIAKEBiHWwxkAVINhO2CWQBEuuAMRKYA4HREwgmoUbxoUQxHom+JlKTEJMQSohJrf/jjNKDw4WhSGyfSA1CTdO6YXTeJWAMtfUFGAIS0BeQBUiAISChIUsAAAVIrIMtBrIAyWbCNoEsQGIdqo8BQ0AC/IEsQEJDlgAACpBYB1sMZAGSzYRtAlmAxDpgjATmQIAjJYHXdPn2RGKLI/JEUDSIGdR0nedLhEg8r+jKbcnhG61LJ5YU0jWTF4oLIAFjqK0MwBCQgL6ALEACDAEJDVkCAChAYh1sMZAFSDYTtglkARLrUH0MGAIS4A9kARIasgQAUIDEOthiIAuQbCZsE8gCJNYBYyQwBwIcUZ2u80bxrpJ16WTYOl+hbCxp/S6nSohWkXYVxB/HgoMLLAFjqK0MwBCQgL6ALEACDAEJDVkCAChAYh1sMZAFSDYTtglkARLrUH0MGAIS4A9kARIasgQAUIDEOthiIAuQbCZsE8gCJNYBYyQwBwIcMQX/Kz5B5zheldul0q7hoXt07x6faF1GEXy/8As6z3Gq3C6XPjQ8tFvz7PWLxgJIwBhqKwMwBCSgLyALkABDQEJDlgAACpBYB1sMZAGSzYRtAlmAxDpUHwOGgAT4A1mAhIYsAQAUILEOthjIAiSbCdsEsgCJdZjX2NiQ6P3u+eHNxlRXlFgmS4QGW1JtsfVcDS7u8eTUwodTqfuyhTbqea4x9ppj9MZHbtDjyaiF3RWpk7qfb4ztc4ze3zHvEhGLQ9/pG/pEptho6l35zEfT6U3U94abN0ltfY0SAZ54MS0yoC+gQqAXwBCQpq1tdCOQBUhoyBIAQAES62CLgSxAsplU2QQMAQkwB7IACQ1ZAgAoQGIdbDGQBUg2E7YJZAES6zDreOaHMZgNpewtqvh20Dtov8ceJZbzEqFBZp5Ktlogpl1dXYB8BUg3Gu4fyC2EkEecF3/NlRdoRIvTywIVj7ZIAAkggfkn4MnHH895v9QSTM+/NzouKoE5T6XtERaLWjx2hgSQABJAAkgACVzxBHCpccVPMQ4QCSABJIAEkMAHSQCXGh8kfewbCSABJIAEkMAVT6DyZtcrfpQ4QCSABJAAElhkAiV/82f8i9wndrcgBOY8lXhWY0HmBU2RABJAAkgACSCBUQK41MBPAhJAAkgACSABJLCABHCpsYBw0RoJIAEkgASQABLApQZ+BpAAEkACSAAJIIEFJIBLjQWEi9ZIAAkggZVLwJOPP3kxW7dyAVw5I5/zVFa+gUJ16e5k4t6CHDa5pMv3QrR+v5OzXhVPCDWkuxLJ3QUpYnIJl++laP3eBZMIMcPl3L3pzJ0lc19rxw9d7BNrZ5SACifP83bdPXnDTC1D2ZbJ3lRWAoRmHe5fBoOHxp7FTsiMEmQOVAhIM1VX86SgIUsAIA9IrIMtBrIAyWZSZRMwBCTAHMgCJDRkCQCgAIl1sMVAFiDZTNgmkAVIrAPGSKBWAtZSQ9sxHH9A9T7VFD3J6TeMDP1B3Mi3N77NE0L0W4biDynep5rqT3DGptTgoxeNQkfjLxdEMq5P9H0xT7sDzoGSNHk8gARUONmD/BctTDTbthmab7aRN2cvzZABVAhIM5hZm4EsQEJDlgAACpBYB1sMZAGSzaTKJmAISIA5kAVIaMgSAEABEutgi4EsQLKZsE0gC5BYB4yRQM0EOELV/K4i/2ostsfj6hNJo2JqeuHuvEaJJX2oyO2NxV61JLNBMTWjcHdeXQiJEO54XdOfd7b/fZ0nax/OjBJQod3jA2oDFQISUCyQBUhoyBIAQAES62CLgSxAsplU2QQMAQkwB7IACQ1ZAgAoQGIdbDGQBUg2E7YJZAES64AxEpgDAY44ZLmNcx91UkL0zcnEDc7IkwG+Q5JFQgRFaufc71kXMvTrRxLbxcgTQaFNkh0LIBFCVMExaN07Yk69gWQmCahwHMr7nPKI82K1//Oc2f213+xe3/+I8+JD64/u+q/dH9t+bNfX3vuE7+IjgMT4v88p4z1XfgMVAtIki8kNIAuQJntMagFZgDTJYnIDyAKkyR6TWkAWIE2ymNwAsgBpssekFpAFSJMsqm4AhoAE2ANZgISGLAEAFCCxDrYYyAIkmwnbBLIAiXXAGAnMgYBA3LrOCWKOEH8x+WjR8XRb8FQhL5Y0NyGmpgu8K0eItzTymYL4TFvwZCEvKLqXEG2+JZkZBHuPBrPZCm2Se+Yyxg1zRJ/FC1392Ysbc66fhSL+8vAfD6ovtjUnCv0bS4GgO6jNLKVsVTJNoEKA4XjxjNF4iIZVfg6XNcPx2Z7mN34AVsIHYOnP8jQfTdyEBGYkMHoCwSTUKD6UKMYj0ddEahJiVg7qJqXWOQaj9OBwYSgS2ydSg1DTtG4YnXdpxgpBASgDzJtRBAwBaUa7WkGhIUsAIA9IrIMtBrIAyWbCNoEsQGIdqo8BQ0AC/IEsQEJDlgAACpBYB1sMZAGSzYRtAlmAxDpgjATmQIAjJYHXdPn2RGKLI/JEUDSIGdR0nedLhEg8r+jKbcnhG61LJ5YU0jWTF4oLINU2BqDCeTesrS8gC5CA4oEsQEJDlgAACpBYB1sMZAGSzaTKJmAISIA5kAVIaMgSAEABEutgi4EsQLKZsE0gC5BYB4yRwBwIcER1us4bxbtKjqejwWHrfIWysaT1u5wqIVpF2lUQfxwLDi6wVNsYgArn3bC2voAsQAKKB7IACQ1ZAgAoQGIdbDGQBUg2kyqbgCEgAeZAFiChIUsAAAVIrIMtBrIAyWbCNoEsQGIdMEYCcyDAEVPwv+ITdI7jVbldKu0aHrpH9+7xidZlFMH3C7+g8xynyu1y6UPDQ7s1z16/aCyAVNsYgArn3bC2voAsQAKKB7IACQ1ZAgAoQGIdbDGQBUg2kyqbgCEgAeZAFiChIUsAAAVIrIMtBrIAyWbCNoEsQGId5jU2NiR6v3t+eLMx1RUllskSocGWVFvMRyIRLu7x5NTCh1Op+7KFNup5rjH2mmP0/ktu0OPJqIXdFamTup9vjO0be57VvEtELA59p2/oE5lio6l35TMfTac3Ud8bbt4kgASUURsRwBCQgL6ALEBCQ5YAAAqQWAdbDGQBks2EbQJZgMQ6VB8DhoAE+ANZgISGLAEAFCCxDrYYyAIkmwnbBLIAiXWYdSwq+d2y45WAy/agJELMhlL2FlV8O+gdtN3qj9IkzEsEFJl5KieVO3ODdnV1zayiggSQABJAAkigJgKefPzxnPdLLcF0TemYtHQIzHkqpz7CYukMDitBAkgACSABJIAElj0BXGos+ynEASABJIAEkAASWMoEcKmxlGcHa0MCSAAJIAEksOwJ4L0ay34KcQBIAAkgASSABJYyATyrsZRnB2tDAkgACSABJLDsCeBSY9lPIQ4ACSABJIAEkMBSJoBLjaU8O1gbEkACSAAJIIFlTwCXGst+CnEASAAJIAEkgASWMgFmqeHPxZ+M53xLuVqsDQkgASSABJAAElhmBJilhsRzZY6XKwNgNi+zAWG5SAAJIAEkgASQwFIiwEciYenBvv6HClKzpjarWrScfXg41eQKdov2Z9MvpbqxFiSABJAAEkACSGBZELBet8b3eL1nHGRtLr9G0bP+8LPh0G+dgoQrjWUxg1gkEkACSAAJIIElTcC6UkKLgqjK+Q18+JsR8eqCLDscabyCsqSnDYtDAkgACSABJLBcCIwuKUxlfZm8FQl2ByNvkvJG2Vgu5WOdSAAJIAEkgASQwNImgA8mX9rzg9UhASSABJAAEljmBPBCyTKfQCwfCSABJIAEkMDSJoBLjaU9P1gdEkACSAAJIIFlTgCXGst8ArF8JIAEkAASQAJLmwAuNZb2/GB1SAAJIAEkgASWOQFcaizzCcTykQASQAJIAAksbQK41Fja84PVIQEkgASQABJY5gRwqbHMJxDLRwJIAAkgASSwtAngUmNpzw9WhwSQABJAAkhgmRPApcYyn0AsHwkgASSABJDA0iaAS42lPT9YHRJAAkgACSCBZU4AlxrLfAKxfCSABJAAEkACS5sALjWW9vxgdUgACSABJIAEljkBXGos8wnE8pEAEkACSAAJLG0CuNRY2vOD1SEBJIAElikBTz7+5MVs3TKtHstmCMx5KgXLjOrS3cnEvQU5bHJJl++FaP1+J2dWuqGGdFciubsgRUwu4fK9FK3fu2ASIWa4nLs3nbmzZO5r7fihizIjnTEEKpwxBxRAw3muEOxrxiqBLECa0Y4QIAuQ0JAlAIACJNah+hgwBCTAH8gCJDRkCQCgAIl1sMVAFiDZTNgmkAVIrAPGSKBWAnwkEtF2DvV/WnE/2xB7JuiRy+mHM0pfwHfROuGh3zrY/6js+klD7OmgtyylHk4r8YCvf0Ek4/pE31+NyDmP05S0RCB0RKhmqQFUWBsTwHDeKwT6AooHsgAJDVkCAChAYh1sMZAFSDaTKpuAISAB5kAWIKEhSwAABUisgy0GsgDJZsI2gSxAYh1mHYtK/v9v712A47ruM89zX/1uNIgGGhBFgIxkeBLJkkJpIsXWyitZfJQERXLsvKjheiW7tjI1qXGlVDMVe6c8nt3Z2irvTrlqPHE8E6VIl8eaCikpJUVmJPEhuZw4M1EpFdtStNabMh4GuhtooN+37719t26DpI4OiU/NBiDdbn8qFvk//eH77v/8zjF4fG+zMWNHnh2KNS/bSkO4CGx6KXWhOZX9NeNkLncqEZu1xETLd73qwYqriUDaV9NP53InA8kfb/luu3qw4myHJIT+yo4rvrxn6hs7EmuXgNz+pXLhX//s7T97443vvvnWf5gv7nWDLwIdXiKji5dgIO7w0ukgEEiXzuq8ClxAYqBMAIACkpyg1MAFJCWkyyEIBBIIBy4gMVAmAEABSU5QauACkhIiD4ELSHICaxLYBAFdRGx7Uo+/HNWE8PYWCzdGs0eHjN1N2xLCbDWn9PhLwYMM74blws1W9kjGnGzakW2QhBCOGVkM7pf4F7+BJLe2+L/nayI19h8mp/5o1xV/kYoVjGDWoMPeoOBA0OFGlwOBQNooDU+ZgfIW7WuGfd082IdA4pRlAgAUkOQEpQYuICkhHJJArwR0Efc83TTKQqRrxQdqkWNjmdcs0/LcuBBx1zMNsyxEsr78YNU6nsu8ahqm5yW3QZInoD448e3/ea3upMf+eCT102hkPhr/20xqrvNFoEM5sPu6y0C1w40vAAKBtHFej4vCQJkAIA8kOUGpgQtISkiXQxAIJBAOXEBioEwAgAKSnKDUwAUkJUQeAheQ5ATWJLAJAus3EHyhtWv3F2oL2bHnLc0XwhdCE8LXgt/0dv1QvrqUzZ2xtLbQfD94w+iWS3AOzq6WOBuPX/zAD7QBAzcUP8jA3q4FXEDacMK9LiUDZQKAPJDkhO5rEAgkkA9cQGKgTACAApKcoNTABSQlRB4CF5DkBNYksAkCuqibhuvZtxcKN0WyRzJWW/gZ1/MMoy5E0zBaXuuTxfwtwaOTQBr2XN8wa9sgve8c1g9AypeBDpWv7HL4QQb2di3gAhKYPnABiYEyAQAKSHJC9zUIBBLIBy4gMVAmAEABSU5QauACkhIiD4ELSHICaxLYBAFdONHY2XbtQD14dJIP7le0rq+7c7GoI4TbkfZXrUdzmcVtluAczEVLTNnBe0SU/0CHyld2OfwgA3u7FnABCUwfuIDEQJkAAAUkOaH7GgQCCeQDF5AYKBMAoIAkJyg1cAFJCZGHwAUkOYE1CWyCgC58M/1syvR03XDsqWZ9f37pLi95KmUFdxHM1DNp0zN03bGn7Pq+/NKMmzidttrbIKE5aNG/Hoql1vL/vFS7uuXstJvXVyq/7AUO0CEK3Fj7IAN7uxZwAWnjGSOGDJT3/AfJ8IO8FlhlILFDmQAABSQ5QamBC0hKiDwELiDJCVtat68rvPPw2fze9sWplGQmIaEht9RbHXyuhr6QSJSd6j0rK/euVSe1xBMTuecj62981BcTiVWnOtOR9mjxJydyZyLr7+/YcklYtaVvzS791mptwvemK6v3lUq/qqV+EDd8oZXjyVf11o3l0m+WVvdXav/E1d5IJTuf/AHa6I0ICty4Q3AtEAgkBsoEACggyQlKDVxAUkLkIXABSU7ovgaBQAL5wAUkBsoEACggyQlKDVxAUkLkIXABSU647HrjD2Pwx+trn3CsFzLJRfU99pRkziGhITZeSrlbUGvT09NApkQCJEACJEACvRBIVBa+WU4+dGWm1IubnhAR2PRSXvwRFiGaHVshARIgARIgARLodwI8avT7CrJ/EiABEiABEgg1AR41Qr08bI4ESIAESIAE+p0A36vR7yvI/kmABEiABEgg1AR4VyPUy8PmSIAESIAESKDfCfCo0e8ryP5JgARIgARIINQEeNQI9fKwORIgARIgARLodwI8avT7CrJ/EiABEiABEgg1gX48avj277zzxv+90urH3kO9GdgcCZAACWwdgURl4ej82o6tC2TSh0Vg00tpBp1rXvNgsXB31R7x9WIs9dTY6HNRPfhR8UJo7eaBQnGm2sz6eiGWOjE2enrbJCH8kUb57tLqnXX/zK7d342pn1h7Scqgw0t+/fu+CAKBBGKBC0gMlAkAUECSE5QauICkhMhD4AKSnNB9DQKBBPKBC0gMlAkAUECSE5QauICkhMhD4AKSnMCaBHolEPwMFPe2pbnPteKPjeeOZxJ2o3R4tTU7lOr8hBHv1sW5B+zY4+O5Y5lko7lyuNRaGErNBfcTtlxq31CY/eqyXU5E/aZbGBr+ibnRUcO7dq08Ma1ooQAAIABJREFUEc08F/x4FNBGb0xAIJDAtYALSAyUCQBQQJITlBq4gKSEyEPgApKc0H0NAoEE8oELSAyUCQBQQJITlBq4gKSEyEPgApKccNn1pn9wxmVfkYZtIrDppdSF5lT214yTudypRGzWEhMt3/WqByuuJgJpX00/ncudDCR/vOW77erBirMdkhD6Kzuu+PKeqW/sSKxdRCtqlz8//86fvvnGd956549WGqnzhxDQ4UUZXb0AAoEEooELSAyUCQBQQJITlBq4gKSEyEPgApKc0H0NAoEE8oELSAyUCQBQQJITlBq4gKSEyEPgApKcwJoENkFAFxHbntTjL0c1Iby9xcKN0ezRIWN307aEMFvNKT3+UvAgw7thuXCzlT2SMSebdmQbJCGEY0YWg/slvvomjHb9f1nI/7qf+tbkni9O5n7cWr29dW7KoMPeoIBAIIFrAReQGCgTAKCAJCcoNXABSQmRh8AFJDmh+xoEAgnkAxeQGCgTAKCAJCcoNXABSQmRh8AFJDmBNQlsgoAu4p6nm0ZZiHSt+EAtcmws85plWp4bFyLueqZhloVI1pcfrFrHc5lXTcP0vOQ2SPIczt+zOPdatF7+uBf9Xi77DxFz1Yo/O7bjtfNfDTo8/yWX9ycIBBK4BnABiYEyAQAKSHKCUgMXkJQQeQhcQJITuq9BIJBAPnABiYEyAQAKSHKCUgMXkJQQeQhcQJITWJPAJgis30Dwhdau3V+oLWTHnrc0XwhfCE0IXwt+09v1Q/nqUjZ3xtLaQvP94A2jWy6BOexwnIgRfdM69yW+ET3beTcrbgMEAqm3eTFQJkCGXf4vRYbWfU28m8dLhptn2P2O5VeSgBC6qJuG69m3Fwo3RbJHMlZb+BnX8wyjLkTTMFpe65PF/C3Bo5NAGvZc3zBr2yC932IEB6AL/3nn73uADi988WUVIBBI4BLABSQGygQAKCDJCUoNXEBSQuQhcAFJTui+BoFAAvnABSQGygQAKCDJCUoNXEBSQuQhcAFJTmBNApsgoAsnGjvbrh2oB49O8sGNgtb1dXcuFnWEcDvS/qr1aC6zuM0SmEMpYtmevcs79yVa29nlnqtBhyAQSCAQSAyUCQBQQJITlBq4gKSEyEPgApKcoNTABSQlpMshCAQSCAcuIDFQJgBAAUlOUGrgApISIg+BC0hyAmsS2AQBXfhm+tmU6em64dhTzfr+/NJdXvJUygoeo5ipZ9KmZ+i6Y0/Z9X35pRk3cTpttbdBAnOw40N/azY/nV+9xvGGnOanCivXnL/FAToEgUACgUBioEwAgAKSnKDUwAUkJUQeAheQ5ASlBi4gKSFdDkEgkEA4cAGJgTIBAApIcoJSAxeQlBB5CFxAkhO2tG5fV3jn4bP5ve2LUynJTEJCQ26ptzr4XA19IZEoO9V7VlbuXatOaoknJnLPR9YfUeiLicSqU53pSHu0+JMTuTOR9fd3bLkkrNrSt2aXfmu1NuF705XV+0qlX9VSP4gbvmb9Y8Iaqa3+TnH5vkpDS45+X6vtNtc/VwO00RsREAgkcC3gAhIDZQIAFJDkBKUGLiApIfIQuIAkJ3Rfg0AggXzgAhIDZQIAFJDkBKUGLiApIfIQuIAkJ1x2vfGHMfjj9bVPONYLmeTi+afh59MpnScR/BkSGmLjpZS7BbU2PT0NZEokQAIkQAIk0AuBRGXhm+XkQ1dmSr246QkRgU0vpfoRFiGaG1shARIgARIgARLofwI8avT/GnIGJEACJEACJBBiAjxqhHhx2BoJkAAJkAAJ9D8Bvlej/9eQMyABEiABEiCBEBPgXY0QLw5bIwESIAESIIH+J8CjRv+vIWdAAiRAAiRAAiEmwKNGiBeHrZEACZAACZBA/xPgUaP/15AzIAESIAESIIEQE5COGunywtGFcirEzbI1EiABEiABEiCBfiMgHTWaht7QDbszA+nlfpsR+yUBEiABEiABEggRASObHWkemp27v9rc6To7HXessXY4v3JFLPMjS/1s+hC1zVZIgARIgARIgAT6g0Dw49aMt5PJNyLiV8qVj7S8tfTIYyPDL0bNJk8a/bGE7JIESIAESIAEwkwgeFKi1UzLsSvXGSNfz1ofrdp2JFLiE5Qwrxp7IwESIAESIIG+IbB+pPBb1zbED7OZH2WyfyMa19vtvumfjZIACZAACZAACYSaAD+YPNTLw+ZIgARIgARIoN8J8EFJv68g+ycBEiABEiCBUBPgUSPUy8PmSIAESIAESKDfCfCo0e8ryP5JgARIgARIINQEeNQI9fKwORIgARIgARLodwI8avT7CrJ/EiABEiABEgg1AR41Qr08bI4ESIAESIAE+p0Ajxr9voLsnwRIgARIgARCTYBHjVAvD5sjARIgARIggX4nwKNGv68g+ycBEiABEiCBUBPgUSPUy8PmSIAESIAESKDfCfCo0e8ryP5JgARIgARIINQEeNQI9fKwORIgARIgARLodwI8avT7CrJ/EiABEiABEgg1AR41Qr08bI4ESIAE+pVAorJwdH5tR7+2z77fJbDppTSDLM1rHiwW7q7aI75ejKWeGht9Lqr7nato7eaBQnGm2sz6eiGWOjE2enq7JH+4Uf50ae3XGq1hX1+OJZ8eHX0mZqy3cX7G7enlua+stF4av+r/HTp3SgIdnndd3p8w0B9plO8urd5Z98/s2v3dmNZNNAgEEkgGLiAxUCYAQAFJTlBq4AKSEtLlEAQCCYQDF5AYKBMAoIAkJyg1cAFJCZGHwAUkOYE1CfRKwMhms+5tS3Ofa8UfG88dzyTsRunwamt2KDUf/FXu3bo494Ade3w8dyyTbDRXDpdaC0Opue2QfPu+xeVdseHHs9nvZRIVe+1QyV4cSs9K912S9eK/KnnLumcndvxtdP2vedBhb0xAYPuGwuxXl+1yIuo33cLQ8E/Mbo4aIBBIoHngAhIDZQIAFJDkBKUGLiApIV0OQSCQQDhwAYmBMgEACkhyglIDF5CUEHkIXECSEy67tlqVGTvy7FCsedlWGsJFYNNLqQvNqeyvGSdzuVOJ2KwlJlq+61UPVlxNBNK+mn46lzsZSP54y3fb1YMVZzskocWOTe7+2mjm7+PRs7HkidHhN9uNa+x3b2poXvV/zdd/OjbymvT3O+iwt4WCgforO6748p6pb+xIrHWdDgKBBOKBC0gMlAkAUECSE5QauICkhHQ5BIFAAuHABSQGygQAKCDJCUoNXEBSQuQhcAFJTmBNApsgoIuIbU/q8ZeDmwTe3mLhxmj26JCxu2lbQpit5pQefyl4TODdsFy42coeyZiTTTuyDZIyB73tpYRRMS687N6WL/xSKvdIQj/3aKejgA4vOC+rwIGOGVkM7rL40q2W94kHgUACocAFJAbKBAAoIMkJSg1cQFJCuhyCQCCBcOACEgNlAgAUkOQEpQYuICkh8hC4gCQnsCaBTRDQRdzzdNMoC5GuFR+oRY6NZV6zTMtz40LEXc80zLIQyfryg1XreC7zqmmYnpfcBum9c3A/vlIejQ798NxTEn/n6tIhd+g/Z+MNIaSbGqjD9wZ2OwJTliPkHuTXL65BIJAuzrnwCnAB6YL94gK4gHRxzoVXgAtIF+wXF8AFpItzLrwCXEC6YL+4AC4gXZzTzSsgEEggGbiAxECZAAAFJDlBqYELSEqIPAQuIMkJrElgEwTW/++5L7R27f5CbSE79ryl+UL4nb/RfU0L/h98u34oX13K5s5YWltovh881NhySZqDd23x519oRB8ZH57rvGrZpX9e8v8qN/LmRX/DgzakwMsoP8jA3q4FXEACCIALSAyUCQBQQJITuq9BIJBAPnABiYEyAQAKSHKCUgMXkJQQeQhcQJITWJPAJgjoom4armffXijcFMkeyVht4WdczzOMuhBNw2h5rU8W87cEj04CadhzfcOsbYN0bg6+e1Nh/qGK/tiVE6cj6ycL/+py+SNu83dm3/yvb7zxX9+c3+/6e/Nvfeftwsd81GFvUMCUtzywt2sBF5BA88AFJAbKBAAoIMkJ3dcgEEggH7iAxECZAAAFJDlBqYELSEqIPAQuIMkJrElgEwR04URjZ9u1A/Xg0Uk+uF/Rur7uzsWijhBuR9pftR7NZRa3WQrm4Lc+tTj3B/XIt3ftPHH+n9QKob01cuW/2j31R1Prv3J/a2j/X3bXl3aNvK6hDnuDAqa85YG9XQu4gASaBy4gMVAmAEABSU7ovgaBQAL5wAUkBsoEACggyQlKDVxAUkLkIXABSU5gTQKbIKAL30w/mzI9XTcce6pZ359fustLnkpZwWMUM/VM2vQMXXfsKbu+L7804yZOp632Nkia1/jM/Nznm9Zfjg7Pe/ZVzWbwq+VGhWgZ1kIkcu6XZdU00TQiC5ZhwzZ6gwKmvOWBvV0LuIAEmgcuIDFQJgBAAUlO6L4GgUAC+cAFJAbKBAAoIMkJSg1cQFJC5CFwAUlO2NK6fV3hnYfP5ve2L06lJDMJCQ25pd7q4HM19IVEouxU71lZuXetOqklnpjIPX/u4YW+mEisOtWZjrRHiz85kTsTWX9/xxZLZrP0xZVGou18rFK+s3zu1+0N/cVMovSet2i4e1criXc/VwO00RsRFGjVlr41u/Rbq7UJ35uurN5XKv2qlvpBXPmcMeW6IBBISog8BC4gyQlKDVxAUkLkIXABSU5QauACkhIiD4ELSHKCUgMXkJSQLocgEEggHLiAxECZAAAFJDlBqYELSEqIPAQuIMkJl11v/GEM/nh97ROO9UImufieb+/BzW1KEuiQ0BAbL6XULCq16elppFMjARIgARIggR4IJCoL3ywnH7oyU+rBTEuYCGx6Kbv/gIgwTZu9kAAJkAAJkAAJ9AkBHjX6ZKHYJgmQAAmQAAn0JwEeNfpz3dg1CZAACZAACfQJAb5Xo08Wim2SAAmQAAmQQH8S4F2N/lw3dk0CJEACJEACfUKAR40+WSi2SQIkQAIkQAL9SYBHjf5cN3ZNAiRAAiRAAn1CgEeNPlkotkkCJEACJEAC/UmAR43+XDd2TQIkQAIhJ5CoLBydX9sR8i7ZXhcENr2UZnARzWseLBburtojvl6MpZ4aG33u/E8709rNA4XiTLWZ9fVCLHVibPT0dkn+cKP86dLarzVaw76+HEs+PTr6TGz9M7/96eI7/0fJuXAu8iIjX5nKvtX5RFvQYRcAL/ElIBBIlwg6/xJwAem8+xJ/AheQLhF0/iXgAtJ59yX+BC4gXSLo/EvABaTz7kv8CVxAukTQ+ZeAC0jn3Zf3JwgEErgGcAGJgTIBAApIcoJSAxeQlBB5CFxAkhNYk0CvBIKfgeLetjT3uVb8sfHc8UzCbpQOr7Zmh1LzwV/s3q2Lcw/YscfHc8cyyUZz5XCptTCUmtsOybfvW1zeFRt+PJv9XiZRsdcOlezFofRs53xxVXnl+sjYV68YfXZ4+NTw8KmhxIKhd35SD+iwNyYgEEjgWsAFJAbKBAAoIMkJSg1cQFJC5CFwAUlO6L4GgUAC+cAFJAbKBAAoIMkJSg1cQFJC5CFwAUlOuOx60z8447KvSMM2Edj0UupCcyr7a8bJXO5UIjZriYmW73rVgxVXE4G0r6afzuVOBpI/3vLddvVgxdkOSWixY5O7vzaa+ft49GwseWJ0+M124xrb74DzdniiEI3/LBKZ7fyaswynI4AOeyMOAoEErgVcQGKgTACAApKcoNTABSQlRB4CF5DkhO5rEAgkkA9cQGKgTACAApKcoNTABSQlRB4CF5DkBNYksAkCuojY9qQefzmqCeHtLRZujGaPDhm7m7YlhNlqTunxl2KBdMNy4WYreyRjTjbtyDZIyhz0tpcSRsXovOx7O1z/itWFP37rrf/89s++slS63l0/gqAOlcAuh71NGYQzsMttQ4aAgCxxR3FHbfRtWd4nSr3l20bJ55AEIAFdxD1PN42yEOla8YFa5NhY5jXLtDw3LkTc9UzDLAuRrC8/WLWO5zKvmobpecltkN7bpfvxlfJodOiHwQFICC36VxM7v77ziv9rctf/M55Zslf+9XzxY53HJ6DD9wZ2OwKBQALpwAUkBsoEACggyQlKDVxAUkLkIXABSU7ovgaBQAL5wAUkBsoEACggyQlKDVxAUkLkIXABSU5gTQKbILD+TktfaO3a/YXaQnbseUvzhfCF0ITwteA3vV0/lK8uZXNnLK0tNN8P7ihsuSTNwbu2+PMvNKKPjA/PnX+1Gk28FIsuWJG3EpmHr8i+5ZQP1IKzBmjjvPXy/gSBQALXAC4gMVAmAEABSU5QauACkhIiD4ELSHJC9zUIBBLIBy4gMVAmAEABSU5QauACkhIiD4ELSHICaxLYBAFd1E3D9ezbC4WbItkjGast/IzreYZRF6JpGC2v9cli/pbg0UkgDXuub5i1bZDOzcF3byrMP1TRH7ty4nSkc0vjosn5ZmRW94c8T4NtXOTr6oXepgyiGdjltiFDQECWuKO4ozb6tizvE6Xe8m2j5HNIApCALpxo7Gy7dqAePDrJBzcKWtfX3blY1BHC7Uj7q9ajucziNktBl37rU4tzf1CPfHvXzhPn/0ntxd1rXmtnWy+awb+DBR1ebOzmFRAIJJAMXEBioEwAgAKSnKDUwAUkJUQeAheQ5ITuaxAIJJAPXEBioEwAgAKSnKDUwAUkJUQeAheQ5ATWJLAJArrwzfSzKdPTdcOxp5r1/fmlu7zkqZQVPEYxU8+kTc/Qdceesuv78kszbuJ02mpvg6R5jc/Mz32+af3l6PC8Z1/VbAa/Wm5UCM2tfra4eku9uce2/0lt9X9bWL46knkmGTz7AR32BgUEAglcC7iAxECZAAAFJDlBqYELSEqIPAQuIMkJ3dcgEEggH7iAxECZAAAFJDlBqYELSEqIPAQuIMkJW1q3ryu88/DZ/N7OW+7em0xJ5hESGnJLvdXB52roC4lE2anes7Jy71p1Uks8MZF7/tzDC30xkVh1qjMdaY8Wf3Iidyay/v6OLZbMZumLK41E2/lYpXxn+dyv2xv6i5nEquZ9pLx6z9rqzOra/1R3WvEdD0+MvLrehQBt9EYEBAIJXAu4gMRAmQAABSQ5QamBC0hKiDwELiDJCd3XIBBIIB+4gMRAmQAABSQ5QamBC0hKiDwELiDJCZddb/xhDP54fe0TjvVCJrmoPienJHMOCQ2x8VLK3YJam56eBjIlEiABEiABEuiFQKKy8M1y8qErM6Ve3PSEiMCml/LcvYEQTYmtkAAJkAAJkAAJDBABHjUGaDE5FRIgARIgARIIHwEeNcK3JuyIBEiABEiABAaIAN+rMUCLyamQAAmQAAmQQPgI8K5G+NaEHZEACZAACZDAABHgUWOAFpNTIQESIAESIIHwEeBRI3xrwo5IgARIgARIYIAI8KgxQIvJqZAACZAACZBA+AhIR410eeHoQjkVvh7ZEQmQAAmQAAmQQN8SkI4aTUNv6IbdmYr0ct9OjY2TAAmQAAmQAAl8+ASMbHakeWh27v5qc6fr7HTcscba4fzKFbHMjyz1s+k//G7ZAQmQAAmQAAmQQJ8RCH7cmvF2MvlGRPxKufKRlreWHnlsZPjFqNnkSaPP1pLtkgAJkAAJkEAICQRPSrSaaTl25Tpj5OtZ66NV245ESnyCEsLFYkskQAIkQAIk0H8E1o8UfuvahvhhNvOjTPZvRON6u91/E2HHJEACJEACJEACYSTADyYP46qwJxIgARIgARIYGAJ8UDIwS8mJkAAJkAAJkEAYCfCoEcZVYU8kQAIkQAIkMDAEeNQYmKXkREiABEiABEggjAR41AjjqrAnEiABEiABEhgYAjxqDMxSciIkQAIkQAIkEEYCPGqEcVXYEwmQAAmQAAkMDAEeNQZmKTkREiABEiABEggjAR41wrgq7IkESIAESIAEBoYAjxoDs5ScCAmQAAmQAAmEkQCPGmFcFfZEAiRAAiRAAgNDgEeNgVlKToQESIAESIAEwkiAR40wrgp7IgESIAESIIGBIcCjxsAsJSdCAiRAAiRAAmEkwKNGGFeFPZEACZBA3xNIVBaOzq/t6Pt5cAJi00tpBhA1r3mwWLi7ao/4ejGWemps9Lmo7nfwau3mgUJxptrM+nohljoxNnp6uyR/uFH+dGnt1xqtYV9fjiWfHh19Jmast6G79d8ornyq3sy2tVI08f3s2BMJ03u/DnvbIGDKoA1wLRAIJAbKBAAoIMkJSg1cQFJC5CFwAUlO6L4GgUAC+cAFJAbKBAAoIMkJSg1cQFJC5CFwAUlOYE0CvRIwstmse9vS3Oda8cfGc8czCbtROrzamh1KzQc3PLxbF+cesGOPj+eOZZKN5srhUmthKDW3HZJv37e4vCs2/Hg2+71MomKvHSrZi0Pp2eBazsGF+c96ye9MTPy3HelZr3KoWHNTQ68ZuMPemIApgzbAtUAgkBgoEwCggCQnKDVwAUkJkYfABSQ5ofsaBAIJ5AMXkBgoEwCggCQnKDVwAUkJkYfABSQ54bJrq1WZsSPPDsWal22lIVwENr2UutCcyv6acTKXO5WIzVpiouW7XvVgxdVEIO2r6adzuZOB5I+3fLddPVhxtkMSWuzY5O6vjWb+Ph49G0ueGB1+s924xu7c1PCdXY7/Wmbkf8SsohV9YWT4p35rpxtIoMPeFgoFbtwGuBYIBBIDZQIAFJDkBKUGLiApIfIQuIAkJ3Rfg0AggXzgAhIDZQIAFJDkBKUGLiApIfIQuIAkJ7AmgU0Q0EXEtif1+MtRTQhvb7FwYzR7dMjY3bQtIcxWc0qPvxQLpBuWCzdb2SMZc7JpR7ZBUuagt72UMCrBfQshtNgLSXOyVs8Gpwt/pFabtFJ/F3SFOlQCuxyCKYM2QDgIBBIDZQIAFJDkBKUGLiApIfIQuIAkJ3Rfg0AggXzgAhIDZQIAFJDkBKUGLiApIfIQuIAkJ7AmgU0Q0EXc83TTKAuRrhUfqEWOjWVes0zLc+NCxF3PNMyyEMn68oNV63gu86ppmJ6X3AbpvXNwP75SHo0O/TA4AAkh9J+M7fq2Ufp3s4tfWJz7UjnyrV25H3fe0Ao6fG9gtyMYuGEbIB0EAomBMgEACkhyglIDF5CUEHkIXECSE7qvQSCQQD5wAYmBMgEACkhyglIDF5CUEHkIXECSE1iTwCYIdP7CFr7Q2rX7C7WF7NjzluYL4QuhCeFrwW96u34oX13K5s5YWltovt+5t7DVkjQH79riz7/QiD4yPjx37lU/V135bE28lkq8Ho249trvlmojHQl0KAVeRgkDN2wDXAAEAomBMgEACkhyglIDF5CUEHkIXECSE7qvQSCQQD5wAYmBMgEACkhyglIDF5CUEHkIXECSE1iTwCYI6KJuGq5n314o3BTJHslYbeFnXM8zjLoQTcNoea1PFvO3BI9OAmnYc33DrG2DdG4OvntTYf6hiv7YlROnI+u3NITmrP1+vvZ27sr/NDL0gx3jX5kay1cX/8Va8JYR0GFvUEAgaANcCwQCiYEyAQAKSHKCUgMXkJQQeQhcQJITuq9BIJBAPnABiYEyAQAKSHKCUgMXkJQQeQhcQJITWJPAJgjowonGzrZrB+rBo5N88F6I1vV1dy4WdYRwO9L+qvVoLrO4zVIwB7/1qcW5P6hHvr1r54nz/6RWCGE4rUk/8vr5f/jqmYl/jPh7mi0DdtgbFDBl0Aa4FggEEgNlAgAUkOQEpQYuICkh8hC4gCQndF+DQCCBfOACEgNlAgAUkOQEpQYuICkh8hC4gCQnsCaBTRDQhW+mn02Znq4bjj3VrO/PL93lJU+lrOAxipl6Jm16hq479pRd35dfmnETp9NWexskzWt8Zn7u803rL0eH5z37qmYz+NVyo0J4kdjrevPAcuVqx0t7zkfLhXsa+suJmAfb6A0KmDJoA1wLBAKJgTIBAApIcoJSAxeQlBB5CFxAkhO6r0EgkEA+cAGJgTIBAApIcoJSAxeQlBB5CFxAkhO2tG5fV3jn4bP5ve2LUynJTEJCQ26ptzr4XA19IZEoO9V7VlbuXatOaoknJnLPn3t4oS8mEqtOdaYj7dHiT07kzkTW39+xxZLZLH1xpZFoOx+rlO8sn/t1e0N/MZMoGdGX4vpkZfW3l5c/s1q+wTH+ITv+nSHLCaYM2uiNyMaBOmgDXGvjwB6bZ2CX+7CvF6Wvm+cW/QXfoud278YfxuCP19c+4VgvZJKL556TX9jwlC6gCG71hwOU2Hgp5W5BrU1PTwOZEgmQAAmQAAn0QiBRWfhmOfnQlZlSL256QkRg00u5fociRDNiKyRAAiRAAiRAAoNEgEeNQVpNzoUESIAESIAEQkeAR43QLQkbIgESIAESIIFBIsD3agzSanIuJEACJEACJBA6AryrEbolYUMkQAIkQAIkMEgEeNQYpNXkXEiABEiABEggdAR41AjdkrAhEiABEiABEhgkAjxqDNJqci4kQAIkQAIkEDoCPGqEbknYEAmQAAkMAoFEZeHo/NqOQZjKL/ocNr2UZkBQ85oHi4W7q/aIrxdjqafGRp87/9POtHbzQKE4U21mfb0QS50YGz29XZI/3Ch/urT2a43WsK8vx5JPj44+c/5HrEVbld8ulm5ttFJCX4qlns6OPhfTgx9mLwTosLfdAQKBBK4FXEBioEwAgAKSnKDUwAUkJUQeAheQ5ITuaxAIJJAPXEBioEwAgAKSnKDUwAUkJUQeAheQ5ATWJNArgeBnoLi3Lc19rhV/bDx3PJOwG6XDq63ZodR8cMPDu3Vx7gE79vh47lgm2WiuHC61FoZSc9sh+fZ9i8u7YsOPZ7PfyyQq9tqhkr04lJ7VheZVf38u/8vRkf8ynvuLTHLZLf+z5XolnT77Pm30xqS3KYNrMbDLbUOGgIAscUdxR230bVneJ0q95dtGyb/EcNM/OOMSmXzpQyGw6aXUheZU9teMk7ncqUSXQK2eAAAaEElEQVRs1hITLd/1qgcrriYCaV9NP53LnQwkf7zlu+3qwYqzHZLQYscmd39tNPP38ejZWPLE6PCb7cY1dnDnItao/FM/9ee5zCsRsxiJ/fXYFcejjbvWbAN22Nt69DZlcC0GdrltyBAQkCXuKO6ojb4ty/tEqbd82yj5HJIAJKCLiG1P6vGXo5oQ3t5i4cZo9uiQsbtpW0KYreaUHn8pFkg3LBdutrJHMuZk045sg6R0qbe9lDAqRvCy3vZ1TW+8+xVG3tImbDsG23j3yy+n6m3K4AoM7HLbkCEgIEvcUdxRG31blveJUm/5tlHyOSQBSEAXcc/TTaMsRLpWfKAWOTaWec0yLc+NCxF3PdMwy0Ik68sPVq3jucyrpmF6XnIbpPd26X58pTwaHfphcAASjXji7Xb1YLkVD76oPVFb/s1qW2+3cYfvDex21NuUQToDu9w2ZAgIyBJ3FHfURt+W5X2i1Fu+bZR8DkkAElj/Fyi+0Nq1+wu1hezY85bmC+ELoQnha8Fvert+KF9dyubOWFpbaL4fPNTYcknq0ru2+PMvNKKPjA/PdV5tW5k/GU+nSrN/+uZbf/bm2T+smD+O676u27ANKfAyyt7mBS7AwC63DRkCArLEHcUdtdG3ZXmfKPWWbxsln0MSgAR0UTcN17NvLxRuimSPZKy28DOu5xlGXYimYbS81ieL+VuCRyeBNOy5vmHWtkE616Xv3lSYf6iiP3blxOlIcEuj85+WT43++z1Xf+GXdv/Lq6760kRCOO1SxMIdnvde3p+9TRlcg4FdbhsyBARkiTuKO2qjb8vyPlHqLd82Sj6HJAAJ6MKJxs62awfqwaOTfHC/onV93Z2LRR0h3I60v2o9msssbrMUdOm3PrU49wf1yLd37Txx/p/Uyt23dKOhiWR99Y6W+WIy5sEOZWP3dW9TBvkM7HJHkSEgIEvcUdxRZ9u1S35blveJUm/5tlHyOSQBSEAXvpl+NmV6um449lSzvj+/dJeXPJWygscoZuqZtOkZuu7YU3Z9X35pxk2cTlvtbZA0r/GZ+bnPN62/HB2e9+yrms3gV8uNdto3PGeX4461mntX8/9msdweGnsiHtzzAB3CaW8ogkAgbRgHO2SgvKPIEBCQJbBtgCQnKDVwAUkJkYfABSQ5QamBC0hKiDwELiDJCUoNXEBSQuQhcAFJTlBq4AKSErJ1w/Z1hXcePpvf2744kpLMJCQ05JZ6q4PP1dAXEomyU71nZeXeteqklnhiIvf8uYcX+mIisepUZzrSHi3+5ETuTGT9/R1bLJnN0hdXGom287FK+c7yuV+3N/QXM4mSJhK1/Nfm8/euVa9xjZd2jP9JNlE+N1/QRm9EQCCQwLWAC0gMlAkAUECSE5QauICkhMhD4AKSnNB9DQKBBPKBC0gMlAkAUECSE5QauICkhMhD4AKSnHDZ9cYfxuCP19c+4VgvZJKLF56Tn4unJHMOCQ2x8VLK3YJam56eBjIlEiABEiABEuiFQKKy8M1y8qErM6Ve3PSEiMCml3L9DkWIZsRWSIAESIAESIAEBokAjxqDtJqcCwmQAAmQAAmEjgCPGqFbEjZEAiRAAiRAAoNEgO/VGKTV5FxIgARIgARIIHQEeFcjdEvChkiABEiABEhgkAjwqDFIq8m5kAAJkAAJkEDoCPCoEbolYUMkQAIkQAIkMEgEeNQYpNXkXEiABEiABEggdASko0a6vHB0oZwKXYtsiARIgARIgARIoH8JSEeNpqE3dMPuzEV6uX/nxs5JgARIgARIgAQ+dAJGNjvSPDQ7d3+1udN1djruWGPtcH7liljmR5b62fQferNsgARIgARIgARIoN8IBD9uzXg7mXwjIn6lXPlIy1tLjzw2Mvxi1GzypNFvi8l+SYAESIAESCB8BIInJVrNtBy7cp0x8vWs9dGqbUciJT5BCd9asSMSIAESIAES6EMC60cKv3VtQ/wwm/lRJvs3onG93e7DmbBlEiABEiABEiCBEBLgB5OHcFHYEgmQAAmQAAkMDgE+KBmcteRMSIAESIAESCCEBHjUCOGisCUSIAESIAESGBwCPGoMzlpyJiRAAiRAAiQQQgI8aoRwUdgSCZAACZAACQwOAR41BmctORMSIAESIAESCCEBHjVCuChsiQRIgARIgAQGhwCPGoOzlpwJCZAACZAACYSQAI8aIVwUtkQCJEACJEACg0OAR43BWUvOhARIgARIgARCSIBHjRAuClsiARIgARIggcEhwKPG4KwlZ0ICJEACJEACISTAo0YIF4UtkQAJkAAJkMDgEOBRY3DWkjMhARIgARIggRAS4FEjhIvClkiABEig/wkkKgtH59d29P9EOINNL6UZMNS85sFi4e6qPeLrxVjqqbHR56K636GrtZsHCsWZajPr64VY6sTY6Ontktq7qqX7VqvX2U7a10rRxHPZsScSZrvThu7Wf6O48ql6M9sOpO93JO/9Ouzol/0bmLIQ/kijfHdp9c66f2bX7u/GtG7SQSCQQDJwAYmBMgEACkhyglIDF5CUkC6HIBBIIBy4gMRAmQAABSQ5QamBC0hKiDwELiDJCaxJoFcCRjabdW9bmvtcK/7YeO54JmE3SodXW7NDqfnghod36+LcA3bs8fHcsUyy0Vw5XGotDKXmtkPyW7++VjPiw09mdzw9lFx2Kr+70lweSr8TXMs5uDD/WS/5nYmJ/7YjPetVDhVrbmroNQN32BsTMOX2DYXZry7b5UTUb7qFoeGfmN0cNUAgkEDzwAUkBsoEACggyQlKDVxAUkK6HIJAIIFw4AISA2UCABSQ5ASlBi4gKSHyELiAJCdcdm21KjN25NmhWPOyrTSEi8Cml1IXmlPZXzNO5nKnErFZS0y0fNerHqy4mgikfTX9dC53MpD88ZbvtqsHK852SEKLnsxNPDKceiUa/VkscWZHesF3drqdeyu+s8vxX8uM/I+YVbSiL4wM/9RvrUugw94WCgbqr+y44st7pr6xI7HWdToIBBKIBy4gMVAmAEABSU5QauACkhLS5RAEAgmEAxeQGCgTAKCAJCcoNXABSQmRh8AFJDmBNQlsgoAuIrY9qcdfjmpCeHuLhRuj2aNDxu6mbQlhtppTevyl4DGBd8Ny4WYreyRjTjbtyDZI8hyibvOOUjkbTf9d0JUQWuyFpDlZq2eDg4c/UqtNWqm/6zy8AB3Kgd3XONAxI4vBXRY/+K27/0AgkEA2cAGJgTIBAApIcoJSAxeQlJAuhyAQSCAcuIDEQJkAAAUkOUGpgQtISog8BC4gyQmsSWATBHQR9zzdNMpCpGvFB2qRY2OZ1yzT8ty4EHHXMw2zLESyvvxg1Tqey7xqGqbnJbdB6szB37v01iOvv/7tt+fv9dL/cefIW+ceUOg/Gdv1baP072YXv7A496Vy5Fu7cj/u/G0POuwNSpeB3Tw4WW8ABAIJNA9cQGKgTACAApKcoNTABSQlpMshCAQSCAcuIDFQJgBAAUlOUGrgApISIg+BC0hyAmsS2ASB9f977gutXbu/UFvIjj1vab4QvhCaEL4W/Ka364fy1aVs7oyltYXm+517C1stdeag/TS760tTU//2ytxzRvUPf/bz29z1qfm56spna+K1VOL1aMS11363VBvpKKDD3qB8kIG9XQu4gARoABeQGCgTAKCAJCd0X4NAIIF84AISA2UCABSQ5ASlBi4gKSHyELiAJCewJoFNENBF3TRcz769ULgpkj2SsdrCz7ieZxh1IZqG0fJanyzmbwkenQTSsOf6hlnbBml9Dg0zMhuNvp5IPzE+/n2tNlNu6cFbRtZ+P197O3flfxoZ+sGO8a9MjeWri/9iLXjLCOiwNygfZGBv1wIuIAEawAUkBsoEACggyQnd1yAQSCAfuIDEQJkAAAUkOUGpgQtISog8BC4gyQmsSWATBHThRGNn27UD9eDRST54H0Lr+ro7F4s6QrgdaX/VejSXWdxm6aI5+IYQuu9rQhhOa9KPvB4z1v/9rWcm/jHi72m2DNjhRYFdvQCm3JX/oi8CgUC6KObdF4ALSO/6L6qAC0gXxbz7AnAB6V3/RRVwAemimHdfAC4gveu/qAIuIF0U09ULIBBIIBq4gMRAmQAABSQ5QamBC0hKiDwELiDJCaxJYBMEdOGb6WdTpqfrhmNPNev780t3eclTKSt4jGKmnkmbnqHrjj1l1/fll2bcxOm01d4GSW9Vfm959eP1xtV2a0+jOrOUv8OL/vdUxBPCi8Re15sHlitXO17acz5aLtzT0F9OxDzYRm9QwJS3PLC3awEXkEDzwAUkBsoEACggyQnd1yAQSCAfuIDEQJkAAAUkOUGpgQtISog8BC4gyQlbWrevK7zz8Nn83vXPTXpPNCUZR0hoyC31Vgefq6EvJBJlp3rPysq9a9VJLfHERO75yPobH/XFRGLVqc50pD1a/MmJ3JnI+vs7tlry3Wsqa3etrs6srt5RbY4aiady4ydinU8S06MvxfXJyupvLy9/ZrV8g2P8Q3b8O0OWE0wZtNEbERRo1Za+Nbv0W6u1Cd+brqzeVyr9qpb6Qfzc7ZYNrgcCgbRB2PtMmYHyFu1rhn3dPNiHQOKUZQIAFJDkBKUGLiApIZc33PjDGPzx+tonHOuFTHJRfY89JRlySGiIjZdS7hbU2vT0NJApkQAJkAAJkEAvBBKVhW+Wkw9dmSn14qYnRAQ2vZTdf0BEiGbNVkiABEiABEiABPqFAI8a/bJS7JMESIAESIAE+pIAjxp9uWxsmgRIgARIgAT6hQDfq9EvK8U+SYAESIAESKAvCfCuRl8uG5smARIgARIggX4hwKNGv6wU+yQBEiABEiCBviTAo0ZfLhubJgESIAESIIF+IcCjRr+sFPskARIgARIggb4kwKNGXy4bmyYBEiCBsBNIVBaOzq/tCHub7O/9CWx6Kc3gGprXPFgs3F21R3y9GEs9NTb6XLTzieBCaO3mgUJxptrM+nohljoxNnp6u6T2rmrpvtXqdbaT9rVSNPFcduyJhLn+GfnRVuW3i6VbG62U0Jdiqaezo8+tf2Y57PD9+V3qK3qb8qWSzr3GwC63DRkCArLEHcUdtdG3ZXmfKPWWbxsln0MS2JhA8DNQ3NuW5j7Xij82njueSdiN0uHV1uxQaj644eHdujj3gB17fDx3LJNsNFcOl1oLQ6m57ZD81q+v1Yz48JPZHU8PJZedyu+uNJeH0u/oQvOqvz+X/+XoyH8Zz/1FJrnslv/Zcr2STp99nzY2njVSepsySGRgl9uGDAEBWeKO4o7a6NuyvE+Uesu3jZJ/ieGmf3DGJTL50odCYNNLqQvNqeyvGSdzuVOJ2KwlJlq+61UPVlxNBNK+mn46lzsZSP54y3fb1YMVZzskoUVP5iYeGU69Eo3+LJY4syO94Ds73eDnxscalX/qp/48l3klYhYjsb8eu+J4tHHXmm3ADntbj96mDK7FwC63DRkCArLEHcUdtdG3ZXmfKPWWbxsln0MSgAR0EbHtST3+clQTwttbLNwYzR4dMnY3bUsIs9Wc0uMvxQLphuXCzVb2SMacbNqRbZDkLqNu845SORtN/13QldDbvq7pjXe/wshb2oRtx2Ab73755VS9TRlcgYFdbhsyBARkiTuKO2qjb8vyPlHqLd82Sj6HJAAJ6CLuebpplIVI14oP1CLHxjKvWabluXEh4q5nGmZZiGR9+cGqdTyXedU0TM9LboPU6dLfu/TWI6+//u235+/10v9x58hbnZ8v3Ign3m5XD5Zb8eCL2hO15d+stvV2G3cIp72h2NuUN4zrFRQDZQK/gIsiT1+pfwFpcMpdfu9Vtoo83HKGcjhrEng/Auv/AsUXWrt2f6G2kB173tJ8IXwhNCF8LfhNb9cP5atL2dwZS2sLzfeDhxpbLnUa1X6a3fWlqal/e2XuOaP6hz/7+W1u8HLbyvzJeDpVmv3TN9/6szfP/mHF/HFc93Xdhm2838wvrfc2r0tndV5lYJfbhgwBAVnijuKO2ujbsrxPlHrLt42SzyEJQAK6qJuG69m3Fwo3RbJHMlZb+BnX8wyjLkTTMFpe65PF/C3Bo5NAGvZc3zBr2yCtd9kwI7PR6OuJ9BPj49/XajPlVucspOVTo/9+z9Vf+KXd//Kqq740kRBOuxSxcIdw2huKvU15w7heQTFQJvALuCjy9JX6F5AGp9zl915lq8jDLWcoh7MmgfcjoAsnGjvbrh2oB49O8sH9itb1dXcuFnWEcDvS/qr1aC6zuM3SRY36hhC673ceoZwTW7rR0ESyvnpHy3wxGfNghxcFdvVCb1MG0QzsckeRISAgS9xR3FFn27VLfluW94lSb/m2UfI5JAFIQBe+mX42ZXq6bjj2VLO+P790l5c8lbKCxyhm6pm06Rm67thTdn1ffmnGTZxOW+1tkPRW5feWVz9eb1xtt/Y0qjNL+Tu86H9PRbxO+4bn7HLcsVZz72r+3yyW20NjT8SDQwjoEE57QxEEAmnDONghA+UdRYaAgCyBbQMkOUGpgQtISog8BC4gyQlKDVxAUkLkIXABSU5QauACkhIiD4ELSHKCUgMXkJSQrRu2ryu88/DZ/N71z016Ty4lGUdIaMgt9VYHn6uhLyQSZad6z8rKvWvVSS3xxETu+cj63QR9MZFYdaozHWmPFn9yIncmsv7+jq2WfPeaytpdq6szq6t3VJujRuKp3PiJ85/Tlajlvzafv3eteo1rvLRj/E+yifK5+YI2eiMCAoEErgVcQGKgTACAApKcoNTABSQlRB4CF5DkhO5rEAgkkA9cQGKgTACAApKcoNTABSQlRB4CF5DkhMuuN/4wBn+8vvYJx3ohk1yUb1wHV6Akcw4JDbHxUsrdglqbnp4GMiUSIAESIAES6IVAorLwzXLyoSszpV7c9ISIwKaXcv0ORYhmxFZIgARIgARIgAQGiQCPGoO0mpwLCZAACZAACYSOAI8aoVsSNkQCJEACJEACg0SA79UYpNXkXEiABEiABEggdAR4VyN0S8KGSIAESIAESGCQCPCoMUirybmQAAmQAAmQQOgI8KgRuiVhQyRAAiRAAiQwSAR41Bik1eRcSIAESIAESCB0BKSjRrq8cHShnApdi2yIBEiABEiABEigfwlIR42moTd0w+7MRXq5f+fGzkmABEiABEiABD50AkY2O9I8NDt3f7W503V2Ou5YY+1wfuWKWOZHlvrZ9B96s2yABEiABEiABEig3wgEP27NeDuZfCMifqVc+UjLW0uPPDYy/GLUbPKk0W+LyX5JgARIgARIIHwEgiclWs20HLtynTHy9az10aptRyIlPkEJ31qxIxIgARIgARLoQwLrRwq/dW1D/DCb+VEm+zeicb3d7sOZsGUSIAESIAESIIEQEuAHk4dwUdgSCZAACZAACQwOAT4oGZy15ExIgARIgARIIIQEeNQI4aKwJRIgARIgARIYHAI8agzOWnImJEACJEACJBBCAjxqhHBR2BIJkAAJkAAJDA4BHjUGZy05ExIgARIgARIIIQEeNUK4KGyJBEiABEiABAaHAI8ag7OWnAkJkAAJkAAJhJAAjxohXBS2RAIkQAIkQAKDQ4BHjcFZS86EBEiABEiABEJIgEeNEC4KWyIBEiABEiCBwSHAo8bgrCVnQgIkQAIkQAIhJMCjRggXhS2RAAmQAAmQwOAQ4FFjcNaSMyEBEiABEiCBEBLgUSOEi8KWSIAESIAESGBwCJjBVDSvebBYuLtqj/h6MZZ6amz0uajudyaptZsHCsWZajPr64VY6sTY6OnNSUL4I43y3aXVO+v+mV27vxvTLsDchmtdyGZBAiRAAiRAAiTwoRAwstmse9vS3Oda8cfGc8czCbtROrzamh1KzQc3PLxbF+cesGOPj+eOZZKN5srhUmthKDXXu9S+oTD71WW7nIj6TbcwNPwT88JRY8uv9aEA5UVJgARIgARIgARkArrQnMr+mnEylzuViM1aYqLlu171YMXVRCDtq+mnc7mTgeSPt3y3XT1YcXqWhNBf2XHFl/dMfWNHYk1uY1uu9d4LcEQCJEACJEACJPAhENBFxLYn9fjLUU0Ib2+xcGM0e3TI2N20LSHMVnNKj78UPOPwblgu3Gxlj2TMyaYd6VUSQjhmZDG4KeIr7xLZjmt9CDx5SRIgARIgARIggfcQ0EXc83TTKAuRrhUfqEWOjWVes0zLc+NCxF3PNMyyEMn68oNV63gu86ppmJ6X7FWSL33hwcn6i9t6Lfm6rEmABEiABEiABD5AAuv3FnyhtWv3F2oL2bHnLc0XwhdCE8LXgt/0dv1QvrqUzZ2xtLbQfD94w2hvEphYb4HABa5FiQRIgARIgARI4IMioIu6abiefXuhcFMkeyRjtYWfcT3PMOpCNA2j5bU+WczfEjw6CaRhz/UNs9arBGb1QV4LtEGJBEiABEiABEhgSwnowonGzrZrB+rBo5N8cL+idX3dnYtFHSHcjrS/aj2ayyxuhQRa/yCvBdqgRAIkQAIkQAIksKUEdOGb6WdTpqfrhmNPNev780t3eclTKSt4jGKmnkmbnqHrjj1l1/fll2bcxOm01e5VAq1/kNcCbVAiARIgARIgARLYUgLa9PS00Nr2ncXCb1Sbo21tOZr6q7GxZ2MXPsLLvqNYuLfaHGtrpWjyr8bGno4Z5z/dqxfJqi398WI1Jnyz7QtNdzXx9sjk/7kj0hZBG1t7rS0lxTASIAESIAESIIEeCHSOGj34aCEBEiABEiABEiCBLggon27RhYNfQgIkQAIkQAIkQAJdE+BRo2tU/EISIAESIAESIIHLJ8CjxuUzo4MESIAESIAESKBrAjxqdI2KX0gCJEACJEACJHD5BDo/RP7ybXQMDIHX//z1jeYy/XvTG0l8nQRIgARIgAS6JPD/AwUIFsUue8wgAAAAAElFTkSuQmCC;" vertex="1" parent="1">
          <mxGeometry x="40" y="880" width="718" height="569" as="geometry" />
        </mxCell>
        <mxCell id="V_HjX4hnAaI_aaEMFoxw-5" value="block bitmap:&lt;br&gt;1) block id =2048已使用；&lt;br&gt;2）对应下图中红色框中的内容，计算方式为：&lt;br&gt;进制转化：0x100 = 256&lt;br&gt;按bit计算：256*8 = 2048" style="rounded=0;whiteSpace=wrap;html=1;" vertex="1" parent="1">
          <mxGeometry x="40" y="780" width="640" height="80" as="geometry" />
        </mxCell>
      </root>
    </mxGraphModel>
  </diagram>
</mxfile>
